**ABCDEFGHIJKLMNOPQRSTUVWXYZabcdefghijklmnopqrstuvwxyz**************************
**PARASOLID !"#$%&'()*+,-./:;<=>?@[\]^_`{|}~0123456789**************************
**PART1;
MC=x86;
MC_MODEL=x86 Family 6 Model 23 Stepping 10, GenuineIntel;
MC_ID=unknown;
OS=Windows_NT;
OS_RELEASE=unknown;
FRU=Parasolid Version 24.0, build 175,  7-28-2011;
APPL=SolidWorks 2012-2011268;
SITE=;
USER=unknown;
FORMAT=text;
GUISE=transmit;
KEY=Bracket;
FILE=Bracket.x_t;
DATE=Thu Apr 19 10:45:28 2012;
**PART2;
SCH=SCH_2400175_20000;
USFLD_SIZE=0;
**PART3;
**END_OF_HEADER*****************************************************************
T51 : TRANSMIT FILE created by modeller version 240017523 SCH_2400175_20000_1300
6186 0 12 27 CCCCCCCCCCCCCCCCCCCCCCCA16 index_map_offset0 0 1 dA9 index_map82 0
 A17 node_id_index_map82 0 A20 schema_embedding_map82 0 Z1 1743 0 2 0 0 0 0 1e3
 1e-8 0 3 0 1 0 3 1 4 5 6 7 8 9 10 0 0 0 0 70 11 CI9 list_type0 0 1 uI10 notrans
mit0 0 1 lCCCDCCDI12 finger_index0 0 1 dI12 finger_block1012 0 CZ2 0 4 T1 0 0 2
 20 1 11 11 13 255 4 3 0 1 0 12 0 0 8 12 51 255 5 664 0 13 14 0 0 +-.025 .015 .0
729289321881347 1 0 0 .005 0 0 -1 31 255 6 1428 0 9 15 0 0 +-.017 34694469519536
15e-33 .02992893218813455 0 1 183697019872103e-30 0 -183697019872103e-30 1 .003
 29 255 7 1059 0 10 16 0 -.0398456990766986 .01499987548213048 .0064945338153198
2 19 255 8 1 0 1 0 0 4 V16 255 9 1429 0 ?17 0 18 6 0 0 1 18 255 10 1057 0 19 0 2
0 7 1e-6 1 17 255 19 0 21 22 23 10 24 25 0 26 -18 20 1044 0 27 10 28 16 1e-6 1 1
7 27 0 0 0 0 20 29 30 0 22 +18 28 1038 0 29 20 31 32 ?1 29 16 1048 0 20 32 7 -.0
3988098594664415 .015 .00677950591940611 29 32 1040 0 28 33 16 -.042182383045131
35 .015 .00649453381531982 29 33 1029 0 31 34 32 -.0398456990766986 .01499987548
213048 -.0101543394597634 18 31 1027 0 23 28 35 33 1e-6 1 29 34 1024 0 35 36 33
 -.04218238304513135 .015 -.0101543394597634 18 35 1022 0 37 31 38 34 ?1 29 36 1
019 0 38 39 34 -.03988098594664415 .015 -.01043931156384966 18 38 1016 0 40 35 4
1 36 1e-6 1 29 39 991 0 41 42 36 -.02988098594664415 0 .01584126968905075 18 41
 988 0 43 38 44 39 ?1 29 42 980 0 44 45 39 -.03488098594664415 .01 .015841269689
05075 18 44 977 0 46 41 47 42 ?1 29 45 976 0 47 48 42 -.03488098594664415 .005 .
01584126968905075 18 47 973 0 49 44 50 45 ?1 29 48 966 0 50 51 45 -.036632758620
1036 .01380118655621048 .01584126968905075 18 50 964 0 52 47 53 48 ?1 29 51 957
 0 53 54 48 -.0366327586201036 .01380118655621048 -.01609341121286325 18 53 955
 0 55 50 56 51 ?1 29 54 941 0 56 57 51 -.03488098594664415 .01 -.016093411212863
25 18 56 938 0 58 53 59 54 ?1 29 57 937 0 59 60 54 -.03488098594664415 .005 -.01
609341121286325 18 59 934 0 61 56 62 57 ?1 29 60 926 0 62 63 57 -.02988098594664
415 0 -.01609341121286325 18 62 923 0 64 59 65 60 ?1 29 63 916 0 65 66 60 -.025
 0 .01584126968905075 18 65 911 0 67 62 68 63 ?1 29 66 910 0 68 69 63 -.025 0 -.
01609341121286325 18 68 905 0 70 65 71 66 ?1 29 69 886 0 71 72 66 .0104677272937
202 -.02853553390593275 .1235355339059326 18 71 883 0 73 68 74 69 ?1 29 72 875 0
 74 75 69 .0104677272937202 -.03 .135 18 74 871 0 76 71 77 72 ?1 29 75 870 0 77
 78 72 .0104677272937202 -.03 .1270710678118654 18 77 867 0 79 74 80 75 ?1 29 78
 847 0 80 81 75 -.0104677272937202 -.03 .135 18 80 843 0 82 77 83 78 ?1 29 81 84
2 0 83 84 78 -.0104677272937202 -.03 .1270710678118654 18 83 839 0 85 80 86 81 ?
1 29 84 836 0 86 87 81 -.0104677272937202 -.02853553390593275 .1235355339059326
 18 86 833 0 88 83 89 84 ?1 29 87 827 0 89 90 84 -.0104677272937202 .00351204916
8586265 .0914879508314139 18 89 825 0 91 86 92 87 ?1 29 90 824 0 92 93 87 .01046
77272937202 .003512049168586265 .0914879508314139 18 92 822 0 94 89 95 90 ?1 29
 93 799 0 95 96 90 .0125 3469446951953615e-33 .0175 18 95 797 0 97 92 98 93 ?1 2
9 96 793 0 98 99 93 -.0125 4133182947122315e-33 .0175 18 98 791 0 100 95 101 96
 ?1 29 99 787 0 101 102 96 -.0125 1040834085586084e-32 -.0175 18 101 785 0 103 9
8 104 99 ?1 29 102 784 0 104 105 99 .0125 1040834085586084e-32 -.0175 18 104 782
 0 106 101 107 102 ?1 29 105 479 0 107 108 102 -.025 .02 .0729289321881347 18 10
7 476 0 109 104 110 105 ?1 29 108 475 0 110 111 105 -.025 .02 .0620710678118657
 18 110 472 0 112 107 113 108 ?1 29 111 471 0 113 114 108 .025 .02 .072928932188
1347 18 113 468 0 115 110 116 111 ?1 29 114 467 0 116 117 111 .025 .02 .06207106
78118657 18 116 464 0 118 113 119 114 ?1 29 117 451 0 119 120 114 -.025 .0185355
3390593275 .058535533905933 18 119 448 0 121 116 122 117 ?1 29 120 447 0 122 123
 117 -.025 .001464466094067242 .04146446609406725 18 122 444 0 124 119 125 120 ?
1 29 123 443 0 125 126 120 .025 .01853553390593275 .058535533905933 18 125 440 0
 127 122 128 123 ?1 29 126 439 0 128 129 123 .025 .001464466094067242 .041464466
09406725 18 128 436 0 130 125 131 126 ?1 29 129 429 0 131 132 126 -.025 38044898
4992722e-33 .03792893218813455 18 131 426 0 133 128 134 129 ?1 29 132 425 0 134
 135 129 .025 380448984992722e-33 .03792893218813455 18 134 422 0 136 131 137 13
2 ?1 29 135 415 0 137 138 132 -.025 -.03 .1270710678118654 18 137 412 0 139 134
 140 135 ?1 29 138 411 0 140 141 135 .025 -.03 .1270710678118654 18 140 408 0 14
2 137 143 138 ?1 29 141 395 0 143 144 138 -.025 -.02853553390593275 .12353553390
59326 18 143 392 0 145 140 146 141 ?1 29 144 391 0 146 147 141 -.025 .0185355339
059327 .0764644660940675 18 146 388 0 148 143 149 144 ?1 29 147 387 0 149 150 14
4 .025 -.02853553390593275 .1235355339059326 18 149 384 0 151 146 152 147 ?1 29
 150 383 0 152 153 147 .025 .0185355339059327 .0764644660940675 18 152 380 0 154
 149 155 150 ?1 29 153 373 0 155 156 150 -.03988098594664415 .015 -.025 18 155 3
70 0 157 152 158 153 ?1 29 156 369 0 158 159 153 -.03988098594664415 .015 .025 1
8 158 366 0 160 155 161 156 ?1 29 159 353 0 161 162 156 -.03488098594664415 .01
 -.025 18 161 350 0 163 158 164 159 ?1 29 162 349 0 164 165 159 -.03488098594664
415 .005 -.025 18 164 346 0 166 161 167 162 ?1 29 165 345 0 167 168 162 -.034880
98594664415 .01 .025 18 167 342 0 169 164 170 165 ?1 29 168 341 0 170 171 165 -.
03488098594664415 .005 .025 18 170 338 0 172 167 173 168 ?1 29 171 331 0 173 174
 168 -.02988098594664415 0 -.025 18 173 328 0 175 170 176 171 ?1 29 174 327 0 17
6 177 171 -.02988098594664415 0 .025 18 176 324 0 178 173 179 174 ?1 29 177 275
 0 180 181 174 .025 -.03 .135 18 180 234 0 182 183 184 177 ?1 29 181 279 0 184 1
85 177 .025 1469576158976824e-32 -.04 18 184 246 0 186 180 0 181 ?1 29 185 281 0
 187 188 181 -.025 -.03 .135 18 187 216 0 189 190 183 185 ?1 29 188 285 0 183 19
1 185 -.025 1469576158976824e-32 -.04 18 183 228 0 192 187 180 188 ?1 29 191 53
 0 193 194 188 -.0440872678914912 .015 .025 18 193 44 0 195 196 190 191 ?1 29 19
4 56 0 190 197 191 -.025 1377727649040772e-33 .025 18 190 48 0 198 193 187 194 ?
1 29 197 18 0 179 199 194 -.0440872678914912 .015 -.025 18 179 15 0 200 176 196
 197 ?1 29 199 4 0 196 0 197 -.025 597015314584335e-32 -.025 18 196 2 0 201 179
 193 199 ?1 17 201 0 202 203 192 196 204 205 0 206 +15 255 202 139 0 133 207 0 1
7 203 0 202 67 201 68 208 209 0 0 +17 192 0 202 201 186 183 210 211 0 204 -17 20
4 0 0 0 0 183 201 205 0 0 -16 205 152 0 ?201 212 213 214 213 213 1 17 206 0 0 0
 0 196 215 216 0 208 -17 215 0 217 218 208 173 206 216 0 219 +16 216 6 0 ?215 22
0 209 221 0 0 1 17 208 0 217 215 70 196 203 209 0 0 -15 217 928 0 70 222 0 17 70
 0 217 208 218 68 223 224 0 225 -16 209 60 0 ?203 216 226 227 228 226 1 16 226 9
06 0 ?67 209 228 227 209 228 1 30 255 227 70 0 209 229 230 0 +-.025 0 -.025 0 0
 1 16 228 912 0 ?198 226 231 227 226 209 1 17 198 0 202 133 67 190 232 228 0 233
 +16 231 40 0 ?234 228 235 236 0 0 1 17 234 0 0 0 0 176 233 231 0 0 +16 235 347
 0 ?163 231 237 238 0 0 1 30 236 52 0 231 239 240 0 +-.025 0 .025 -1 0 0 30 239
 17 0 241 238 236 0 +-.03488098594664415 .015 -.025 -1 0 0 30 240 51 0 237 236 2
42 0 +-.03488098594664415 0 .025 0 1 0 16 237 339 0 ?243 235 244 240 0 0 1 30 24
2 50 0 212 240 229 0 +-.03488098594664415 .015 .025 -1 0 0 16 212 367 0 ?245 241
 205 242 0 0 1 30 229 67 0 244 242 227 0 +-.0440872678914912 .015 -.025 0 0 1 16
 244 57 0 ?195 237 241 229 0 0 1 17 195 0 246 160 200 193 247 244 0 245 +16 241
 371 0 ?200 244 212 239 0 0 1 17 200 0 246 195 157 179 248 241 0 247 +15 246 105
0 0 29 249 0 17 157 0 246 200 40 155 250 251 0 252 +17 248 0 0 0 0 155 200 241 0
 0 -17 247 0 0 0 0 179 195 244 0 0 -17 40 0 246 157 253 38 37 254 0 255 -17 250
 0 21 23 252 38 157 251 0 0 -16 251 1017 0 ?157 256 257 258 0 0 1 17 252 0 21 25
0 259 155 260 261 0 248 +15 21 1069 0 19 262 0 17 259 0 21 252 58 161 263 264 0
 0 -17 260 0 0 0 0 161 252 261 0 259 -16 261 565 0 ?252 265 266 267 0 0 1 16 265
 544 0 ?268 269 261 270 0 0 1 16 266 567 0 ?271 261 272 273 0 0 1 31 267 573 0 2
61 273 274 0 --.03988098594664415 .01 -.025 0 0 -1 -1 0 0 .005 31 273 574 0 266
 275 267 0 --.03988098594664415 .01 .025 0 0 1 1 0 0 .005 31 274 597 0 276 267 2
77 0 -.025 -.025 .1270710678118654 -1 0 0 0 0 1 .005 16 276 590 0 ?278 272 279 2
74 0 0 1 31 277 596 0 272 274 280 0 --.025 -.025 .1270710678118654 1 0 0 0 0 -1
 .005 16 272 588 0 ?281 266 276 277 0 0 1 31 280 620 0 282 277 283 0 -.025 .005
 .03792893218813455 -1 0 0 0 0 1 .005 16 282 613 0 ?136 279 284 280 0 0 1 31 283
 619 0 279 280 285 0 --.025 .005 .03792893218813455 1 0 0 0 0 -1 .005 16 279 611
 0 ?124 276 282 283 0 0 1 31 285 643 0 286 283 287 0 -.025 .015 .062071067811865
7 1 0 0 0 0 -1 .005 16 286 636 0 ?127 284 288 285 0 0 1 31 287 642 0 284 285 289
 0 --.025 .015 .0620710678118657 -1 0 0 0 0 1 .005 16 284 634 0 ?112 282 286 287
 0 0 1 31 289 666 0 290 287 291 0 -.025 .015 .0729289321881347 1 0 0 0 0 -1 .005
 16 290 659 0 ?115 288 0 289 0 0 1 31 291 665 0 288 289 292 0 --.025 .015 .07292
89321881347 -1 0 0 0 0 1 .005 16 288 657 0 ?148 286 290 291 0 0 1 31 292 781 0 2
93 291 294 0 +-612323399573676e-32 1040834085586084e-32 -.0175 0 1 1836970198721
03e-30 0 -183697019872103e-30 1 .0125 16 293 786 0 ?295 296 297 292 0 0 1 30 294
 790 0 296 292 298 0 +-.0125 68285042751239e-47 .04 29738116731031e-29 -18369701
9872103e-30 1 16 296 792 0 ?100 299 293 294 0 0 1 31 298 796 0 299 294 300 0 +45
9242549680258e-32 3469446951953615e-33 .0175 0 1 183697019872103e-30 0 -18369701
9872103e-30 1 .0125 16 299 798 0 ?301 302 296 298 0 0 1 30 300 802 0 302 298 303
 0 +.0125 204855128253717e-47 .04 -29738116731031e-29 183697019872103e-30 -1 16
 302 803 0 ?304 305 299 300 0 0 1 32 255 303 821 0 305 300 306 0 +45924254968025
8e-32 .003512049168586265 .0914879508314139 0 .707106781186546 .707106781186549
 0 .707106781186549 -.707106781186546 .01480360190600214 .0104677272937202 16 30
5 826 0 ?307 308 302 303 0 0 1 30 306 830 0 308 303 309 0 +-.0104677272937202 .0
2 .075 -532359306840964e-31 -.707106781186549 .707106781186546 16 308 837 0 ?88
 310 305 306 0 0 1 30 309 831 0 310 306 311 0 +-.0104677272937202 -.03 .125 -752
869751790033e-31 693889390390721e-30 1 16 310 848 0 ?82 312 308 309 0 0 1 31 311
 832 0 312 309 313 0 --.0104677272937202 -.025 .1270710678118654 -1 0 -752869751
790033e-31 -752869751790033e-31 0 1 .005 16 312 855 0 ?314 315 310 311 0 0 1 30
 313 864 0 315 311 316 0 +.0104677272937202 -.03 .125 752869751790033e-31 -69388
9390390721e-30 -1 16 315 876 0 ?317 318 312 313 0 0 1 30 316 865 0 318 313 319 0
 +.0104677272937202 .02 .075 532359306840964e-31 .707106781186549 -.707106781186
546 16 318 887 0 ?320 321 315 316 0 0 1 31 319 866 0 321 316 322 0 -.01046772729
37202 -.025 .1270710678118654 1 0 752869751790033e-31 752869751790033e-31 0 -1 .
005 16 321 894 0 ?79 224 318 319 0 0 1 30 322 919 0 224 319 323 0 +-.025 0 -.016
09341121286325 -1 0 0 16 224 927 0 ?223 324 321 322 0 0 1 30 323 920 0 324 322 3
25 0 +-.03488098594664415 0 -.01609341121286325 0 1 0 16 324 942 0 ?326 327 224
 323 0 0 1 31 325 921 0 327 323 328 0 --.02988098594664415 .005 -.01609341121286
325 0 0 -1 -1 0 0 .005 16 327 949 0 ?64 329 324 325 0 0 1 31 328 922 0 329 325 3
30 0 --.03988098594664415 .01 -.01609341121286325 0 0 -1 -1 0 0 .005 16 329 956
 0 ?55 331 327 328 0 0 1 30 330 963 0 331 328 332 0 +-.0366327586201036 .0138011
8655621048 -.025 0 0 1 16 331 965 0 ?333 334 329 330 0 0 1 30 332 969 0 334 330
 335 0 +-.03488098594664415 0 .01584126968905075 0 -1 0 16 334 981 0 ?49 336 331
 332 0 0 1 30 335 970 0 336 332 337 0 +-.025 0 .01584126968905075 1 0 0 16 336 9
92 0 ?338 339 334 335 0 0 1 31 337 971 0 339 335 340 0 --.02988098594664415 .005
 .01584126968905075 0 0 1 1 0 0 .005 16 339 999 0 ?341 342 336 337 0 0 1 31 340
 972 0 342 337 258 0 --.03988098594664415 .01 .01584126968905075 0 0 1 1 0 0 .00
5 16 342 1005 0 ?46 254 339 340 0 0 1 133 255 258 1020 0 251 340 343 0 +344 -.03
988098594664415 .015 -.01043931156384966 -.03988098594664415 .015 -.025 .0145606
8843615032 0 133 343 1021 0 256 258 345 0 +344 -.03988098594664415 .015 .025 -.0
3988098594664415 .015 .00677950591940611 .05 .0317795059194061 30 344 376 0 1 34
6 347 348 --.03988098594664415 .015 -.025 0 0 1 30 346 362 0 257 349 344 0 --.03
488098594664415 .005 -.025 0 0 1 30 347 398 0 350 344 351 0 --.025 .018535533905
93275 .0764644660940675 1 0 0 141 255 348 258 352 352 344 141 352 343 348 348 34
4 16 350 396 0 ?353 354 256 347 0 0 1 30 351 404 0 355 347 356 0 +.025 -.0285355
3390593275 .1235355339059326 1 0 0 16 355 402 0 ?357 358 354 351 354 354 1 30 35
6 418 0 359 351 360 0 --.025 -.03 .1270710678118654 1 0 0 16 359 416 0 ?361 362
 358 356 358 358 1 30 360 432 0 362 356 363 0 +.025 380448984992722e-33 .0379289
3218813455 1 0 0 16 362 430 0 ?364 365 359 360 0 0 1 30 363 454 0 365 360 366 0
 +-.025 .01853553390593275 .058535533905933 1 0 0 16 365 452 0 ?367 368 362 363
 0 0 1 30 366 460 0 368 363 369 0 --.025 .001464466094067242 .04146446609406725
 1 0 0 16 368 458 0 ?370 371 365 366 0 0 1 30 369 482 0 371 366 372 0 +-.025 .02
 .0729289321881347 1 0 0 16 371 480 0 ?373 297 368 369 0 0 1 30 372 488 0 297 36
9 270 0 --.025 .02 .0620710678118657 1 0 0 16 297 486 0 ?374 293 371 372 0 0 1 3
1 270 551 0 265 372 275 0 --.02988098594664415 .005 .025 0 0 -1 -1 0 0 .005 31 2
75 550 0 269 270 273 0 --.02988098594664415 .005 -.025 0 0 1 1 0 0 .005 16 269 5
42 0 ?375 376 265 275 0 0 1 17 375 0 377 378 219 164 175 269 0 379 +16 376 409 0
 ?380 381 269 382 0 0 1 17 380 0 0 0 0 180 142 376 0 0 +16 381 413 0 ?189 383 37
6 384 0 0 1 30 382 264 0 376 385 386 0 +.025 -.03 .125 0 693889390390721e-30 1 3
0 385 265 0 387 388 382 0 +.025 .02 .075 0 -.707106781186549 .707106781186546 30
 386 263 0 389 382 390 0 +.025 0 .04 0 -183697019872103e-30 1 16 389 168 0 ?391
 211 392 386 0 0 1 30 390 262 0 393 386 394 0 +-.025 -.03 .135 1 0 0 16 393 199
 0 ?395 387 383 390 383 383 1 30 394 258 0 211 390 396 0 +-.025 1469576158976824
e-32 -.04 1 0 0 16 211 164 0 ?210 213 389 394 0 0 1 30 396 334 0 397 394 349 0 +
-.02988098594664415 0 .025 0 0 1 16 397 332 0 ?218 398 220 396 220 220 1 30 349
 356 0 264 396 346 0 +-.03488098594664415 .01 -.025 0 0 1 16 264 354 0 ?263 399
 398 349 398 398 1 17 263 0 400 61 163 56 259 264 0 0 +16 399 935 0 ?166 257 264
 346 257 257 1 16 398 978 0 ?169 264 397 349 264 264 1 17 169 0 401 172 402 167
 403 398 0 271 +15 401 982 0 402 404 0 17 172 0 401 405 169 170 243 237 0 406 -1
7 402 0 401 169 405 44 49 334 0 403 -17 403 0 21 52 271 44 169 398 0 0 -17 271 0
 21 403 407 167 408 266 0 243 +17 407 0 21 271 22 158 409 256 0 0 -17 408 0 0 0
 0 158 271 266 0 407 -17 243 0 0 0 0 167 172 237 0 0 +17 22 0 21 407 19 20 26 41
0 411 409 -17 409 0 246 29 160 20 407 256 0 0 +16 256 374 0 ?409 350 251 343 0 0
 1 17 29 0 246 253 409 28 27 30 0 412 -17 160 0 246 409 195 158 245 212 0 408 -1
7 245 0 0 0 0 193 160 212 0 0 +17 253 0 246 40 29 35 412 413 0 0 -16 30 1049 0 ?
27 410 413 414 0 0 1 17 412 0 0 0 0 28 253 413 0 0 +16 413 1039 0 ?412 30 415 41
6 0 0 1 16 415 1028 0 1e-6 255 413 254 0 0 0 1 30 416 1037 0 413 417 414 0 +-.04
218238304513135 .015 -.025 0 0 1 137 255 417 1033 0 1 418 416 419 -420 421 0 ?13
3 414 1051 0 30 416 422 0 +422 -.04218238304513135 .015 .00649453381531982 -.039
88098594664415 .015 .00677950591940611 4.71238898038469 7.60758444804534 31 422
 1043 0 1 414 411 423 +-.04101404106091495 .015 .00649453381531982 0 1 0 0 0 1 .
001168341984216364 133 411 1062 0 22 422 424 0 +424 -.0398456990766986 .01499987
548213048 .00649453381531982 -.03988098594664415 .015 .00677950591940611 1 0 141
 423 414 423 423 422 137 424 1063 0 1 411 425 426 -420 427 0 ?133 425 1070 0 25
 424 428 0 +428 -.0398456990766986 .01499987548213048 .00649453381531982 -.03984
56990766986 .01499987548213048 -.0101543394597634 .03149453381531985 .0148456605
402366 141 426 411 426 426 424 51 420 572 0 262 429 430 431 +-.03988098594664415
 .01 -.025 0 0 1 .005 1 0 0 134 255 427 0 0 0 0 0 0 +432 433 136 255 432 2 3 2 2
 5 FFF1 434 435 436 135 255 433 1 0 45 255 6 434 1.570796326794895 .031779505919
4061 1.563738894220595 .031639203413349 1.563738894220595 .03149453381531985 127
 255 2 435 3 3 128 255 2 436 0 1 14 255 262 560 437 ?438 439 21 4 420 +0 0 438 4
39 4 51 429 549 0 12 440 420 0 +-.02988098594664415 .005 -.025 0 0 -1 .005 -1 0
 0 51 430 595 0 441 420 442 0 +-.025 -.025 .1270710678118654 -1 0 0 .005 0 0 1 1
41 431 424 443 443 420 141 443 417 431 431 420 14 441 896 444 ?445 446 447 4 430
 -445 445 445 446 4 51 442 618 0 438 430 14 0 +-.025 .005 .03792893218813455 -1
 0 0 .005 0 0 1 14 438 606 448 ?449 262 450 4 442 -0 0 449 262 4 51 14 641 0 449
 442 5 0 +-.025 .015 .0620710678118657 1 0 0 .005 0 0 -1 14 449 629 451 ?13 438
 452 4 14 +0 0 13 438 4 81 255 1 451 1728 453 449 454 0 448 455 456 14 13 652 45
5 ?0 449 457 4 5 +0 0 0 449 4 15 452 630 0 112 449 0 17 112 0 452 458 459 110 46
0 284 0 461 +17 458 0 452 127 112 116 374 297 0 0 -17 459 0 452 112 127 119 367
 365 0 0 -17 460 0 0 0 0 119 112 284 0 459 -17 461 0 0 0 0 110 109 462 0 374 -17
 109 0 463 373 374 107 461 462 0 464 +16 462 473 0 ?109 465 466 467 0 0 1 17 374
 0 463 109 118 110 458 297 0 0 +15 463 145 0 118 468 0 17 118 0 463 374 373 116
 469 466 0 470 -17 373 0 463 118 109 113 471 371 0 0 +17 469 0 0 0 0 113 118 466
 0 373 +16 466 465 0 ?469 462 472 388 0 0 1 17 470 0 0 0 0 116 127 286 0 458 -17
 127 0 452 459 458 125 470 286 0 473 +17 473 0 0 0 0 125 130 465 0 367 +17 130 0
 474 370 367 128 473 465 0 475 -16 465 437 0 ?473 392 462 476 0 0 1 17 367 0 474
 130 121 125 459 365 0 0 +15 474 142 0 130 477 0 17 121 0 474 367 370 119 478 39
2 0 460 +17 370 0 474 121 130 122 479 368 0 0 +17 478 0 0 0 0 122 121 392 0 370
 -16 392 445 0 ?121 389 465 230 0 0 1 30 230 272 0 392 227 467 0 +-.025 0 .04 0
 .707106781186544 .707106781186551 30 467 271 0 462 230 480 0 +-.025 .02 .06 0 -
462592926927149e-30 1 30 480 270 0 472 467 384 0 +-.025 .02 .075 0 -.70710678118
6549 .707106781186546 16 472 389 0 ?145 466 387 480 0 0 1 30 384 269 0 381 480 2
14 0 +-.025 -.03 .125 0 693889390390721e-30 1 30 214 268 0 205 384 476 0 +-.025
 0 .04 0 -183697019872103e-30 1 30 476 267 0 465 214 388 0 +.025 0 .04 0 .707106
781186544 .707106781186551 30 388 266 0 466 476 385 0 +.025 .02 .06 0 -462592926
927149e-30 1 17 145 0 481 357 353 143 482 472 0 483 +16 387 381 0 ?484 472 393 3
85 0 0 1 17 484 0 0 0 0 149 154 387 0 0 +17 154 0 481 353 151 152 484 387 0 485
 -15 481 888 0 73 486 0 17 353 0 481 145 154 146 487 350 0 0 +17 151 0 481 154 7
3 149 488 354 0 278 +17 485 0 0 0 0 152 115 290 0 487 -17 115 0 457 471 487 113
 485 290 0 469 +17 487 0 457 115 148 152 353 350 0 0 -15 457 653 0 148 13 0 17 1
48 0 457 487 471 146 464 288 0 482 +17 471 0 457 148 115 107 373 371 0 0 -17 464
 0 0 0 0 107 148 288 0 471 -17 482 0 0 0 0 146 145 472 0 353 -17 73 0 481 151 94
 71 320 318 0 489 -17 488 0 447 79 278 71 151 354 0 0 -16 354 884 0 ?151 355 350
 351 355 355 1 17 278 0 447 488 490 149 491 276 0 484 +15 447 856 0 488 441 0 17
 490 0 447 278 79 140 361 359 0 0 -17 491 0 0 0 0 140 278 276 0 490 -17 79 0 447
 490 488 77 489 321 0 317 +17 361 0 492 76 142 77 490 359 0 0 +15 492 877 0 76 4
93 0 17 76 0 492 182 361 74 317 315 0 494 -17 142 0 492 361 182 140 380 376 0 49
1 -17 182 0 492 142 76 180 494 383 0 380 +17 494 0 0 0 0 74 182 383 0 0 -16 383
 872 0 ?182 393 381 390 393 393 1 17 317 0 0 0 0 77 76 315 0 361 +14 493 850 495
 ?222 445 492 4 496 +439 439 222 445 4 81 1 495 1730 453 493 497 0 455 498 499 1
4 222 66 498 ?500 493 217 4 501 +446 446 500 493 4 14 445 857 502 ?493 441 503 4
 430 -441 441 493 441 4 50 255 496 256 0 439 501 504 0 +-.025 -.03 .125 0 1 -693
889390390721e-30 0 693889390390721e-30 1 14 439 149 505 ?262 486 506 4 496 +493
 493 262 486 4 81 1 505 1733 453 439 507 0 502 508 509 14 486 146 508 ?439 468 4
81 4 504 +0 0 439 468 4 15 506 849 0 510 439 0 17 510 0 506 139 395 83 82 310 0
 511 -17 139 0 506 189 510 137 511 358 0 281 +17 395 0 506 510 189 80 512 393 0
 0 +17 82 0 0 0 0 80 510 310 0 395 +17 511 0 503 314 281 83 139 358 0 0 -15 503
 584 0 511 445 0 17 314 0 503 513 511 86 85 312 0 357 +17 281 0 503 511 513 137
 483 272 0 514 +16 358 840 0 ?139 359 355 356 359 359 1 17 513 0 503 281 314 143
 357 355 0 0 -17 483 0 0 0 0 143 281 272 0 513 -17 514 0 0 0 0 137 189 381 0 0 -
17 189 0 506 395 139 187 514 381 0 512 +17 512 0 0 0 0 187 395 393 0 0 -17 357 0
 481 91 145 86 513 355 0 0 +17 91 0 481 94 357 89 88 308 0 307 -17 94 0 481 73 9
1 92 307 305 0 320 -17 88 0 0 0 0 86 91 308 0 314 +17 307 0 0 0 0 89 94 305 0 0
 +17 320 0 0 0 0 92 73 318 0 0 +17 85 0 0 0 0 83 314 312 0 510 -81 1 508 1734 45
3 486 515 0 505 516 517 14 468 143 516 ?486 477 463 4 518 +0 0 486 477 4 50 504
 255 0 486 496 518 0 +-.025 .02 .075 0 .707106781186546 .707106781186549 0 -.707
106781186549 .707106781186546 50 518 254 0 468 504 519 0 +-.025 .02 .06 0 1 4625
92926927149e-30 0 -462592926927149e-30 1 50 519 253 0 477 518 440 0 +-.025 0 .04
 0 .707106781186552 -.707106781186544 0 .707106781186544 .707106781186552 14 477
 140 520 ?468 207 474 4 519 +0 0 468 207 4 50 440 252 0 207 519 429 0 +-.025 0 .
04 0 1 183697019872103e-30 0 -183697019872103e-30 1 14 207 137 521 ?477 249 522
 4 440 +0 0 477 249 4 81 1 521 1737 453 207 523 0 520 524 525 14 249 62 524 ?207
 500 246 4 526 +0 0 207 500 4 15 522 1431 0 527 207 528 17 527 0 522 527 527 0 1
7 9 0 0 -15 528 1420 0 529 207 530 17 529 0 528 529 529 0 531 18 0 0 -15 530 140
9 0 532 207 533 17 532 0 530 532 532 0 534 535 0 0 -15 533 1398 0 536 207 537 17
 536 0 533 536 536 0 538 539 0 0 -15 537 804 0 97 207 202 17 97 0 537 540 106 95
 304 302 0 301 -17 540 0 537 103 97 98 301 299 0 0 -17 106 0 537 97 103 104 295
 293 0 304 -17 304 0 0 0 0 104 97 302 0 0 +17 301 0 0 0 0 95 540 299 0 0 +17 103
 0 537 106 540 101 100 296 0 295 -17 295 0 0 0 0 101 106 293 0 0 +17 100 0 0 0 0
 98 103 296 0 540 +17 538 0 0 0 0 0 536 539 0 0 +16 539 1396 0 ?538 535 25 541 0
 0 1 16 535 1407 0 ?534 18 539 542 0 0 1 16 25 1068 0 ?24 539 410 425 0 0 1 31 5
41 1395 0 539 428 542 0 +.017 1387778780781446e-32 -.032 0 1 183697019872103e-30
 0 -183697019872103e-30 1 .003 30 428 1067 0 1 425 541 543 --.0398456990766986 .
01499987548213048 -.025 0 0 1 31 542 1406 0 535 541 15 0 +-.017 1387778780781446
e-32 -.032 0 1 183697019872103e-30 0 -183697019872103e-30 1 .003 31 15 1417 0 18
 542 6 0 +.017 3469446951953615e-33 .02992893218813455 0 1 183697019872103e-30 0
 -183697019872103e-30 1 .003 16 18 1418 0 ?531 9 535 15 0 0 1 17 531 0 0 0 0 0 5
29 18 0 0 +141 543 425 543 543 428 17 24 0 0 0 0 31 19 25 0 0 +16 410 1058 0 1e-
6 26 25 30 0 0 0 1 17 26 0 0 0 0 10 22 410 0 0 +17 534 0 0 0 0 0 532 535 0 0 +17
 17 0 0 0 0 0 527 9 0 0 +81 1 524 1738 453 249 544 0 521 545 546 14 500 64 545 ?
249 222 400 4 547 +404 404 249 222 4 50 526 71 0 249 0 547 0 +-.0348809859466441
5 .015 -.025 0 1 0 0 0 1 50 547 72 0 500 526 501 0 +-.03488098594664415 0 -.025
 1 0 0 0 0 -1 50 501 73 0 222 547 496 0 +-.025 0 -.025 0 1 0 0 0 1 81 1 545 1739
 453 500 548 0 524 549 550 15 400 943 0 61 500 0 14 404 944 549 ?446 551 401 4 5
47 +500 500 446 551 4 81 1 549 1740 453 404 552 0 545 553 554 14 446 929 553 ?44
1 404 555 4 501 +222 222 441 404 4 14 551 951 556 ?404 12 377 4 429 -12 12 404 1
2 4 81 1 556 1742 453 551 557 0 553 558 559 14 12 1001 558 ?551 0 560 4 429 -551
 551 551 0 4 15 377 538 0 378 551 0 17 378 0 377 64 375 59 166 399 0 0 -17 64 0
 377 219 378 62 561 327 0 223 +17 166 0 400 163 61 164 378 399 0 375 +17 163 0 4
00 263 166 161 379 235 0 260 +17 61 0 400 166 263 59 326 324 0 561 -17 326 0 0 0
 0 56 61 324 0 263 +17 561 0 0 0 0 59 64 327 0 378 -17 379 0 0 0 0 164 163 235 0
 0 -17 219 0 377 375 64 173 218 397 0 0 -17 223 0 0 0 0 62 70 224 0 218 +17 218
 0 217 70 215 62 219 397 0 0 +81 1 558 1743 453 12 562 0 556 0 563 15 560 950 0
 564 12 0 17 564 0 560 341 268 41 178 220 0 0 -17 341 0 560 565 564 47 43 339 0
 405 +17 268 0 560 564 565 176 406 265 0 234 +17 178 0 555 233 566 176 564 220 0
 268 +16 220 989 0 ?178 397 216 396 397 397 1 15 555 993 0 566 446 0 17 233 0 55
5 232 178 190 234 231 0 567 -17 566 0 555 178 232 41 338 336 0 564 -17 232 0 555
 566 233 65 198 228 0 0 -17 338 0 0 0 0 65 566 336 0 232 +17 567 0 0 0 0 190 133
 213 0 0 -17 133 0 202 364 198 131 567 213 0 568 +16 213 160 0 ?133 205 211 214
 205 205 1 17 364 0 202 186 133 134 569 362 0 0 +17 568 0 0 0 0 131 124 279 0 56
9 -17 124 0 450 479 569 122 568 279 0 478 +17 569 0 450 124 136 131 364 362 0 0
 -15 450 607 0 124 438 0 17 136 0 450 569 479 134 475 282 0 391 +17 479 0 450 13
6 124 128 370 368 0 0 -17 475 0 0 0 0 128 136 282 0 479 -17 391 0 0 0 0 134 186
 389 0 364 +17 186 0 202 192 364 184 391 389 0 210 -17 210 0 0 0 0 184 192 211 0
 0 +17 565 0 560 268 341 170 405 257 0 0 -17 406 0 0 0 0 170 268 265 0 565 -17 4
05 0 401 402 172 47 565 257 0 0 +16 257 360 0 ?405 251 399 346 399 399 1 17 43 0
 0 0 0 41 341 339 0 566 -80 255 1 453 570 571 9000 1 1 1 1 1 1 1 1 0 FFFFTFTFFFF
FFF1 81 1 562 1597 572 12 0 558 0 557 573 82 255 1 563 1697185968 80 1 572 0 574
 8001 0 0 0 0 3 5 0 0 0 FFFFTFTFFFFFFF2 81 1 557 1598 572 551 0 556 562 552 575
 83 255 3 573 1 1 1 81 1 552 1599 572 404 0 549 557 576 577 83 3 575 1 1 1 81 1
 576 1600 572 446 0 553 552 578 579 83 3 577 1 1 1 81 1 553 1741 453 446 576 0 5
49 556 580 81 1 578 1601 572 441 0 444 576 581 582 83 3 579 1 1 1 81 1 444 1726
 453 441 578 0 437 448 583 81 1 581 1602 572 445 0 502 578 497 584 83 3 582 1 1
 1 81 1 502 1732 453 445 581 0 498 505 585 81 1 497 1603 572 493 0 495 581 586 5
87 83 3 584 1 1 1 81 1 586 1604 572 222 0 498 497 548 588 83 3 587 1 1 1 81 1 49
8 1731 453 222 586 0 495 502 589 81 1 548 1605 572 500 0 545 586 544 590 83 3 58
8 1 1 1 81 1 544 1606 572 249 0 524 548 523 591 83 3 590 1 1 1 81 1 523 1607 572
 207 0 521 544 592 593 83 3 591 1 1 1 81 1 592 1608 572 477 0 520 523 594 595 83
 3 593 1 1 1 81 1 520 1736 453 477 592 0 516 521 596 81 1 594 1609 572 468 0 516
 592 515 597 83 3 595 1 1 1 81 1 516 1735 453 468 594 0 508 520 598 81 1 515 161
0 572 486 0 508 594 507 599 83 3 597 1 1 1 81 1 507 1611 572 439 0 505 515 600 6
01 83 3 599 1 1 1 81 1 600 1612 572 262 0 437 507 602 603 83 3 601 1 1 1 81 1 43
7 1725 453 262 600 0 0 444 604 81 1 602 1613 572 438 0 448 600 454 605 83 3 603
 1 1 1 81 1 448 1727 453 438 602 0 444 451 606 81 1 454 1614 572 449 0 451 602 6
07 608 83 3 605 1 1 1 81 1 607 1615 572 13 0 455 454 0 609 83 3 608 1 1 1 81 1 4
55 1729 453 13 607 0 451 495 610 83 3 609 1 1 1 82 1 610 -1904672599 82 1 606 -1
908866903 82 1 604 -1913061200 82 1 598 1468203177 82 1 596 1468334249 82 1 589
 396951728 82 1 585 1677328560 82 1 583 1680670896 82 1 580 1690894512 79 255 15
 574 SDL/TYSA_COLOUR79 14 571 SWEntUnchanged82 1 559 1692860592 82 1 554 1692270
768 82 1 550 396820656 82 1 546 396689584 82 1 525 1468465336 82 1 517 146807211
2 82 1 509 1467941040 82 1 499 1676738736 17 489 0 0 0 0 71 79 321 0 488 -82 1 4
56 -1906769751 133 418 1032 0 23 611 417 0 +417 -.03988098594664415 .015 -.01043
931156384966 -.0398456990766986 .01499987548213048 -.0101543394597634 1 0 141 41
9 418 419 419 417 134 421 0 0 0 0 0 0 +612 613 136 612 2 3 2 2 5 FFF1 614 615 61
6 135 613 1 0 45 6 614 1.563738894220595 .0148456605402366 1.563738894220595 .01
470099094220746 1.570796326794895 .01456068843615032 127 2 615 3 3 128 2 616 0 1
 17 23 0 21 19 250 31 255 415 418 24 -31 611 1015 0 1 345 418 617 +-.04101404106
091495 .015 -.0101543394597634 0 1 0 0 0 1 .001168341984216364 133 345 1025 0 25
4 343 611 0 +611 -.03988098594664415 .015 -.01043931156384966 -.0421823830451313
5 .015 -.0101543394597634 1.817193512724035 4.71238898038469 141 617 345 617 617
 611 16 254 1023 0 ?37 415 342 345 0 0 1 17 37 0 0 0 0 35 40 254 0 253 +17 255 0
 0 0 0 38 23 415 0 250 +17 52 0 21 618 403 50 46 342 0 333 -17 618 0 21 58 52 53
 333 331 0 0 -17 46 0 0 0 0 44 52 342 0 402 +17 333 0 0 0 0 50 618 331 0 0 +17 5
8 0 21 259 618 56 55 329 0 326 -17 55 0 0 0 0 53 58 329 0 618 +17 49 0 0 0 0 47
 402 334 0 341 +17 175 0 0 0 0 173 375 269 0 215 -30 238 12 0 235 221 239 0 +-.0
3488098594664415 0 -.025 0 1 0 30 221 7 0 216 0 238 0 +-.025 0 -.025 -1 0 0 17 6
7 0 202 198 203 65 225 226 0 338 +17 225 0 0 0 0 68 67 226 0 203 -74 4 CI16 inde
x_map_offset0 0 1 dCCZ20 11 2 0 0 558 607 0 0 0 0 0 0 0 0 0 0 0 0 0 0 0 0 0 0 1
 0 
