**ABCDEFGHIJKLMNOPQRSTUVWXYZabcdefghijklmnopqrstuvwxyz**************************
**PARASOLID !"#$%&'()*+,-./:;<=>?@[\]^_`{|}~0123456789**************************
**PART1;
MC=unknown;
MC_MODEL=unknown;
MC_ID=unknown;
OS=Windows;
OS_RELEASE=unknown;
FRU=Parasolid Version 24.0, build 158, 6/22/2011;
APPL=ANSYS DesignModeler;
SITE=Canonsburg PA;
USER=unknown;
FORMAT=text;
GUISE=transmit;
KEY=cantilever;
FILE=cantilever.x_t;
DATE=06/21/12 13:58:48;
**PART2;
SCH=SCH_2400158_20000;
USFLD_SIZE=0;
**PART3;
**END_OF_HEADER*****************************************************************
T51 : TRANSMIT FILE created by modeller version 240015817 SCH_2300000_200000 12
 1 122 2 3 0 0 0 0 1e3 1e-8 0 0 0 1 0 1 1 4 5 6 7 8 9 10 0 0 0 0 81 1 2 114 11 1
 12 0 0 0 13 70 3 0 4 T1 0 0 2 20 1 14 14 13 4 97 0 1 0 15 0 0 16 0 50 5 96 0 15
 17 0 0 +2 616297582203916e-47 .25 0 1 -2465190328815665e-47 0 2465190328815665e
-47 1 30 6 92 0 9 18 0 0 +2 0 0 -1 0 0 29 7 73 0 19 20 0 0 0 .25 19 8 1 0 1 16 0
 21 V16 9 80 22 ?23 0 24 6 0 0 1 18 10 15 25 26 0 27 28 ?1 81 2 25 122 29 10 0 0
 30 0 31 32 17 26 0 33 34 35 10 36 37 0 38 +18 27 10 39 35 10 40 41 ?1 29 28 17
 0 10 41 42 2 0 .25 29 41 12 0 27 43 28 2 .25 .25 29 42 76 0 44 28 45 0 0 0 18 4
4 66 46 47 48 0 42 ?1 29 45 75 0 48 42 20 0 .25 0 18 48 64 49 50 51 44 45 ?1 29
 20 74 0 51 45 7 0 .25 .25 18 51 62 52 53 19 48 20 ?1 81 2 52 117 29 51 0 0 49 5
4 55 56 17 53 0 57 58 59 51 60 61 0 62 +18 19 60 54 63 64 51 7 ?1 81 2 54 118 29
 19 0 0 52 65 66 67 17 63 0 68 38 62 19 69 70 0 71 +18 64 2 30 72 40 19 73 ?1 81
 2 30 121 29 64 0 0 39 25 74 75 17 72 0 76 23 77 64 78 79 0 34 -18 40 5 65 78 27
 64 43 ?1 29 73 4 0 64 0 43 2 0 0 29 43 7 0 40 73 41 2 .25 0 81 2 65 119 29 40 0
 0 54 39 80 81 17 78 0 33 35 34 40 72 79 0 77 +15 33 27 0 34 82 0 17 35 0 33 26
 78 27 83 84 0 58 +17 34 0 33 78 26 64 85 86 0 87 +16 79 6 88 ?78 84 86 89 0 0 1
 17 77 0 76 72 50 40 59 24 0 83 -15 76 85 0 50 90 0 17 50 0 76 77 23 48 47 91 0
 59 +17 59 0 57 53 83 48 77 24 0 60 +16 24 79 92 ?59 9 93 18 0 0 1 17 83 0 57 59
 58 40 35 84 0 0 -15 57 83 0 53 94 0 17 58 0 57 83 53 27 62 93 0 36 -16 84 11 95
 ?35 37 79 96 0 0 1 81 2 95 24 29 84 0 0 88 97 98 99 16 37 16 97 ?26 100 84 101
 0 0 1 30 96 14 0 84 89 101 0 +2 .25 0 0 0 1 30 89 9 0 79 0 96 0 +2 0 0 0 1 0 30
 101 19 0 37 96 102 0 +2 .25 .25 0 -1 -1110223024625156e-31 30 102 22 0 86 101 1
03 0 +2 616297582203916e-47 .25 0 -2465190328815665e-47 -1 16 86 20 104 ?34 79 7
0 102 0 0 1 30 103 72 0 91 102 105 0 +0 0 0 0 1 0 16 91 54 106 ?50 61 107 103 0
 0 1 30 105 71 0 61 103 108 0 +0 .25 0 0 0 1 16 61 51 109 ?53 70 91 105 0 0 1 30
 108 70 0 70 105 110 0 +0 .25 .25 0 -1 -1110223024625156e-31 16 70 48 111 ?63 86
 61 108 0 0 1 30 110 69 0 107 108 112 0 +0 616297582203916e-47 .25 0 -2465190328
815665e-47 -1 16 107 57 113 ?114 91 0 110 0 0 1 30 112 89 0 100 110 115 0 +2 0 .
25 -1 0 0 16 100 77 116 ?71 93 37 112 0 0 1 30 115 90 0 93 112 18 0 +2 .25 .25 -
1 0 0 16 93 78 117 ?62 24 100 115 0 0 1 30 18 91 0 24 115 6 0 +2 .25 0 -1 0 0 81
 2 117 111 29 93 0 0 92 116 118 119 17 62 0 68 63 36 51 58 93 0 69 +15 68 81 0 6
3 120 0 17 36 0 68 62 38 27 26 37 0 0 -17 69 0 121 60 122 51 63 70 0 0 -15 121 4
7 0 122 123 0 17 60 0 121 47 69 48 53 61 0 0 -17 122 0 121 69 47 19 114 107 0 0
 -17 47 0 121 122 60 44 50 91 0 23 -17 114 0 124 87 71 44 122 107 0 0 +15 124 87
 0 114 15 0 17 87 0 124 85 114 64 23 9 0 0 -17 71 0 124 114 85 19 38 100 0 122 +
17 85 0 124 71 87 10 34 86 0 0 -17 38 0 68 36 63 10 71 100 0 85 -17 23 0 76 50 7
2 44 87 9 0 114 +14 15 88 125 ?90 0 124 4 5 -0 0 90 0 21 81 2 125 108 29 15 0 0
 126 22 127 128 14 90 86 126 ?94 15 76 4 17 -0 0 94 15 21 13 21 3 0 0 0 0 0 0 8
 15 81 2 126 107 29 90 0 0 129 125 130 131 14 94 84 129 ?120 90 57 4 132 -0 0 12
0 90 21 50 17 95 0 90 132 5 0 +2 0 0 0 0 1 1 0 0 50 132 94 0 94 133 17 0 +2 .25
 0 0 -1 0 0 0 -1 50 133 93 0 120 134 132 0 +2 .25 .25 0 1110223024625156e-31 -1
 0 1 1110223024625156e-31 14 120 82 135 ?82 94 68 4 133 -0 0 82 94 21 50 134 68
 0 123 136 133 0 +0 0 0 1 0 0 0 1 0 14 123 45 137 ?0 82 121 4 134 -0 0 0 82 21 5
0 136 29 0 82 0 134 0 +2 0 0 1 0 0 0 1 0 14 82 28 138 ?123 120 33 4 136 +0 0 123
 120 21 81 2 138 104 29 82 0 0 137 135 139 140 80 2 29 141 142 9000 0 0 0 0 3 6
 0 0 0 FFTFTFTTTFFFTF3 1 81 2 137 103 29 123 0 0 113 138 143 144 81 2 135 105 29
 120 0 0 138 129 145 146 84 9 139 F81.Cap1t82 1 140 84 81 2 129 106 29 94 0 0 13
5 126 147 148 84 11 145 F81.F49.E6082 1 146 86 84 11 147 F81.F49.E5582 1 148 87
 81 2 113 59 29 107 0 0 106 137 149 150 84 9 143 F81.Cap1b82 1 144 85 81 2 106 5
6 29 91 0 0 109 113 151 152 84 22 149 F81.Cap1b..F81.F49.E6582 1 150 95 81 2 109
 53 29 61 0 0 111 106 153 154 84 22 151 F81.Cap1b..F81.F49.E5082 1 152 97 81 2 1
11 50 29 70 0 0 104 109 155 156 84 22 153 F81.Cap1b..F81.F49.E5582 1 154 96 81 2
 104 26 29 86 0 0 97 111 157 158 84 22 155 F81.Cap1b..F81.F49.E6082 1 156 94 81
 2 97 25 29 37 0 0 95 104 159 160 84 22 157 F81.Cap1t..F81.F49.E6582 1 158 91 84
 22 159 F81.Cap1t..F81.F49.E6082 1 160 90 79 18 142 AnsysParaAttrDef.384 11 130
 F81.F49.E5082 1 131 88 81 2 22 109 29 9 0 0 125 92 161 162 84 11 127 F81.F49.E6
582 1 128 89 81 2 92 110 29 24 0 0 22 117 163 164 84 24 161 F81.F49.E50..F81.F49
.E6582 1 162 101 84 24 163 F81.F49.E55..F81.F49.E5082 1 164 100 81 2 116 112 29
 100 0 0 117 12 165 166 84 24 118 F81.F49.E60..F81.F49.E5582 1 119 99 81 2 12 11
3 29 1 0 2 116 46 167 0 84 24 165 F81.F49.E60..F81.F49.E6582 1 166 98 81 2 46 11
5 29 44 0 0 12 49 168 169 84 5 167 F81.B81 2 49 116 29 48 0 0 46 52 170 171 84 8
 168 F81.Vtx182 1 169 109 84 8 170 F81.Vtx282 1 171 108 81 2 88 23 29 79 0 0 0 9
5 172 173 84 22 98 F81.Cap1t..F81.F49.E5582 1 99 92 84 22 172 F81.Cap1t..F81.F49
.E5082 1 173 93 81 2 39 120 29 27 0 0 65 30 174 175 84 8 80 F81.Vtx582 1 81 104
 84 8 174 F81.Vtx682 1 175 103 84 8 74 F81.Vtx782 1 75 105 84 8 66 F81.Vtx482 1
 67 106 84 8 55 F81.Vtx382 1 56 107 84 8 31 F81.Vtx882 1 32 102 19 16 98 0 1 0 8
 4 S74 20 14 2 0 0 25 2 0 0 0 0 0 0 0 0 0 0 0 0 0 0 0 0 0 0 80 1 11 176 177 9000
 0 0 0 0 3 6 0 0 0 FFTFFFFFTFFFFF1 82 1 13 0 79 13 177 BodyAttrDef.41 0 
