**ABCDEFGHIJKLMNOPQRSTUVWXYZabcdefghijklmnopqrstuvwxyz**************************
**PARASOLID !"#$%&'()*+,-./:;<=>?@[\]^_`{|}~0123456789**************************
**PART1;
MC=x86;
MC_MODEL=x86 Family 6 Model 23 Stepping 10, GenuineIntel;
MC_ID=unknown;
OS=Windows_NT;
OS_RELEASE=unknown;
FRU=Parasolid Version 24.0, build 175,  7-28-2011;
APPL=SolidWorks 2012-2011268;
SITE=;
USER=unknown;
FORMAT=text;
GUISE=transmit;
KEY=shaft;
FILE=shaft.x_t;
DATE=Wed Apr 18 08:51:17 2012;
**PART2;
SCH=SCH_2400175_20000;
USFLD_SIZE=0;
**PART3;
**END_OF_HEADER*****************************************************************
T51 : TRANSMIT FILE created by modeller version 240017523 SCH_2400175_20000_1300
6186 0 10 255 1 7 2 3 0 0 0 0 0 1e3 1e-8 0 0 0 1 0 1 4 81 255 1 2 7 5 1 0 0 0 0
 0 70 11 CI9 list_type0 0 1 uI10 notransmit0 0 1 lCCCDCCDI12 finger_index0 0 1 d
I12 finger_block1012 0 CZ3 0 4 T1 0 0 1 20 1 6 6 11 255 4 5 0 1 7 8 1 9 0 9 0 12
 27 CCCCCCCCCCCCCCCCCCCCCCCA16 index_map_offset0 0 1 dA9 index_map82 0 A17 node_
id_index_map82 0 A20 schema_embedding_map82 0 Z7 6508 10 11 0 0 0 0 1e3 1e-8 4 1
2 0 1 0 1 1 13 14 15 16 17 18 19 0 0 0 0 100 255 8 6 4 0 0 -1665334536937735e-31
 -1387778780781446e-31 -1 0 1 -333066907387547e-30 1 -587748350519123e-31 -11393
6696315448e-30 2106842284769605e-31 -.047624999999999 .1031875 1 3 ?11 9 3 0 1 7
 20 1 21 4 0 4 100 20 4 9 0 0 -1942890293094025e-31 -2220446049250315e-31 -1 138
7778780781446e-32 1 -333066907387547e-30 1 -68958532640563e-30 238428479743438e-
31 1889494538523425e-31 -.047624999999999 .2968625 1 3 ?11 21 1 0 1 12 22 1 0 9
 0 0 12 12 2054 23 24 0 0 0 0 1e3 1e-8 21 25 7 1 0 1 1 26 27 28 29 30 31 32 0 0
 0 0 100 22 2 21 0 0 1224606353822614e-31 -.02102099490096315 -.999779034473805
 -1552453609571665e-44 -.999779034473805 .02102099490096315 -1 -2574244391928045
e-33 -1224335758035354e-31 2070829177387925e-31 1005895714773886e-30 .381 1 3 ?8
1 1 23 2054 5 12 33 0 0 0 34 70 24 0 4 T12 0 0 4 20 1 35 35 13 255 26 29 0 12 0
 36 0 0 37 0 51 255 27 28 0 38 39 0 0 -.0508 0 0 -1 0 0 .015875 0 0 1 30 255 28
 919 0 31 40 0 0 +.0508 .000333708294052789 .01587149217227165 -1 0 0 29 255 29
 916 0 32 41 0 .0355732349134821 .0003337082940527885 .01587149217227165 19 255
 30 7 0 12 37 0 42 V16 255 31 917 0 ?43 0 44 28 0 0 12 18 255 32 914 0 45 0 46 2
9 ?12 17 255 45 0 47 48 49 32 43 31 0 50 -18 46 911 0 43 32 51 41 ?12 17 43 0 52
 53 54 46 45 31 0 55 +18 51 907 0 53 46 56 57 ?12 29 41 913 0 46 57 29 0 .000333
7082940527885 .01587149217227165 29 57 908 0 51 58 41 0 -.0003337082940527885 -.
01587149217227165 29 58 906 0 56 59 57 .0355732349134821 -.0003337082940527885 -
.01587149217227165 18 56 905 0 48 51 60 58 ?12 29 59 733 0 60 61 58 .36320010318
27535 -.00473228918344011 .0151532525909224 18 60 731 0 62 56 63 59 ?12 29 61 55
8 0 63 64 59 .381 -.003175 -.00487647737193763 18 63 556 0 65 60 66 61 ?12 29 64
 345 0 66 67 61 .3413010456376775 .00664820846053596 .01441585756260298 18 66 26
1 0 68 63 69 64 ?12 29 67 346 0 69 70 64 .3413010456376775 .00664820846053596 -.
01441585756260302 18 69 254 0 71 66 72 67 ?12 29 70 527 0 72 73 67 .341301045637
6775 -.00664820846053596 .01441585756260298 18 72 441 0 74 69 75 70 ?12 29 73 52
8 0 75 76 70 .3413010456376775 -.00664820846053596 -.01441585756260302 18 75 442
 0 77 72 78 73 ?12 29 76 705 0 78 79 73 .3632001031827535 .0047322891834401 -.01
51532525909224 18 78 632 0 80 75 81 76 ?12 29 79 706 0 81 82 76 .363200103182753
5 -.00473228918344011 -.0151532525909224 18 81 633 0 83 78 84 79 ?12 29 82 707 0
 84 85 79 .381 .003175 -.00487647737193757 18 84 629 0 86 81 87 82 ?12 29 85 877
 0 87 88 82 .3632001031827535 .0047322891834401 .0151532525909224 18 87 806 0 89
 84 90 85 ?12 29 88 882 0 90 91 85 .381 .003175 .00487647737193757 18 90 805 0 9
2 87 93 88 ?12 29 91 883 0 93 0 88 .381 -.003175 .00487647737193757 18 93 814 0
 94 90 0 91 ?12 17 94 0 95 92 62 93 96 97 0 98 -15 255 95 824 0 89 99 0 17 92 0
 95 89 94 90 98 100 0 101 +17 62 0 95 94 89 60 102 103 0 96 +17 96 0 104 74 105
 60 94 97 0 106 +16 97 734 0 ?96 44 107 108 0 0 12 17 98 0 109 65 110 93 92 100
 0 105 -15 109 578 0 110 111 0 17 65 0 109 112 98 63 105 113 0 114 +17 110 0 109
 98 112 90 86 115 0 0 -16 100 781 0 ?92 103 0 116 0 0 12 17 105 0 104 96 117 93
 65 113 0 0 -15 104 560 0 105 118 0 17 117 0 104 105 119 63 120 107 0 0 -16 113
 729 0 ?65 121 122 123 0 0 12 16 121 384 0 ?124 107 113 125 0 0 12 16 122 198 0
 ?126 113 115 127 0 0 12 30 123 377 0 113 127 125 0 +.381 -.003175 0 0 0 -1 38 2
55 127 200 0 122 128 123 0 +129 130 131 132 133 38 125 386 0 121 123 134 0 +129
 135 136 137 138 30 134 561 0 107 125 108 0 +.3368650426894275 -.007036308429875
38 -.0303578068558693 -.863550259614423 -.0755508581011247 -.498570974847159 51
 129 115 0 139 140 141 142 -.381 0 0 -1 0 0 .015875 0 0 1 51 135 506 0 143 144 1
45 146 +.343514801503468 -.03195155379206635 -.0381 0 0 1 .0254 1 0 0 40 255 12
 136 0 1 12 .00154953944227745 .375787046271132 ??.3413010456376775 -.0066482084
6053598 -.014415857562603 .3335399178868635 -.00859215104209872 -.01334880389659
544 .328991158845616 -.0111135163617558 -.0113360213071865 .3261493203646395 -.0
134151014665269 -.00848826705769745 .324416340536559 -.0152061428178488 -.004559
47865475701 .3238543264909105 -.01586970929957715 -.00040981916367554 .324212723
4249005 -.01544126058301365 .003685525282435115 .3254820993960665 -.014063522745
98102 .0073643026128259 .327694907157521 -.01207969069664724 .01030032512464214
 .330932522884506 -.00988696078075482 .01242029112057426 .336621118884534 -.0075
0493562207385 .01398898017399864 .3413010456376775 -.00664820846053598 .01441585
7562603 41 255 1 137 L.3413010456376775 -.00664820846053598 -.014415857562603 41
 1 138 L.3413010456376775 -.00664820846053598 .014415857562603 14 255 143 454 14
7 ?148 149 150 26 135 -0 0 148 149 42 50 255 144 507 0 118 151 135 0 +.341301045
6376775 -.00664820846053596 -.0381 .0871557427476514 -.996194698091746 0 .996194
698091746 .0871557427476514 0 50 145 323 0 152 135 130 0 +.3413010456376775 .006
64820846053596 -.0381 -.0871557427476514 -.996194698091746 0 .996194698091746 -.
0871557427476514 0 141 255 146 125 146 146 135 14 152 747 153 ?118 111 154 26 14
5 -0 0 118 111 42 51 130 320 0 149 145 155 156 -.343514801503468 .03195155379206
635 -.0381 0 0 1 .0254 1 0 0 14 149 268 157 ?143 158 159 26 130 +0 0 143 158 42
 54 255 155 175 0 158 130 160 0 +.0355732349134821 0 0 1 0 0 .053975 .0381 0 0 -
1 141 156 127 156 156 130 14 158 168 161 ?149 162 163 26 155 -0 0 149 162 42 54
 160 149 0 162 155 140 0 +.3170967221242085 0 0 -1 0 0 .041275 .0254 0 0 1 14 16
2 142 164 ?158 165 166 26 160 -0 0 158 165 42 50 140 116 0 111 160 129 0 +.381 0
 0 1 0 0 0 0 -1 14 111 755 167 ?152 139 109 26 140 +0 0 152 139 42 81 1 167 2042
 168 111 169 0 170 153 171 14 139 762 170 ?111 36 172 26 129 -0 0 111 36 42 13 4
2 8 0 0 0 0 0 0 30 36 14 36 920 173 ?139 0 52 26 27 -38 38 139 0 42 81 1 173 204
0 168 36 174 0 0 170 175 15 52 26 0 54 36 0 14 38 25 176 ?177 118 47 26 27 -36 3
6 177 118 42 81 1 176 2045 168 38 178 0 179 180 181 14 177 16 180 ?165 38 182 26
 39 -0 0 165 38 42 14 118 737 179 ?38 152 104 26 144 +0 0 38 152 42 15 47 918 0
 45 38 0 81 1 179 2044 168 118 183 0 153 176 184 80 255 1 168 0 185 8001 0 0 0 0
 3 5 0 0 0 FFFFTFTFFFFFFF2 81 1 183 2031 186 118 0 179 187 188 189 81 1 153 2043
 168 152 190 0 167 179 191 83 255 3 184 .752941176470588 .752941176470588 .75294
1176470588 81 1 190 2011 186 152 0 153 192 193 194 83 3 191 .752941176470588 .75
2941176470588 .752941176470588 80 1 186 195 196 9000 1 1 1 1 1 1 1 1 0 FFFFTFTFF
FFFFF1 81 1 192 2009 186 143 0 147 0 190 197 81 1 193 2013 186 149 0 157 190 198
 199 82 255 1 194 1376935 81 1 157 2050 168 149 193 0 161 147 200 81 1 198 2015
 186 158 0 161 193 201 202 82 1 199 1114787 81 1 161 2049 168 158 198 0 164 157
 203 81 1 201 2017 186 162 0 164 198 169 204 82 1 202 7406255 81 1 164 2048 168
 162 201 0 205 161 206 81 1 169 2019 186 111 0 167 201 207 208 82 1 204 852640 8
1 1 207 2021 186 139 0 170 169 174 209 82 1 208 1376935 81 1 170 2041 168 139 20
7 0 173 167 210 81 1 174 2023 186 36 0 173 207 178 211 82 1 209 1376935 81 1 178
 2026 186 38 0 176 174 187 212 82 1 211 7406255 81 1 187 2029 186 177 0 180 178
 183 213 82 1 212 7406255 81 1 180 2046 168 177 187 0 176 205 214 82 1 213 74062
55 81 1 205 2047 168 165 188 0 180 164 215 83 3 214 .752941176470588 .7529411764
70588 .752941176470588 14 165 59 205 ?162 177 216 26 141 -0 0 162 177 42 81 1 18
8 2033 186 165 0 205 183 217 218 83 3 215 .752941176470588 .752941176470588 .752
941176470588 81 1 217 2035 186 148 0 219 188 220 221 82 1 218 656028 14 148 654
 219 ?99 143 222 26 151 -0 0 99 143 42 81 1 219 2052 168 148 217 0 147 223 224 8
1 1 220 2037 186 99 0 223 217 0 225 82 1 221 1311398 14 99 821 223 ?0 148 95 26
 226 +0 0 0 148 42 81 1 223 2053 168 99 220 0 219 0 227 82 1 225 1376935 83 3 22
7 .752941176470588 .752941176470588 .752941176470588 50 226 858 0 99 0 151 0 +.3
6195 -.0381 .015875 .5 0 .866025403784438 .866025403784438 0 -.5 50 151 684 0 14
8 226 144 0 +.36195 -.0381 -.015875 -.5 0 .866025403784438 .866025403784438 0 .5
 81 1 147 2051 168 143 192 0 157 219 228 83 3 224 .752941176470588 .752941176470
588 .752941176470588 83 3 228 .752941176470588 .752941176470588 .752941176470588
 15 222 657 0 114 148 0 17 114 0 222 120 229 63 112 230 0 117 -17 120 0 222 80 1
14 81 117 107 0 119 +17 229 0 222 114 80 84 231 232 0 112 -17 112 0 109 110 65 8
4 114 230 0 0 +16 230 602 0 ?112 233 234 235 0 0 12 16 233 604 0 ?83 232 230 236
 0 0 12 16 234 775 0 ?89 230 103 237 0 0 12 30 235 694 0 230 237 236 0 +.381 -.0
381 -.00487647737193757 0 1 0 30 237 863 0 234 238 235 0 +.3696722741105575 .004
16604759885528 .0114165429635137 -.863550259614423 .0755508581011247 .4985709748
47159 32 255 236 692 0 233 235 239 0 +.389446306570156 0 0 -.5 0 .86602540378443
8 -.866025403784438 0 -.5 .03175 .015875 30 239 691 0 232 236 240 0 +.3368650426
894275 .00703630842987538 -.0303578068558693 -.863550259614423 .0755508581011247
 -.498570974847159 16 232 603 0 ?231 241 233 239 0 0 12 30 240 515 0 241 239 242
 0 +.3413010456376775 -.00664820846053596 -.0381 0 0 1 16 241 411 0 ?243 244 232
 240 0 0 12 32 242 513 0 244 240 245 0 +.41729041606127 0 0 .0871557427476514 -.
996194698091746 0 -.996194698091746 -.0871557427476514 0 .182145197775023 .01587
5 16 244 732 0 ?74 246 241 242 246 246 12 30 245 332 0 247 242 248 0 +.341301045
6376775 .00664820846053596 -.0381 0 0 1 16 247 213 0 ?249 250 246 245 0 0 12 32
 248 328 0 250 245 251 0 +.41729041606127 0 0 -.0871557427476514 -.9961946980917
46 0 -.996194698091746 .0871557427476514 0 .182145197775023 .015875 16 250 743 0
 ?68 252 247 248 252 252 12 31 255 251 77 0 253 248 254 0 +.0508 0 0 1 0 0 0 0 -
1 .01905 16 253 49 0 ?255 256 252 251 0 0 12 31 254 76 0 256 251 257 0 +.3048 0
 0 1 0 0 0 0 -1 .01905 16 256 52 0 ?258 259 253 254 0 0 12 31 257 23 0 260 254 2
61 0 +0 0 0 1 0 0 0 0 -1 .015875 16 260 18 0 ?49 262 259 257 259 259 12 31 261 1
33 0 262 257 263 0 -.3170967221242085 0 0 -1 0 0 0 0 1 .015875 16 262 130 0 ?264
 265 260 261 0 0 12 31 263 159 0 266 261 128 0 -.0355732349134821 0 0 1 0 0 0 0
 -1 .015875 16 266 156 0 ?54 115 265 263 265 265 12 30 128 191 0 115 263 127 0 +
.381 .003175 0 0 0 -1 16 115 740 0 ?86 122 266 128 0 0 12 17 86 0 154 231 101 84
 110 115 0 229 +15 154 746 0 101 152 0 17 231 0 154 267 86 78 229 232 0 268 +17
 101 0 154 86 269 90 89 234 0 110 -17 269 0 154 101 249 87 68 250 0 0 -17 89 0 9
5 62 92 87 101 234 0 102 +17 102 0 270 68 106 87 62 103 0 269 -15 270 761 0 106
 139 0 17 68 0 270 71 102 66 269 250 0 126 +17 106 0 270 102 124 60 74 244 0 0 -
16 103 776 0 ?62 234 100 238 0 0 12 32 238 864 0 103 116 237 0 +.389446306570156
 0 0 .5 0 .866025403784438 -.866025403784438 0 .5 .03175 .015875 30 116 869 0 10
0 0 238 0 +.381 -.0381 .00487647737193757 0 1 0 17 124 0 270 106 271 72 77 121 0
 0 +17 74 0 104 272 96 72 106 244 0 243 +17 272 0 104 119 74 75 243 241 0 271 -1
7 243 0 150 77 77 72 272 241 0 124 +15 150 457 0 243 143 0 17 77 0 150 243 243 7
5 124 121 0 272 -17 119 0 104 117 272 81 271 246 0 0 +17 271 0 270 124 83 75 119
 246 0 0 -17 83 0 270 271 268 81 80 233 0 120 +16 246 413 0 ?119 247 244 242 244
 244 12 17 268 0 270 83 71 78 267 252 0 0 +17 80 0 222 229 120 78 83 233 0 231 -
17 71 0 270 268 68 69 126 122 0 267 -17 267 0 154 249 231 69 268 252 0 273 -16 2
52 221 0 ?268 253 250 248 250 250 12 17 249 0 154 269 267 66 273 247 0 0 +17 273
 0 159 126 126 69 249 247 0 0 -15 159 271 0 273 149 0 17 126 0 159 273 273 66 71
 122 0 249 +17 54 0 52 43 274 32 275 266 0 0 +16 265 915 0 ?48 266 262 263 266 2
66 12 17 48 0 47 276 45 56 50 265 0 274 +17 276 0 47 49 48 51 274 44 0 277 -17 5
0 0 163 275 275 32 48 265 0 54 -17 274 0 52 54 53 56 276 44 0 275 +17 53 0 52 27
4 43 51 55 259 0 276 +16 44 909 0 ?274 31 97 40 0 0 12 17 275 0 163 50 50 56 54
 266 0 0 -15 163 169 0 275 158 278 15 278 170 0 279 158 0 17 279 0 278 279 279 0
 255 253 0 0 -17 255 0 280 255 255 0 279 253 0 0 +15 280 63 0 255 165 0 30 40 91
0 0 44 108 28 0 +.0508 -.000333708294052789 -.01587149217227165 1 0 0 30 108 736
 0 97 134 40 0 +.3696722741105575 -.00416604759885528 .0114165429635137 -.863550
259614423 -.0755508581011247 .498570974847159 17 55 0 182 277 277 46 53 259 0 49
 -16 259 912 0 ?53 260 256 257 260 260 12 15 182 17 0 277 177 0 17 277 0 182 55
 55 51 49 260 0 0 -17 49 0 47 45 276 46 277 260 0 0 +17 264 0 172 264 264 0 281
 262 0 0 +15 172 131 0 264 139 270 17 281 0 282 281 281 0 264 262 0 0 -15 282 14
4 0 281 162 0 17 258 0 166 258 258 0 283 256 0 0 +15 166 143 0 258 162 282 17 28
3 0 216 283 283 0 258 256 0 0 -15 216 62 0 283 165 280 16 107 559 0 ?120 97 121
 134 0 0 12 51 141 72 0 165 129 39 0 -.3048 0 0 -1 0 0 .01905 0 0 1 50 39 22 0 1
77 141 27 0 +0 0 0 1 0 0 0 0 -1 83 3 210 .752941176470588 .752941176470588 .7529
41176470588 83 3 206 .752941176470588 .752941176470588 .752941176470588 83 3 203
 .752941176470588 .752941176470588 .752941176470588 83 3 200 .752941176470588 .7
52941176470588 .752941176470588 82 1 197 1180324 79 255 14 196 SWEntUnchanged82
 1 189 1376935 79 15 185 SDL/TYSA_COLOUR83 3 181 .752941176470588 .7529411764705
88 .752941176470588 83 3 175 .752941176470588 .752941176470588 .752941176470588
 83 3 171 .752941176470588 .752941176470588 .752941176470588 141 142 127 284 284
 129 141 284 125 142 142 129 40 12 131 0 1 12 .00154953944227745 .37578704627113
2 ??.3413010456376775 .00664820846053598 -.014415857562603 .3335399178868635 .00
859215104209872 -.01334880389659544 .328991158845616 .0111135163617558 -.0113360
213071865 .3261493203646395 .0134151014665269 -.00848826705769745 .3244163405365
59 .0152061428178488 -.00455947865475701 .3238543264909105 .01586970929957715 -.
00040981916367554 .3242127234249005 .01544126058301365 .003685525282435115 .3254
820993960665 .01406352274598102 .0073643026128259 .327694907157521 .012079690696
64724 .01030032512464214 .330932522884506 .00988696078075482 .01242029112057426
 .336621118884534 .00750493562207385 .01398898017399864 .3413010456376775 .00664
820846053598 .014415857562603 41 1 132 L.3413010456376775 .00664820846053598 -.0
14415857562603 41 1 133 L.3413010456376775 .00664820846053598 .014415857562603 1
9 37 30 0 12 0 30 26 S74 4 CI16 index_map_offset0 0 1 dCCZ20 35 4 0 0 220 33 223
 23 0 0 0 0 0 0 0 0 0 0 0 0 0 0 0 0 81 2 33 939 285 12 0 23 0 0 286 0 80 2 285 2
87 288 8004 0 0 0 0 3 5 0 0 0 FFTFFFFFFFFFFF2 3 83 1 286 1 79 16 288 SDL/TYSA_DE
NSITY80 1 5 289 290 8017 0 0 0 0 0 0 0 0 0 TTTTTTTTTTTTTF3 84 255 15 34 overende
r shaft79 13 290 SDL/TYSA_NAME81 1 10 6508 5 7 291 0 0 0 292 70 11 0 4 T7 0 0 4
 20 1 293 293 13 13 166 0 7 0 294 0 0 295 0 50 14 165 0 296 297 0 0 +.0206375 0
 -.079375 0 0 1 1 0 0 32 15 1628 0 18 298 0 0 --.01296027513000358 .01905 .05066
65301635234 0 1 1681137226870315e-31 -.3317975870397895 -158590181763312e-30 .94
3350603558705 .00812501912648862 .00762 29 16 1546 0 19 299 0 -.0158247834598832
5 .01905 .0582695632529011 19 17 44 0 7 295 0 300 V16 18 1572 0 ?301 0 302 15 0
 0 7 18 19 1544 0 303 0 304 16 ?7 17 303 0 305 306 307 19 308 309 0 310 +18 304
 1541 0 311 19 312 299 ?7 17 311 0 313 310 314 304 315 302 0 306 +18 312 1528 0
 316 304 317 318 ?7 29 299 1543 0 304 318 16 .0158247834598831 .01905 .058269563
2528991 29 318 1530 0 312 319 299 .01033962098860922 .0429049845790958 .05040984
33683807 29 319 1527 0 317 320 318 -.01033962098860922 .04290498457909575 .05040
98433683807 18 317 1525 0 321 312 322 319 ?7 29 320 1514 0 322 323 319 -.0078970
0923866439 .0627984608596889 .0434651296074162 18 322 1512 0 324 317 325 320 ?7
 29 323 1511 0 325 326 320 .00789700923866439 .0627984608596889 .043465129607416
2 18 325 1509 0 327 322 328 323 ?7 29 326 1502 0 328 329 323 -.01546021091417125
 .0612156358727634 -.0362709012586025 18 328 1500 0 330 325 331 326 ?7 29 329 14
98 0 331 332 326 -.01546021091417125 .0612156358727634 .03627090125860245 18 331
 1496 0 333 328 334 329 ?7 29 332 1495 0 334 335 329 -.0206375 .01905 .050990715
3099588 18 334 1493 0 336 331 337 332 ?7 29 335 1492 0 337 338 332 -.0206375 .01
905 -.0509907153099588 18 337 1490 0 339 334 340 335 ?7 29 338 1479 0 340 341 33
5 .015824783459883 .01905 -.058269563252898 18 340 1477 0 342 337 343 338 ?7 29
 341 1476 0 343 344 338 -.015824783459883 .01905 -.058269563252898 18 343 1474 0
 345 340 346 341 ?7 29 344 1463 0 346 347 341 -.00789700923866439 .0627984608596
889 -.0434651296074162 18 346 1461 0 348 343 349 344 ?7 29 347 1460 0 349 350 34
4 .00789700923866439 .0627984608596889 -.0434651296074162 18 349 1458 0 351 346
 352 347 ?7 29 350 1457 0 352 353 347 .0103396209886092 .0429049845790959 -.0504
098433683807 18 352 1455 0 354 349 355 350 ?7 29 353 1454 0 355 356 350 -.010339
6209886092 .0429049845790959 -.0504098433683807 18 355 1452 0 357 352 358 353 ?7
 29 356 1445 0 358 359 353 .01546021091417125 .0612156358727634 -.03627090125860
25 18 358 1443 0 360 355 361 356 ?7 29 359 1441 0 361 362 356 .01546021091417125
 .0612156358727634 .03627090125860245 18 361 1439 0 363 358 364 359 ?7 29 362 14
38 0 364 365 359 .0206375 .01905 -.0509907153099588 18 364 1436 0 366 361 367 36
2 ?7 29 365 1435 0 367 368 362 .0206375 .01905 .0509907153099588 18 367 1433 0 3
14 364 369 365 ?7 29 368 1042 0 369 370 365 .0067437 .01905 .066675 18 369 1040
 0 371 367 372 368 ?7 29 370 1019 0 372 373 368 .0067437 0 .05953125 18 372 1017
 0 374 369 375 370 ?7 29 373 863 0 375 376 370 -.0067437 .01905 -.066675 18 375
 861 0 377 372 378 373 ?7 29 376 837 0 378 379 373 -.0067437 0 -.05953125 18 378
 835 0 380 375 381 376 ?7 29 379 748 0 381 382 376 -.0206375 .01905 0 18 381 746
 0 383 378 384 379 ?7 29 382 611 0 384 385 379 .0206375 .01905 0 18 384 609 0 38
6 381 387 382 ?7 29 385 43 0 387 388 382 .0206375 0 -.079375 18 387 42 0 389 384
 390 385 ?7 29 388 41 0 390 391 385 .0206375 0 .079375 18 390 40 0 392 387 393 3
88 ?7 29 391 39 0 393 394 388 .0206375 .01905 .079375 18 393 38 0 395 390 396 39
1 ?7 29 394 29 0 396 397 391 .0206375 .01905 -.079375 18 396 28 0 398 393 399 39
4 ?7 29 397 118 0 399 400 394 -.0206375 0 -.079375 18 399 101 0 401 396 402 397
 ?7 29 400 119 0 402 403 397 -.0206375 0 .079375 18 402 102 0 404 399 405 400 ?7
 29 403 120 0 405 406 400 -.0206375 .01905 .079375 18 405 103 0 407 402 408 403
 ?7 29 406 125 0 408 409 403 -.0206375 .01905 -.079375 18 408 108 0 410 405 411
 406 ?7 29 409 997 0 411 412 406 .0067437 .01905 -.05953125 18 411 925 0 413 408
 414 409 ?7 29 412 998 0 414 415 409 .0067437 .01905 -.066675 18 414 927 0 416 4
11 417 412 ?7 29 415 1000 0 417 418 412 -.0067437 .01905 -.05953125 18 417 920 0
 419 414 420 415 ?7 29 418 1005 0 420 421 415 .0067437 0 -.05953125 18 420 922 0
 422 417 423 418 ?7 29 421 1006 0 423 424 418 .0067437 0 -.066675 18 423 923 0 4
25 420 426 421 ?7 29 424 1007 0 426 427 421 -.0067437 0 -.066675 18 426 924 0 42
8 423 429 424 ?7 29 427 1179 0 429 430 424 -.0067437 .01905 .05953125 18 429 110
0 0 431 426 432 427 ?7 29 430 1180 0 432 433 427 -.0067437 .01905 .066675 18 432
 1101 0 434 429 435 430 ?7 29 433 1182 0 435 436 430 .0067437 .01905 .05953125 1
8 435 1108 0 437 432 438 433 ?7 29 436 1188 0 438 439 433 .0067437 0 .066675 18
 438 1112 0 440 435 441 436 ?7 29 439 1189 0 441 442 436 -.0067437 0 .066675 18
 441 1111 0 443 438 444 439 ?7 29 442 1190 0 444 0 439 -.0067437 0 .05953125 18
 444 1110 0 445 441 0 442 ?7 17 445 0 446 374 431 444 447 448 0 449 +15 446 1133
 0 450 451 0 17 374 0 446 450 445 372 452 453 0 454 -17 431 0 446 445 450 429 43
7 455 0 447 -17 447 0 456 434 449 429 445 448 0 457 -16 448 1082 0 ?445 458 459
 460 0 0 7 17 449 0 456 447 443 444 461 462 0 452 -15 456 1137 0 443 463 0 17 44
3 0 456 449 434 441 464 459 0 465 +17 461 0 466 467 452 441 449 462 0 0 +16 462
 1083 0 ?461 468 453 469 0 0 7 17 452 0 466 461 470 444 374 453 0 0 +15 466 1030
 0 452 471 0 17 470 0 466 452 467 372 472 473 0 0 -16 453 1078 0 ?452 462 474 47
5 0 0 7 16 474 1526 0 ?476 453 477 478 0 0 7 31 475 1176 0 453 478 469 0 +121843
672717419e-32 0 .05953125 0 1 0 0 0 1 .0067437 32 478 1300 0 474 479 475 0 -1218
43672717419e-32 .004463432718869195 .063829598188054 0 .3295891579622895 .944124
455224897 0 -.944124455224897 .3295891579622895 .0520379959792837 .0166038088219
051 30 469 1175 0 462 475 480 0 +-.0067437 0 .05953125 0 0 1 31 480 1174 0 468 4
69 481 0 +153373295183511e-32 0 .066675 0 -1 0 0 0 -1 .0067437 16 468 1097 0 ?46
5 473 462 480 0 0 7 30 481 1173 0 473 480 482 0 +.0067437 0 .05953125 0 0 1 16 4
73 1094 0 ?472 483 468 481 0 0 7 30 482 1168 0 483 481 484 0 +.0067437 .0936625
 .05953125 0 -1 0 16 483 1077 0 ?454 485 473 482 0 0 7 30 484 1167 0 485 482 486
 0 +.0067437 .0936625 .066675 0 -1 0 16 485 1087 0 ?440 459 483 484 0 0 7 30 486
 1166 0 459 484 460 0 +-.0067437 .0936625 .066675 0 -1 0 16 459 1086 0 ?443 448
 485 486 0 0 7 30 460 1165 0 448 486 487 0 +-.0067437 .0936625 .05953125 0 -1 0
 30 487 1164 0 458 460 488 0 +.0067437 .01905 .079375 0 1681137226870315e-31 -1
 16 458 1070 0 ?489 490 448 487 0 0 7 31 488 1163 0 490 487 491 0 +1533732951835
11e-32 .01905 .066675 0 1 1681137226870315e-31 0 -1681137226870315e-31 1 .006743
7 16 490 1065 0 ?492 493 458 488 0 0 7 30 491 1162 0 493 488 494 0 +-.0067437 .0
1905 .079375 0 1681137226870315e-31 -1 16 493 1081 0 ?457 455 490 491 0 0 7 31 4
94 1161 0 455 491 495 0 -121843672717419e-32 .01905 .05953125 0 1 16811372268703
15e-31 0 -1681137226870315e-31 1 .0067437 16 455 1074 0 ?437 496 493 494 0 0 7 3
1 495 994 0 496 494 497 0 +121843672717418e-32 0 -.05953125 0 -1 0 0 0 -1 .00674
37 16 496 912 0 ?380 498 455 495 0 0 7 30 497 993 0 498 495 499 0 +-.0067437 0 -
.05953125 0 0 -1 16 498 915 0 ?500 501 496 497 0 0 7 31 499 992 0 501 497 502 0
 +0 0 -.066675 0 1 0 0 0 1 .0067437 16 501 889 0 ?503 504 498 499 0 0 7 30 502 9
91 0 504 499 505 0 +.0067437 0 -.05953125 0 0 -1 16 504 885 0 ?506 507 501 502 0
 0 7 30 505 986 0 508 502 509 0 +.0067437 .0936625 -.05953125 0 -1 0 16 508 884
 0 ?422 510 511 505 0 0 7 30 509 985 0 511 505 512 0 +.0067437 .0936625 -.066675
 0 -1 0 16 511 888 0 ?425 508 513 509 0 0 7 30 512 984 0 513 509 514 0 +-.006743
7 .0936625 -.066675 0 -1 0 16 513 893 0 ?428 511 507 512 0 0 7 30 514 983 0 507
 512 515 0 +-.0067437 .0936625 -.05953125 0 -1 0 16 507 883 0 ?516 513 504 514 0
 0 7 30 515 982 0 510 514 517 0 +-.0067437 .01905 -.079375 0 -1681137226870315e-
31 -1 16 510 892 0 ?518 519 508 515 0 0 7 31 517 981 0 519 515 520 0 -0 .01905 -
.066675 0 -1 1681137226870315e-31 0 -1681137226870315e-31 -1 .0067437 16 519 901
 0 ?521 522 510 517 0 0 7 30 520 980 0 522 517 523 0 +.0067437 .01905 -.079375 0
 -1681137226870315e-31 -1 16 522 899 0 ?416 524 519 520 0 0 7 31 523 979 0 524 5
20 525 0 +121843672717418e-32 .01905 -.05953125 0 -1 1681137226870315e-31 0 -168
1137226870315e-31 -1 .0067437 16 524 880 0 ?419 526 522 523 0 0 7 31 525 811 0 5
26 523 527 0 +-.0111125 .047625 0 -1 0 0 0 0 1 .0254 16 526 765 0 ?528 529 524 5
25 0 0 7 31 527 809 0 529 525 530 0 +-.0111125 .047625 0 -1 0 0 0 0 1 .028575 16
 529 761 0 ?531 532 526 527 0 0 7 31 530 733 0 533 527 534 0 +.0234696 .047625 0
 1 0 0 0 0 -1 .01905 16 533 707 0 ?535 536 537 530 0 0 7 32 534 731 0 536 530 53
8 0 +-.0171289311721997 .047625 0 .992546151641323 -.1218693434051408 0 .1218693
434051408 .992546151641323 0 .01919306217499105 .01905 16 536 703 0 ?539 540 533
 534 0 0 7 31 538 670 0 540 534 541 0 +.0107696 .047625 0 1 0 0 0 0 -1 .0254 16
 540 624 0 ?542 543 536 538 0 0 7 31 541 668 0 543 538 544 0 +.0107696 .047625 0
 1 0 0 0 0 -1 .028575 16 543 621 0 ?545 546 540 541 0 0 7 32 544 666 0 546 541 5
47 0 +.0171289311721997 .047625 0 .992546151641323 .1218693434051408 0 .12186934
34051408 -.992546151641323 0 .02878959326248655 .028575 16 546 617 0 ?548 549 54
3 544 0 0 7 31 547 597 0 549 544 550 0 +.0234696 .047625 0 1 0 0 0 0 -1 .0254 16
 549 573 0 ?551 552 546 547 0 0 7 30 550 117 0 552 547 553 0 +-.0206375 0 -.0793
75 0 1 0 16 552 97 0 ?554 555 549 550 0 0 7 30 553 116 0 555 550 556 0 +-.020637
5 .01905 -.079375 0 1681137226870315e-31 1 16 555 93 0 ?339 557 552 553 0 0 7 30
 556 112 0 557 553 558 0 +-.0206375 .01905 .079375 0 1681137226870315e-31 -1 16
 557 77 0 ?336 559 555 556 0 0 7 30 558 111 0 559 556 560 0 +-.0206375 0 .079375
 0 1 0 16 559 73 0 ?561 562 557 558 0 0 7 30 560 110 0 562 558 563 0 +-.0206375
 0 .079375 0 0 -1 16 562 69 0 ?401 564 559 560 0 0 7 30 563 5 0 564 560 565 0 +.
0206375 0 -.079375 0 1 0 16 564 4 0 ?566 567 562 563 0 0 7 30 565 8 0 567 563 56
8 0 +.0206375 .01905 -.079375 0 1681137226870315e-31 1 16 567 7 0 ?366 569 564 5
65 0 0 7 30 568 20 0 569 565 570 0 +.0206375 .01905 .079375 0 1681137226870315e-
31 -1 16 569 19 0 ?314 571 567 568 0 0 7 30 570 23 0 571 568 572 0 +.0206375 0 .
079375 0 1 0 16 571 22 0 ?573 574 569 570 0 0 7 30 572 26 0 574 570 575 0 +.0206
375 0 .079375 0 0 -1 16 574 25 0 ?389 576 571 572 0 0 7 30 575 150 0 576 572 577
 0 +.0206375 0 -.079375 -1 0 0 16 576 126 0 ?578 579 574 575 0 0 7 30 577 151 0
 579 575 580 0 +.0206375 0 .079375 -1 0 0 16 579 127 0 ?404 581 576 577 0 0 7 30
 580 152 0 581 577 582 0 +.0206375 .01905 .079375 -1 0 0 16 581 128 0 ?407 583 5
79 580 0 0 7 30 582 154 0 583 580 584 0 +.0206375 .0627984608596889 .04346512960
74162 -1 0 0 16 583 1510 0 ?585 586 581 582 0 0 7 30 584 155 0 586 582 587 0 +.0
206375 .0627984608596889 -.0434651296074162 -1 0 0 16 586 1459 0 ?588 589 583 58
4 0 0 7 30 587 157 0 589 584 590 0 +.0206375 .01905 -.079375 -1 0 0 16 589 133 0
 ?591 592 586 587 0 0 7 30 590 227 0 593 587 594 0 +.0206375 .01905 0 0 0 1 16 5
93 1437 0 ?386 595 592 590 592 592 7 30 594 397 0 596 590 597 0 +-.0206375 .0190
5 0 0 0 -1 16 596 1494 0 ?383 598 595 594 595 595 7 32 597 752 0 532 594 599 0 +
-.0171289311721997 .047625 0 .992546151641323 -.1218693434051408 0 -.12186934340
51408 -.992546151641323 0 .02559074956665475 .0254 16 532 771 0 ?600 537 529 597
 0 0 7 32 599 757 0 537 597 601 0 +-.0171289311721997 .047625 0 .992546151641323
 -.1218693434051408 0 -.1218693434051408 -.992546151641323 0 .02878959326248655
 .028575 16 537 764 0 ?602 533 532 599 0 0 7 30 601 1442 0 598 599 603 0 -.01572
263060230195 .059078399023106 .0370170000274102 -.1151527571214994 .937843946133
962 -.3273966634332045 16 598 1440 0 ?604 605 596 601 0 0 7 32 603 1446 0 605 60
1 606 0 +.01701490797771015 .0485536443967472 0 .992546151641323 .12186934340514
08 0 -.1218693434051408 .992546151641323 0 .03870600871956525 .0384175 16 605 14
44 0 ?363 607 598 603 0 0 7 30 606 1449 0 607 603 608 0 +.01555792309457635 .060
4198340253116 -.0365487117308924 -.1151527571214994 .937843946133962 .3273966634
332045 16 607 1447 0 ?609 610 605 606 0 0 7 30 608 1466 0 610 606 611 0 +-.01281
9043976219 .022711704826517 -.0574592170323263 .1151527571214994 .93784394613396
2 .3273966634332045 16 610 1464 0 ?612 613 607 608 0 0 7 30 611 1471 0 613 608 6
14 0 -.013366356975904 .0182541981525482 -.0590153104722899 -.1151527571214994 .
937843946133962 .3273966634332045 16 613 1469 0 ?354 615 610 611 0 0 7 38 614 14
82 0 615 611 616 0 +617 618 619 620 621 16 615 1480 0 ?357 622 613 614 0 0 7 38
 616 1487 0 622 614 623 0 +617 624 625 626 627 52 255 617 1390 0 628 629 630 631
 -121843672717418e-32 .01905 -.05953125 0 -1 1681137226870315e-31 .015875 .08715
57427476584 .996194698091746 0 1681137226870315e-31 1 51 618 1736 0 632 0 633 63
4 +-.012819043976219 .02020023544284435 -.0502649886835126 .1151527571214994 .93
7843946133962 .3273966634332045 .00762 0 -.3295891579622895 .944124455224897 40
 3 619 0 1 3 .000989386619218494 .159202964799405 ??-.015824783459883 .01905 -.0
58269563252898 -.01333072259172936 .0333408038514686 -.0535167531075238 -.010339
6209886092 .0429049845790959 -.0504098433683807 41 1 620 L-.015824783459883 .019
05 -.058269563252898 41 1 621 L-.0103396209886092 .0429049845790959 -.0504098433
683807 14 632 1708 635 ?0 636 637 13 618 +0 0 0 636 300 56 255 633 1735 0 636 61
8 638 0 +R639 640 641 .00762 .00762 1 1 0 0 0 0 141 634 614 634 634 618 14 636 1
706 642 ?632 643 644 13 633 +0 0 632 643 300 51 638 1734 0 643 633 624 645 +-.00
815942892679507 .0581497546263588 .0370170000274102 -.1151527571214994 -.9378439
46133962 .3273966634332045 .00762 0 -.3295891579622895 -.944124455224897 51 639
 162 0 646 647 648 649 -.0206375 .047625 0 -1 0 0 .0460375 0 0 1 50 640 516 0 65
0 651 652 653 +-.0206375 .01905 -.079375 .992546151641323 -.1218693434051408 0 .
1218693434051408 .992546151641323 0 32 641 1737 0 7 654 655 656 +-.0094517063022
0328 .047625 0 .992546151641323 -.1218693434051408 0 -.1218693434051408 -.992546
151641323 0 .03870600871956525 .0384175 31 654 1738 0 657 658 641 0 +-.007897009
23866439 .0602869914760163 .03627090125860245 .1151527571215 .937843946133962 -.
327396663433204 0 .329589157962289 .944124455224898 .00762 31 655 1689 0 659 641
 660 0 +.00789700923866439 .0602869914760163 -.0362709012586025 .1151527571215 -
.937843946133962 -.3273966634332045 0 .3295891579622895 -.944124455224897 .00762
 141 656 633 656 656 641 16 659 1673 0 ?360 661 657 655 0 0 7 31 660 1688 0 661
 655 662 0 +.00789700923866439 .0602869914760163 .0362709012586025 -.11515275712
15002 .937843946133962 -.3273966634332045 0 .3295891579622895 .944124455224897 .
00762 16 661 1667 0 ?663 664 659 660 0 0 7 32 662 1687 0 7 660 665 666 +.0094517
0630220328 .047625 0 .992546151641323 .1218693434051408 0 -.1218693434051408 .99
2546151641323 0 .03870600871956525 .0384175 31 665 1400 0 664 662 667 0 +1218436
72717418e-32 .01905 -.05953125 0 1 -1681137226870315e-31 0 1681137226870315e-31
 1 .015875 141 666 668 666 666 662 56 668 1685 0 669 624 629 0 +R652 639 662 -.0
0762 .00762 1 1 0 0 0 0 14 669 1656 670 ?671 672 673 13 668 +0 0 671 672 300 51
 624 1686 0 671 638 668 674 +.01414440369588578 .00940604674419415 -.05403318634
47274 .1151527571214994 -.937843946133962 -.3273966634332045 .00762 0 .329589157
9622895 -.944124455224897 51 629 1684 0 672 668 617 675 +.013366356975904 .01574
272876887555 .0518210821234762 -.1151527571214994 .937843946133962 -.32739666343
32045 .00762 0 .3295891579622895 .944124455224897 50 652 345 0 676 640 677 678 +
.0206375 .01905 -.079375 .992546151641323 .1218693434051408 0 -.1218693434051408
 .992546151641323 0 14 676 566 679 ?646 680 681 13 652 +0 0 646 680 300 50 677 1
09 0 682 652 683 0 +-.0206375 .047625 0 1 0 0 0 0 -1 141 678 668 678 678 652 14
 682 67 684 ?650 685 686 13 677 -0 0 650 685 300 50 683 2 0 687 677 688 0 +.0206
375 .047625 0 1 0 0 0 0 -1 14 687 228 689 ?296 646 690 13 683 +0 0 296 646 300 5
0 688 158 0 471 683 691 0 +.0206375 0 .079375 0 1 0 0 0 1 14 471 1032 692 ?680 6
93 694 13 688 -0 0 680 693 300 50 691 159 0 685 688 695 0 +.0206375 0 .079375 0
 0 1 1 0 0 14 685 137 696 ?682 697 698 13 691 +0 0 682 697 300 50 695 160 0 693
 691 647 0 +.0206375 .01905 .079375 0 1 1681137226870315e-31 0 -1681137226870315
e-31 1 14 693 1055 699 ?471 451 700 13 695 +0 0 471 451 300 50 647 161 0 701 695
 639 0 +.0206375 .01905 .0587375 0 .3295891579622895 .944124455224897 0 -.944124
455224897 .3295891579622895 14 701 1245 702 ?451 703 704 13 647 +0 0 451 703 300
 81 1 702 6473 168 701 705 0 706 707 708 14 451 1230 707 ?693 701 446 13 709 +0
 0 693 701 300 14 703 1323 706 ?701 294 710 13 711 -0 0 701 294 300 15 704 404 0
 476 701 0 13 300 45 0 0 0 0 0 0 17 294 14 294 1338 712 ?703 0 713 13 648 -0 0 7
03 0 300 81 1 712 6471 168 294 714 0 0 706 715 15 713 1337 0 716 294 0 50 648 16
3 0 294 639 297 0 +.0206375 .01905 -.0587375 0 -.3295891579622895 .9441244552248
97 0 -.944124455224897 -.3295891579622895 50 297 164 0 697 648 14 0 +.0206375 .0
1905 -.079375 0 -1 1681137226870315e-31 0 -1681137226870315e-31 -1 14 697 147 71
7 ?685 296 718 13 297 -0 0 685 296 300 81 1 717 6482 168 697 719 0 720 696 721 1
4 296 149 720 ?697 687 722 13 14 -0 0 697 687 300 15 718 1413 0 419 697 723 17 4
19 0 718 518 724 417 413 524 0 725 +15 723 146 0 339 697 0 17 339 0 723 345 591
 337 410 555 0 726 +17 345 0 723 727 339 343 728 729 0 730 +17 591 0 723 339 398
 408 731 589 0 554 +17 410 0 686 732 733 408 339 555 0 591 -17 726 0 734 735 330
 337 736 737 0 733 +15 734 489 0 330 650 0 17 735 0 734 602 726 381 733 595 0 0
 -17 330 0 734 726 333 328 738 739 0 736 +17 736 0 637 348 728 328 726 737 0 740
 -16 737 1504 0 ?726 741 739 742 0 0 7 17 733 0 686 410 383 337 735 595 0 728 +1
5 686 68 0 336 682 0 17 383 0 686 733 336 381 743 596 0 744 +16 595 747 0 ?733 5
96 593 594 596 596 7 17 728 0 637 736 745 337 345 729 0 0 -15 637 1709 0 728 632
 0 17 745 0 637 728 746 343 357 615 0 0 -16 729 1562 0 ?345 302 747 748 0 0 7 16
 302 1567 0 ?311 18 729 298 0 0 7 16 747 1557 0 ?749 729 750 751 0 0 7 32 748 16
26 0 729 751 298 0 +-.0129602751300036 .01905 -.0506665301635235 0 -1 1681137226
870315e-31 .3317975870397895 158590181763312e-30 .943350603558705 .0081250191264
8862 .00762 32 751 1625 0 747 752 748 0 +.01296027513000358 .01905 -.05066653016
35235 0 -1 1681137226870315e-31 .3317975870397895 -158590181763312e-30 -.9433506
03558705 .00812501912648862 .00762 32 298 1627 0 302 748 15 0 -.0129602751300036
 .01905 .0506665301635235 0 1 1681137226870315e-31 -.3317975870397895 1585901817
63312e-30 -.943350603558705 .00812501912648862 .00762 38 752 1554 0 750 753 751
 0 +630 629 754 755 756 16 750 1552 0 ?316 747 309 752 0 0 7 38 753 1549 0 309 7
57 752 0 +630 638 758 759 760 52 630 1297 0 761 617 762 763 -121843672717419e-32
 .01905 .05953125 0 -1 1681137226870315e-31 .015875 .0871557427476584 .996194698
091746 0 1681137226870315e-31 1 40 3 754 0 1 3 .000989386619218506 .159202964799
404 ??.0158247834598831 .01905 .0582695632528991 .01333072259172944 .03334080385
14683 .0535167531075239 .01033962098860924 .04290498457909575 .0504098433683807
 41 1 755 L.0158247834598831 .01905 .0582695632528991 41 1 756 L.010339620988609
24 .04290498457909575 .0504098433683807 14 761 1285 764 ?628 765 305 13 630 +0 0
 628 765 300 50 762 1157 0 765 630 766 0 +.0067437 .0936625 .05953125 1 0 0 0 0
 -1 141 763 753 767 767 630 141 767 752 763 763 630 14 765 1142 768 ?761 769 770
 13 762 -0 0 761 769 300 51 766 1156 0 769 762 771 0 +153373295183511e-32 .09366
25 .066675 0 -1 0 .0067437 0 0 -1 14 769 1138 772 ?765 463 773 13 766 -0 0 765 4
63 300 50 771 1155 0 463 766 709 0 +-.0067437 .0936625 .05953125 1 0 0 0 0 -1 14
 463 1134 774 ?769 775 456 13 771 +0 0 769 775 300 51 709 1154 0 451 771 776 0 -
121843672717419e-32 .0936625 .05953125 0 -1 0 .0067437 0 0 -1 50 776 975 0 777 7
09 778 0 +.0067437 .0936625 -.05953125 -1 0 0 0 0 1 14 777 936 779 ?780 781 782
 13 776 +0 0 780 781 300 51 778 974 0 780 776 783 0 -0 .0936625 -.066675 0 -1 0
 .0067437 0 0 -1 14 780 940 784 ?775 777 785 13 778 +0 0 775 777 300 50 783 973
 0 775 778 711 0 +-.0067437 .0936625 -.05953125 -1 0 0 0 0 1 14 775 944 786 ?463
 780 787 13 783 -0 0 463 780 300 51 711 972 0 703 783 788 0 +121843672717418e-32
 .0936625 -.05953125 0 -1 0 .0067437 0 0 -1 51 788 808 0 789 711 790 0 +-.011112
5 .047625 0 -1 0 0 .0254 0 0 1 14 789 781 791 ?781 792 793 13 788 +0 0 781 792 3
00 50 790 806 0 781 788 794 0 +-.0111125 .047625 0 -1 0 0 0 0 1 14 781 790 795 ?
777 789 796 13 790 +0 0 777 789 300 51 794 805 0 792 790 797 0 +-.0111125 .04762
5 0 -1 0 0 .028575 0 0 1 14 792 776 798 ?789 799 800 13 794 -0 0 789 799 300 51
 797 728 0 799 794 801 0 +-.0206375 .047625 0 1 0 0 .01905 0 0 -1 14 799 710 802
 ?792 803 804 13 797 -0 0 792 803 300 50 801 663 0 805 797 806 0 +.0107696 .0476
25 0 1 0 0 0 0 -1 14 805 647 807 ?808 809 810 13 801 +0 0 808 809 300 51 806 662
 0 809 801 811 0 +.0107696 .047625 0 1 0 0 .028575 0 0 -1 14 809 642 812 ?805 65
0 813 13 806 -0 0 805 650 300 50 811 595 0 808 806 651 0 +.0234696 .047625 0 1 0
 0 0 0 -1 14 808 586 814 ?803 805 815 13 811 +0 0 803 805 300 51 651 594 0 803 8
11 640 0 -.0234696 .047625 0 -1 0 0 .0254 0 0 1 14 803 581 816 ?799 808 817 13 6
51 -0 0 799 808 300 81 1 816 6489 168 803 818 0 814 802 819 15 817 585 0 820 803
 821 17 820 0 817 820 820 0 551 549 0 0 -15 821 659 0 542 803 0 17 542 0 821 542
 542 0 822 540 0 0 +17 822 0 810 822 822 0 542 540 0 0 -15 810 649 0 822 805 823
 15 823 650 0 545 805 0 17 545 0 823 545 545 0 824 543 0 0 +17 824 0 825 824 824
 0 545 543 0 0 -15 825 646 0 824 809 0 17 551 0 826 551 551 0 820 549 0 0 +15 82
6 588 0 551 808 0 81 1 818 6454 186 803 0 816 827 828 829 81 1 814 6488 168 808
 827 0 807 816 830 81 1 802 6490 168 799 831 0 816 798 832 83 3 819 .70980392156
8628 .415686274509804 .415686274509804 81 1 831 6446 186 799 0 802 833 834 835 8
1 1 798 6491 168 792 833 0 802 791 836 83 3 832 .709803921568628 .41568627450980
4 .415686274509804 81 1 833 6444 186 792 0 798 837 831 838 81 1 791 6492 168 789
 839 0 798 795 840 83 3 836 .709803921568628 .415686274509804 .415686274509804 8
1 1 839 6440 186 789 0 791 841 837 842 81 1 795 6493 168 781 837 0 791 779 843 8
3 3 840 .709803921568628 .415686274509804 .415686274509804 81 1 837 6442 186 781
 0 795 839 833 844 81 1 779 6494 168 777 845 0 795 784 846 83 3 843 .70980392156
8628 .415686274509804 .415686274509804 81 1 845 6434 186 777 0 779 847 848 849 8
1 1 784 6495 168 780 848 0 779 786 850 83 3 846 .709803921568628 .41568627450980
4 .415686274509804 81 1 848 6436 186 780 0 784 845 841 851 81 1 786 6496 168 775
 841 0 784 774 852 83 3 850 .709803921568628 .415686274509804 .415686274509804 8
1 1 841 6438 186 775 0 786 848 839 853 81 1 774 6497 168 463 847 0 786 772 854 8
3 3 852 .709803921568628 .415686274509804 .415686274509804 81 1 847 6432 186 463
 0 774 855 845 856 81 1 772 6498 168 769 855 0 774 768 857 83 3 854 .70980392156
8628 .415686274509804 .415686274509804 81 1 855 6430 186 769 0 772 858 847 859 8
1 1 768 6499 168 765 858 0 772 764 860 83 3 857 .709803921568628 .41568627450980
4 .415686274509804 81 1 858 6428 186 765 0 768 861 855 862 81 1 764 6500 168 761
 861 0 768 863 864 83 3 860 .709803921568628 .415686274509804 .415686274509804 8
1 1 861 6426 186 761 0 764 865 858 866 81 1 863 6501 168 628 867 0 764 868 869 8
3 3 864 .709803921568628 .415686274509804 .415686274509804 14 628 1367 863 ?672
 761 870 13 617 +0 0 672 761 300 81 1 867 6459 186 628 0 863 828 871 872 81 1 86
8 6502 168 672 871 0 863 670 873 83 3 869 .709803921568628 .415686274509804 .415
686274509804 14 672 1654 868 ?669 628 874 13 629 +0 0 669 628 300 81 1 871 6461
 186 672 0 868 867 875 876 81 1 670 6503 168 669 877 0 868 878 879 83 3 873 .709
803921568628 .415686274509804 .415686274509804 81 1 877 6398 186 669 0 670 880 8
81 882 81 1 878 6504 168 671 875 0 670 883 884 83 3 879 .709803921568628 .415686
274509804 .415686274509804 14 671 1658 878 ?643 669 885 13 624 +0 0 643 669 300
 81 1 875 6463 186 671 0 878 871 886 887 81 1 883 6505 168 643 886 0 878 642 888
 83 3 884 .709803921568628 .415686274509804 .415686274509804 14 643 1704 883 ?63
6 671 889 13 638 +0 0 636 671 300 81 1 886 6465 186 643 0 883 875 890 891 81 1 6
42 6506 168 636 880 0 883 635 892 83 3 888 .709803921568628 .415686274509804 .41
5686274509804 81 1 880 6396 186 636 0 642 893 877 894 81 1 635 6507 168 632 893
 0 642 0 895 83 3 892 .709803921568628 .415686274509804 .415686274509804 81 1 89
3 6394 186 632 0 635 0 880 896 83 3 895 .709803921568628 .415686274509804 .41568
6274509804 82 1 896 1704129 82 1 894 1704129 81 1 890 6467 186 646 0 897 886 898
 899 82 1 891 1704129 14 646 249 897 ?687 676 900 13 639 -0 0 687 676 300 81 1 8
97 6479 168 646 890 0 679 689 901 81 1 898 6469 186 650 0 902 890 0 903 82 1 899
 1704129 14 650 486 902 ?809 682 734 13 640 -680 680 809 682 300 81 1 902 6485 1
68 650 898 0 684 812 904 82 1 903 1704129 81 1 684 6484 168 682 905 0 696 902 90
6 81 1 812 6486 168 809 907 0 902 807 908 83 3 904 .709803921568628 .41568627450
9804 .415686274509804 81 1 907 6450 186 809 0 812 834 827 909 81 1 807 6487 168
 805 834 0 812 814 910 83 3 908 .709803921568628 .415686274509804 .4156862745098
04 81 1 834 6448 186 805 0 807 831 907 911 83 3 910 .709803921568628 .4156862745
09804 .415686274509804 82 1 911 1114281 81 1 827 6452 186 808 0 814 907 818 912
 82 1 909 1114281 82 1 912 1245342 81 1 905 6402 186 682 0 684 881 913 914 81 1
 696 6483 168 685 915 0 717 684 916 83 3 906 .709803921568628 .415686274509804 .
415686274509804 81 1 915 6408 186 685 0 696 917 918 919 83 3 916 .70980392156862
8 .415686274509804 .415686274509804 81 1 917 6406 186 471 0 692 913 915 920 81 1
 918 6410 186 693 0 699 915 705 921 82 1 919 524468 81 1 699 6475 168 693 918 0
 707 692 922 81 1 705 6413 186 701 0 702 918 923 924 82 1 921 1704129 81 1 923 6
415 186 451 0 707 705 925 926 82 1 924 1704129 81 1 707 6474 168 451 923 0 702 6
99 927 81 1 925 6417 186 703 0 706 923 714 928 82 1 926 1638566 81 1 706 6472 16
8 703 925 0 712 702 929 81 1 714 6419 186 294 0 712 925 719 930 82 1 928 1638566
 81 1 719 6421 186 697 0 717 714 865 931 82 1 930 1704129 81 1 865 6424 186 296
 0 720 719 861 932 82 1 931 1704129 81 1 720 6481 168 296 865 0 689 717 933 82 1
 932 524468 81 1 689 6480 168 687 913 0 897 720 934 83 3 933 .709803921568628 .4
15686274509804 .415686274509804 81 1 913 6404 186 687 0 689 905 917 935 83 3 934
 .709803921568628 .415686274509804 .415686274509804 82 1 935 1704129 83 3 929 .7
09803921568628 .415686274509804 .415686274509804 83 3 927 .709803921568628 .4156
86274509804 .415686274509804 81 1 692 6476 168 471 917 0 699 936 937 83 3 922 .7
09803921568628 .415686274509804 .415686274509804 81 1 936 6477 168 680 828 0 692
 679 938 83 3 937 .709803921568628 .415686274509804 .415686274509804 14 680 753
 936 ?676 471 939 13 640 -650 650 676 471 300 81 1 828 6457 186 680 0 936 818 86
7 940 81 1 679 6478 168 676 881 0 936 897 941 83 3 938 .709803921568628 .4156862
74509804 .415686274509804 81 1 881 6400 186 676 0 679 877 905 942 83 3 941 .7098
03921568628 .415686274509804 .415686274509804 82 1 942 1704129 82 1 940 1376429
 15 939 698 0 539 680 943 17 539 0 939 539 539 0 944 536 0 0 +15 943 751 0 945 6
80 0 17 945 0 943 945 945 0 600 532 0 0 -17 600 0 946 600 600 0 945 532 0 0 +15
 946 785 0 600 789 0 17 944 0 947 944 944 0 539 536 0 0 -15 947 714 0 944 799 0
 82 1 920 1507510 82 1 914 1704129 83 3 901 .709803921568628 .415686274509804 .4
15686274509804 15 900 248 0 948 646 0 17 948 0 900 351 324 325 585 583 0 949 -17
 351 0 900 588 948 349 950 951 0 716 +17 324 0 900 948 588 322 952 741 0 585 +17
 585 0 704 321 327 322 948 583 0 953 +17 949 0 874 954 955 325 663 661 0 950 -15
 874 1655 0 315 672 0 17 954 0 874 956 949 312 327 957 0 0 -17 955 0 874 949 315
 361 604 598 0 663 -17 663 0 673 958 950 361 949 661 0 0 +17 950 0 673 663 959 3
25 351 951 0 0 -15 673 1657 0 663 669 0 17 959 0 673 950 958 349 360 659 0 0 -16
 951 1520 0 ?351 960 741 961 0 0 7 16 960 1531 0 ?321 957 951 962 0 0 7 16 741 1
515 0 ?324 951 737 963 0 0 7 32 961 1522 0 951 963 962 0 +.00945170630220328 .04
7625 0 -.994791783043194 -.101927956860435 0 -.101927956860435 .994791783043194
 0 .0462785286174816 .0460375 32 963 1517 0 741 742 961 0 --.00945170630220328 .
047625 0 -.994791783043194 .101927956860435 0 -.101927956860435 -.99479178304319
4 0 .0462785286174816 .0460375 30 962 1533 0 960 961 757 0 --.01336635697590398
 .01825419815254825 .0590153104722899 .1151527571214994 .937843946133962 -.32739
66634332045 30 757 1538 0 957 962 753 0 +.013366356975904 .0182541981525482 .059
0153104722899 -.1151527571214994 .937843946133962 -.3273966634332045 16 957 1536
 0 ?327 309 960 757 0 0 7 17 327 0 704 585 476 325 954 957 0 948 +16 309 1547 0
 ?303 750 957 753 0 0 7 17 476 0 704 327 321 312 307 474 0 954 +17 321 0 704 476
 585 317 953 960 0 307 +17 307 0 305 303 316 317 476 474 0 308 -15 305 1288 0 30
6 761 0 17 316 0 305 307 306 312 956 750 0 476 +17 308 0 889 953 964 317 303 309
 0 0 -15 889 1705 0 308 643 0 17 953 0 889 965 308 322 321 960 0 966 -17 964 0 8
89 308 967 19 301 18 0 0 -17 967 0 889 964 965 334 333 968 0 0 -17 301 0 313 969
 310 334 964 18 0 743 +15 313 1239 0 314 693 0 17 969 0 313 395 301 405 336 557
 0 561 -17 310 0 313 301 311 19 306 477 0 964 +17 743 0 734 333 602 334 383 596
 0 967 -17 333 0 734 330 743 331 967 968 0 965 +17 602 0 734 743 735 381 744 537
 0 735 +17 744 0 970 744 744 381 602 537 0 602 -15 970 780 0 744 792 0 16 968 14
97 0 ?333 739 622 623 0 0 7 17 965 0 889 967 953 331 966 657 0 738 -17 966 0 644
 952 738 322 965 657 0 0 +16 657 1717 0 ?966 659 971 654 0 0 7 17 738 0 644 966
 740 331 330 739 0 0 -15 644 1707 0 966 636 0 17 740 0 644 738 952 328 348 971 0
 0 -16 739 1501 0 ?330 737 968 972 0 0 7 32 972 1503 0 739 623 742 0 --.01701490
797771015 .0485536443967472 0 .992546151641323 -.1218693434051408 0 -.1218693434
051408 -.992546151641323 0 .03870600871956525 .0384175 30 623 1499 0 968 616 972
 0 +-.01555792309457635 .0604198340253116 .03654871173089235 .1151527571214994 .
937843946133962 -.3273966634332045 30 742 1506 0 737 972 963 0 --.02170760537139
265 .01033469114094132 -.0540331863447274 .1151527571214994 .937843946133962 .32
73966634332045 17 952 0 644 740 966 346 324 741 0 612 -17 348 0 637 746 736 346
 740 971 0 952 +16 971 1723 0 ?348 657 0 658 0 0 7 31 658 1739 0 971 0 654 0 +-.
00789700923866439 .0602869914760163 -.0362709012586025 -.1151527571215 -.9378439
46133962 -.3273966634332045 0 .3295891579622895 -.944124455224897 .00762 17 746
 0 637 745 348 355 612 610 0 0 -17 612 0 713 716 973 346 746 610 0 588 +17 716 0
 713 354 612 349 588 586 0 974 -17 973 0 713 612 354 355 975 976 0 746 -17 588 0
 900 324 351 346 716 586 0 0 +17 354 0 713 973 716 352 974 613 0 975 +17 975 0 8
70 342 357 352 973 976 0 977 +16 976 1453 0 ?975 477 664 667 0 0 7 16 477 1542 0
 ?310 474 976 479 0 0 7 16 664 1475 0 ?727 976 661 665 0 0 7 32 667 1393 0 976 6
65 479 0 -121843672717418e-32 .00446343271886928 -.063829598188054 0 -.329589157
9622895 .944124455224897 0 -.944124455224897 -.3295891579622895 .052037995979283
7 .01660380882190515 31 479 1307 0 477 667 478 0 +121843672717419e-32 .01905 .05
953125 0 1 -1681137226870315e-31 0 1681137226870315e-31 1 .015875 17 727 0 723 7
49 345 340 730 664 0 978 +17 749 0 723 398 727 364 978 747 0 979 +17 730 0 870 3
57 342 343 727 664 0 745 -17 978 0 885 977 980 340 749 747 0 0 -15 885 1659 0 97
7 671 0 17 977 0 885 974 978 352 342 622 0 0 -17 980 0 885 978 360 364 609 607 0
 0 -17 360 0 885 980 974 358 959 659 0 958 +17 609 0 681 363 979 358 980 607 0 0
 +15 681 315 0 979 676 0 17 363 0 681 604 609 361 958 605 0 955 +17 979 0 681 60
9 981 364 386 593 0 980 -17 981 0 681 979 982 384 548 546 0 982 -17 386 0 690 98
3 366 384 979 593 0 548 +15 690 3 0 366 687 0 17 983 0 690 984 386 367 982 592 0
 315 +17 366 0 690 386 566 364 398 567 0 749 +17 548 0 813 548 548 384 981 546 0
 981 +15 813 645 0 548 809 825 17 566 0 690 366 389 396 985 564 0 731 +17 398 0
 723 591 749 396 366 567 0 566 -17 389 0 690 566 986 387 987 574 0 988 +17 985 0
 722 578 731 387 566 564 0 0 -17 731 0 722 985 554 396 591 589 0 0 -15 722 148 0
 554 296 0 17 554 0 722 731 578 408 732 552 0 0 +17 578 0 722 554 985 399 988 57
6 0 732 +17 732 0 686 989 410 399 554 552 0 0 -17 989 0 686 561 732 402 401 562
 0 990 -17 561 0 686 336 989 405 990 559 0 0 +17 401 0 694 988 404 399 989 562 0
 578 +17 990 0 698 392 407 402 561 559 0 0 -15 698 136 0 990 685 0 17 392 0 698
 573 990 390 404 579 0 987 -17 407 0 698 990 573 405 395 581 0 969 +17 573 0 698
 407 392 393 986 571 0 0 +17 395 0 313 314 969 393 407 581 0 984 -17 314 0 313 3
11 395 367 984 569 0 604 +17 984 0 690 986 983 393 314 569 0 573 -17 986 0 690 3
89 984 390 573 571 0 0 -17 604 0 681 982 363 367 955 598 0 983 +17 982 0 681 981
 604 384 983 592 0 0 -16 592 610 0 ?983 593 589 590 593 593 7 17 404 0 694 401 9
87 402 392 579 0 989 +17 987 0 694 404 988 390 389 574 0 986 -15 694 134 0 401 4
71 991 17 988 0 694 987 401 387 578 576 0 985 -15 991 833 0 992 471 466 17 992 0
 991 993 503 378 500 498 0 0 -17 993 0 991 506 992 420 380 496 0 0 -17 503 0 991
 992 506 426 994 501 0 0 +17 500 0 787 377 516 426 992 498 0 503 +15 787 947 0 5
16 775 0 17 377 0 787 725 500 375 428 513 0 521 -17 516 0 787 500 725 378 995 50
7 0 992 +17 725 0 787 516 377 417 518 510 0 995 -17 995 0 710 413 380 417 516 50
7 0 0 -15 710 1322 0 995 703 0 17 413 0 710 422 995 411 419 524 0 996 -17 380 0
 710 995 422 378 993 496 0 516 +17 422 0 710 380 413 420 996 508 0 997 +17 996 0
 782 416 997 411 422 508 0 724 -17 997 0 782 996 425 420 506 504 0 993 -15 782 9
39 0 416 777 0 17 425 0 782 997 416 423 998 511 0 994 +17 506 0 991 503 993 423
 997 504 0 0 +17 416 0 782 425 996 414 724 522 0 998 +17 998 0 785 521 994 414 4
25 511 0 999 -17 994 0 785 998 428 423 503 501 0 506 -15 785 943 0 521 780 0 17
 428 0 785 994 521 426 377 513 0 500 +17 521 0 785 428 998 375 999 519 0 518 +17
 999 0 718 724 518 414 521 519 0 0 -17 518 0 718 999 419 375 725 510 0 0 +17 724
 0 718 419 999 411 416 522 0 0 -17 336 0 686 383 561 334 969 557 0 301 +17 315 0
 874 955 956 367 311 302 0 0 -17 956 0 874 315 954 304 316 750 0 0 -17 958 0 673
 959 663 358 363 605 0 609 -17 974 0 885 360 977 349 354 613 0 959 -17 342 0 870
 730 975 340 977 622 0 727 +16 622 1485 0 ?342 968 615 616 0 0 7 15 870 1370 0 9
75 628 0 17 357 0 870 975 730 355 745 615 0 973 +17 306 0 305 316 303 304 310 47
7 0 956 -82 1 887 1704129 82 1 882 1704129 82 1 876 1704129 82 1 872 1704129 82
 1 866 1704129 82 1 862 1507510 82 1 859 1507510 82 1 856 1507510 82 1 853 15075
10 82 1 851 1507510 82 1 849 1507510 82 1 844 1376429 82 1 842 1376429 82 1 838
 1376429 82 1 835 1245342 83 3 830 .709803921568628 .415686274509804 .4156862745
09804 82 1 829 1114281 15 815 693 0 1000 808 826 17 1000 0 815 1000 1000 0 535 5
33 0 0 -17 535 0 804 535 535 0 1000 533 0 0 +15 804 713 0 535 799 947 15 800 779
 0 1001 792 970 17 1001 0 800 1001 1001 0 531 529 0 0 -17 531 0 1002 531 531 0 1
001 529 0 0 +15 1002 793 0 531 781 0 15 796 792 0 1003 781 1002 17 1003 0 796 10
03 1003 0 528 526 0 0 -17 528 0 793 528 528 0 1003 526 0 0 +15 793 784 0 528 789
 946 15 773 1141 0 492 769 0 17 492 0 773 440 464 369 1004 490 0 1005 +17 440 0
 773 465 492 438 371 485 0 472 +17 464 0 773 492 465 432 443 459 0 1004 -17 1004
 0 700 457 1005 432 492 490 0 0 -17 1005 0 700 1004 437 369 489 458 0 0 -15 700
 1320 0 437 693 313 17 437 0 700 1005 457 435 431 455 0 489 +17 489 0 770 454 37
1 435 1005 458 0 450 +15 770 1145 0 489 765 0 17 454 0 770 472 489 372 450 483 0
 470 +17 371 0 770 489 472 369 440 485 0 492 -17 450 0 446 431 374 435 454 483 0
 0 -17 472 0 770 371 454 438 470 473 0 467 +17 467 0 466 470 461 438 465 468 0 0
 -17 465 0 773 464 440 441 467 468 0 461 +17 457 0 700 437 1004 429 434 493 0 0
 +17 434 0 456 443 447 432 457 493 0 464 -40 3 758 0 1 3 .001857259738202465 .19
9613425462147 ??-.01033962098860922 .04290498457909575 .0504098433683807 -.01431
544144817776 .0287969773398977 .0549775558316559 -.01582478345988325 .01905 .058
2695632529004 41 1 759 L-.01033962098860922 .04290498457909575 .0504098433683807
 41 1 760 L-.01582478345988325 .01905 .0582695632529004 83 3 721 .70980392156862
8 .415686274509804 .415686274509804 83 3 715 .709803921568628 .415686274509804 .
415686274509804 83 3 708 .709803921568628 .415686274509804 .415686274509804 141
 675 752 675 675 629 141 674 616 674 674 624 141 653 633 653 653 640 141 649 668
 1006 1006 639 141 1006 633 649 649 639 141 645 753 645 645 638 141 631 614 1007
 1007 617 141 1007 616 631 631 617 40 3 625 0 1 3 .00185725973820253 .1996134254
6215 ??.0103396209886092 .0429049845790959 -.0504098433683807 .01431544144817774
 .02879697733989785 -.0549775558316559 .01582478345988315 .01905000000000075 -.0
582695632529001 41 1 626 L.0103396209886092 .0429049845790959 -.0504098433683807
 41 1 627 L.01582478345988315 .01905000000000075 -.0582695632529001 19 295 167 0
 7 0 17 13 S74 20 293 4 0 0 898 291 635 10 0 0 0 0 0 0 0 0 0 0 0 0 0 0 0 0 81 2
 291 1782 285 7 0 10 0 0 1008 0 83 1 1008 1 84 20 292 pb bearing_1.50 bore74 20
 6 1 0 0 2 0 0 0 0 0 0 0 0 0 0 0 0 0 0 0 0 0 0 0 1 0 
