**ABCDEFGHIJKLMNOPQRSTUVWXYZabcdefghijklmnopqrstuvwxyz**************************
**PARASOLID !"#$%&'()*+,-./:;<=>?@[\]^_`{|}~0123456789**************************
**PART1;
MC=x86;
MC_MODEL=x86 Family 6 Model 23 Stepping 10, GenuineIntel;
MC_ID=unknown;
OS=Windows_NT;
OS_RELEASE=unknown;
FRU=Parasolid Version 24.0, build 175,  7-28-2011;
APPL=SolidWorks 2012-2011268;
SITE=;
USER=unknown;
FORMAT=text;
GUISE=transmit;
KEY=Éý½µ¼Ü;
FILE=Éý½µ¼Ü.x_t;
DATE=Wed Nov 16 09:57:17 2011;
**PART2;
SCH=SCH_2400175_20000;
USFLD_SIZE=0;
**PART3;
**END_OF_HEADER*****************************************************************
T51 : TRANSMIT FILE created by modeller version 240017523 SCH_2400175_20000_1300
6186 0 12 27 CCCCCCCCCCCCCCCCCCCCCCCA16 index_map_offset0 0 1 dA9 index_map82 0
 A17 node_id_index_map82 0 A20 schema_embedding_map82 0 Z1 996 0 2 0 0 0 0 1e3 1
e-8 0 3 0 1 0 1 1 4 5 6 7 8 9 10 0 0 0 0 70 11 CI9 list_type0 0 1 uI10 notransmi
t0 0 1 lCCCDCCDI12 finger_index0 0 1 dI12 finger_block1012 0 CZ2 0 4 T1 0 0 2 20
 1 11 11 13 255 4 394 0 1 0 12 0 0 13 0 50 255 5 393 0 12 14 0 0 +0 0 -.009 -.82
9037572555045 .559192903470742 0 -.559192903470742 -.829037572555045 0 30 255 6
 373 0 15 16 0 0 +-.050118587057231 -.0743038609680594 -.009 0 0 1 29 255 7 103
 0 10 17 0 0 0 -.009 19 255 8 104 0 1 13 0 18 V16 255 9 294 0 ?19 0 20 21 0 0 1
 18 255 10 102 0 22 0 23 7 ?1 17 255 22 0 24 25 26 10 19 9 0 27 -18 23 100 0 28
 10 29 17 ?1 17 28 0 30 31 32 23 33 20 0 34 -18 29 98 0 35 23 36 37 ?1 29 17 101
 0 23 37 7 0 .012 -.009 29 37 99 0 29 38 17 .022 .012 -.009 29 38 97 0 36 39 37
 .022 -.021 -.009 18 36 96 0 40 29 41 38 ?1 29 39 95 0 41 42 38 .018409329029702
35 -.02447952324077045 -.009 18 41 94 0 43 36 44 39 ?1 29 42 93 0 44 45 39 .0149
298057889319 -.02088885227047275 -.009 18 44 92 0 46 41 47 42 ?1 29 45 91 0 47 4
8 42 -.02097690391404485 -.0556840846781771 -.009 18 47 90 0 49 44 50 45 ?1 29 4
8 89 0 50 51 45 -.0174973806732744 -.0592747556484747 -.009 18 50 88 0 52 47 53
 48 ?1 29 51 87 0 53 54 48 -.0354507355247628 -.0766723718523269 -.009 18 53 86
 0 55 50 56 51 ?1 29 54 85 0 56 57 51 -.0363726313745017 -.0887345694883073 -.00
9 18 56 84 0 58 53 59 54 ?1 29 57 83 0 59 60 54 -.095608741068552 -.155477415397
631 -.009 18 59 82 0 61 56 62 57 ?1 29 60 81 0 62 63 57 -.0960756851289844 -.167
4709012092925 -.009 18 62 80 0 64 59 65 60 ?1 29 63 79 0 65 66 60 -.115021997721
015 -.1700358049131085 -.009 18 65 78 0 67 62 68 63 ?1 29 66 77 0 68 69 63 -.115
021997721015 -.1370358049131084 -.009 18 68 76 0 70 65 71 66 ?1 29 69 75 0 71 72
 66 -.111113225409162 -.1339178730642556 -.009 18 71 74 0 73 68 74 69 ?1 29 72 7
3 0 74 75 69 -.107995293560309 -.1378266453761086 -.009 18 74 72 0 76 71 77 72 ?
1 29 75 71 0 77 78 72 -.0689075704417785 -.1066473268875802 -.009 18 77 70 0 79
 74 80 75 ?1 29 78 69 0 80 81 75 -.0720255022906313 -.1027385545757272 -.009 18
 80 68 0 82 77 83 78 ?1 29 81 67 0 83 84 78 -.0524816407313659 -.087148895331463
 -.009 18 83 66 0 85 80 86 81 ?1 29 84 65 0 86 87 81 -.050118587057231 -.0743038
609680594 -.009 18 86 64 0 88 83 89 84 ?1 29 87 274 0 89 90 84 0 0 0 18 89 233 0
 19 86 91 87 ?1 29 90 275 0 91 92 87 0 .012 0 18 91 234 0 33 89 93 90 ?1 29 92 2
76 0 93 94 90 .022 .012 0 18 93 235 0 95 91 96 92 ?1 29 94 277 0 96 97 92 .022 -
.021 0 18 96 236 0 98 93 99 94 ?1 29 97 278 0 99 100 94 .01840932902970235 -.024
47952324077045 0 18 99 237 0 101 96 102 97 ?1 29 100 279 0 102 103 97 .014929805
7889319 -.02088885227047275 0 18 102 238 0 104 99 105 100 ?1 29 103 280 0 105 10
6 100 -.02097690391404485 -.0556840846781771 0 18 105 239 0 107 102 108 103 ?1 2
9 106 281 0 108 109 103 -.0174973806732744 -.0592747556484747 0 18 108 240 0 110
 105 111 106 ?1 29 109 282 0 111 112 106 -.0354507355247628 -.0766723718523269 0
 18 111 241 0 113 108 114 109 ?1 29 112 283 0 114 115 109 -.0363726313745017 -.0
887345694883073 0 18 114 242 0 116 111 117 112 ?1 29 115 284 0 117 118 112 -.095
608741068552 -.155477415397631 0 18 117 243 0 119 114 120 115 ?1 29 118 285 0 12
0 121 115 -.0960756851289844 -.1674709012092925 0 18 120 244 0 122 117 123 118 ?
1 29 121 286 0 123 124 118 -.115021997721015 -.1700358049131085 0 18 123 245 0 1
25 120 126 121 ?1 29 124 287 0 126 127 121 -.115021997721015 -.1370358049131084
 0 18 126 246 0 128 123 129 124 ?1 29 127 288 0 129 130 124 -.111113225409162 -.
1339178730642556 0 18 129 247 0 131 126 132 127 ?1 29 130 289 0 132 133 127 -.10
7995293560309 -.1378266453761086 0 18 132 248 0 134 129 135 130 ?1 29 133 290 0
 135 136 130 -.0689075704417785 -.1066473268875802 0 18 135 249 0 137 132 138 13
3 ?1 29 136 291 0 138 139 133 -.0720255022906313 -.1027385545757272 0 18 138 250
 0 140 135 141 136 ?1 29 139 292 0 141 142 136 -.0524816407313659 -.087148895331
463 0 18 141 251 0 143 138 144 139 ?1 29 142 293 0 144 0 139 -.050118587057231 -
.0743038609680594 0 18 144 252 0 145 141 0 142 ?1 17 145 0 24 26 25 144 88 15 0
 146 +15 255 24 352 0 26 12 0 17 26 0 24 22 145 89 147 148 0 149 -17 25 0 24 145
 22 86 27 150 0 0 +17 88 0 151 152 146 86 145 15 0 153 -16 15 313 0 ?145 154 155
 6 0 0 1 17 146 0 151 88 143 144 156 157 0 147 -15 151 350 0 146 158 0 17 143 0
 151 146 152 141 85 154 0 159 +17 156 0 160 161 147 141 146 157 0 0 +16 157 225
 0 ?156 162 148 163 0 0 1 17 147 0 160 156 149 144 26 148 0 0 +15 160 152 0 147
 164 0 17 149 0 160 147 165 89 32 166 0 0 +16 148 229 0 ?147 157 167 168 0 0 1 1
6 167 452 0 ?169 148 170 171 0 0 1 30 168 273 0 148 171 163 0 +0 0 0 -.559192903
470742 -.829037572555045 0 31 255 171 474 0 167 172 168 0 +.011 .012 -.009 0 0 1
 1 0 0 .006 31 163 272 0 157 168 173 0 +-.04385177838264355 -.0820966210077447 0
 0 0 1 1 0 0 .01 30 173 271 0 162 163 174 0 +-.0720255022906313 -.10273855457572
72 0 -.781754462370613 -.623586369770567 0 16 162 221 0 ?161 175 157 173 0 0 1 3
0 174 270 0 175 173 176 0 +-.0689075704417785 -.1066473268875802 0 .623586369770
568 -.781754462370612 0 16 175 217 0 ?177 178 162 174 0 0 1 30 176 269 0 178 174
 179 0 +-.107995293560309 -.1378266453761086 0 -.781754462370613 -.6235863697705
67 0 16 178 213 0 ?180 181 175 176 0 0 1 30 179 268 0 181 176 182 0 +-.111113225
409162 -.1339178730642556 0 -.623586369770566 .781754462370613 0 16 181 209 0 ?1
83 184 178 179 0 0 1 30 182 267 0 184 179 185 0 +-.115021997721015 -.13703580491
31084 0 -.781754462370612 -.623586369770568 0 16 184 205 0 ?186 187 181 182 0 0
 1 30 185 266 0 187 182 188 0 +-.115021997721015 -.1700358049131085 0 -841078048
95845e-29 -1 0 16 187 201 0 ?189 190 184 185 0 0 1 31 188 265 0 190 185 191 0 +-
.1062788968936882 -.1633606129366035 0 0 0 1 -1 0 0 .011 16 190 197 0 ?192 193 1
87 188 0 0 1 30 191 264 0 193 188 194 0 +-.095608741068552 -.155477415397631 0 .
03890366613595845 .999242965830224 0 16 193 193 0 ?195 196 190 191 0 0 1 30 194
 263 0 196 191 197 0 +-.095608741068552 -.155477415397631 0 .663794848056259 .74
7914700814183 0 16 196 189 0 ?198 199 193 194 0 0 1 31 197 262 0 199 194 200 0 +
-.04385177838264355 -.0820966210077447 0 0 0 1 1 0 0 .01 16 199 185 0 ?201 202 1
96 197 0 0 1 30 200 261 0 202 197 203 0 +-.0174973806732744 -.0592747556484747 0
 .718134194059535 .695904648154086 0 16 202 181 0 ?204 205 199 200 0 0 1 30 203
 260 0 205 200 206 0 +-.02097690391404485 -.0556840846781771 0 -.695904648154086
 .718134194059535 0 16 205 177 0 ?207 208 202 203 0 0 1 30 206 259 0 208 203 209
 0 +.0149298057889319 -.02088885227047275 0 .718134194059535 .695904648154086 0
 16 208 173 0 ?210 211 205 206 0 0 1 30 209 258 0 211 206 212 0 +.01840932902970
235 -.02447952324077045 0 .695904648154086 -.718134194059535 0 16 211 169 0 ?213
 214 208 209 0 0 1 30 212 257 0 214 209 215 0 +.022 -.021 0 .718134194059535 .69
5904648154086 0 16 214 165 0 ?216 217 211 212 0 0 1 30 215 256 0 217 212 218 0 +
.022 .012 0 -1051347561198064e-31 1 0 16 217 161 0 ?219 220 214 215 0 0 1 31 218
 255 0 220 215 221 0 +.011 .012 0 0 0 1 -1 0 0 .011 16 220 157 0 ?165 166 217 21
8 0 0 1 30 221 254 0 166 218 222 0 +0 0 0 0 -1 0 16 166 153 0 ?149 150 220 221 0
 0 1 30 222 5 0 150 221 223 0 +0 0 -.009 -.559192903470742 -.829037572555045 0 1
6 150 4 0 ?25 224 166 222 0 0 1 31 223 8 0 224 222 225 0 +-.04385177838264355 -.
0820966210077447 -.009 0 0 1 1 0 0 .01 16 224 7 0 ?152 226 150 223 0 0 1 30 225
 11 0 226 223 227 0 +-.0720255022906313 -.1027385545757272 -.009 -.7817544623706
13 -.623586369770567 0 16 226 10 0 ?228 229 224 225 0 0 1 30 227 14 0 229 225 23
0 0 +-.0689075704417785 -.1066473268875802 -.009 .623586369770568 -.781754462370
612 0 16 229 13 0 ?231 232 226 227 0 0 1 30 230 17 0 232 227 233 0 +-.1079952935
60309 -.1378266453761086 -.009 -.781754462370613 -.623586369770567 0 16 232 16 0
 ?234 235 229 230 0 0 1 30 233 20 0 235 230 236 0 +-.111113225409162 -.133917873
0642556 -.009 -.623586369770566 .781754462370613 0 16 235 19 0 ?237 238 232 233
 0 0 1 30 236 23 0 238 233 239 0 +-.115021997721015 -.1370358049131084 -.009 -.7
81754462370612 -.623586369770568 0 16 238 22 0 ?240 241 235 236 0 0 1 30 239 26
 0 241 236 242 0 +-.115021997721015 -.1700358049131085 -.009 -84107804895845e-29
 -1 0 16 241 25 0 ?243 244 238 239 0 0 1 31 242 29 0 244 239 245 0 +-.1062788968
936882 -.1633606129366035 -.009 0 0 1 -1 0 0 .011 16 244 28 0 ?246 247 241 242 0
 0 1 30 245 32 0 247 242 248 0 +-.095608741068552 -.155477415397631 -.009 .03890
366613595845 .999242965830224 0 16 247 31 0 ?249 250 244 245 0 0 1 30 248 35 0 2
50 245 251 0 +-.095608741068552 -.155477415397631 -.009 .663794848056259 .747914
700814183 0 16 250 34 0 ?252 253 247 248 0 0 1 31 251 38 0 253 248 254 0 +-.0438
5177838264355 -.0820966210077447 -.009 0 0 1 1 0 0 .01 16 253 37 0 ?255 256 250
 251 0 0 1 30 254 41 0 256 251 257 0 +-.0174973806732744 -.0592747556484747 -.00
9 .718134194059535 .695904648154086 0 16 256 40 0 ?258 259 253 254 0 0 1 30 257
 44 0 259 254 260 0 +-.02097690391404485 -.0556840846781771 -.009 -.695904648154
086 .718134194059535 0 16 259 43 0 ?261 262 256 257 0 0 1 30 260 47 0 262 257 26
3 0 +.0149298057889319 -.02088885227047275 -.009 .718134194059535 .6959046481540
86 0 16 262 46 0 ?264 265 259 260 0 0 1 30 263 50 0 265 260 266 0 +.018409329029
70235 -.02447952324077045 -.009 .695904648154086 -.718134194059535 0 16 265 49 0
 ?267 268 262 263 0 0 1 30 266 53 0 268 263 269 0 +.022 -.021 -.009 .71813419405
9535 .695904648154086 0 16 268 52 0 ?270 271 265 266 0 0 1 30 269 56 0 271 266 2
72 0 +.022 .012 -.009 -1051347561198064e-31 1 0 16 271 55 0 ?273 274 268 269 0 0
 1 31 272 59 0 274 269 275 0 +.011 .012 -.009 0 0 1 -1 0 0 .011 16 274 58 0 ?34
 155 271 272 0 0 1 30 275 62 0 155 272 21 0 +0 0 -.009 0 -1 0 16 155 61 0 ?31 15
 274 275 0 0 1 30 21 354 0 9 275 276 0 +0 0 -.009 0 0 1 30 276 355 0 20 21 277 0
 +0 .012 -.009 0 0 1 16 20 295 0 ?33 9 278 276 0 0 1 30 277 356 0 278 276 279 0
 +.022 .012 -.009 0 0 1 16 278 296 0 ?95 20 280 277 0 0 1 30 279 357 0 280 277 2
81 0 +.022 -.021 -.009 0 0 1 16 280 297 0 ?98 278 282 279 0 0 1 30 281 358 0 282
 279 283 0 +.01840932902970235 -.02447952324077045 -.009 0 0 1 16 282 298 0 ?101
 280 284 281 0 0 1 30 283 359 0 284 281 285 0 +.0149298057889319 -.0208888522704
7275 -.009 0 0 1 16 284 299 0 ?104 282 286 283 0 0 1 30 285 360 0 286 283 287 0
 +-.02097690391404485 -.0556840846781771 -.009 0 0 1 16 286 300 0 ?107 284 288 2
85 0 0 1 30 287 361 0 288 285 289 0 +-.0174973806732744 -.0592747556484747 -.009
 0 0 1 16 288 301 0 ?110 286 290 287 0 0 1 30 289 362 0 290 287 291 0 +-.0354507
355247628 -.0766723718523269 -.009 0 0 1 16 290 302 0 ?113 288 292 289 0 0 1 30
 291 363 0 292 289 293 0 +-.0363726313745017 -.0887345694883073 -.009 0 0 1 16 2
92 303 0 ?116 290 294 291 0 0 1 30 293 364 0 294 291 295 0 +-.095608741068552 -.
155477415397631 -.009 0 0 1 16 294 304 0 ?119 292 296 293 0 0 1 30 295 365 0 296
 293 297 0 +-.0960756851289844 -.1674709012092925 -.009 0 0 1 16 296 305 0 ?122
 294 298 295 0 0 1 30 297 366 0 298 295 299 0 +-.115021997721015 -.1700358049131
085 -.009 0 0 1 16 298 306 0 ?125 296 300 297 0 0 1 30 299 367 0 300 297 301 0 +
-.115021997721015 -.1370358049131084 -.009 0 0 1 16 300 307 0 ?128 298 302 299 0
 0 1 30 301 368 0 302 299 303 0 +-.111113225409162 -.1339178730642556 -.009 0 0
 1 16 302 308 0 ?131 300 304 301 0 0 1 30 303 369 0 304 301 305 0 +-.10799529356
0309 -.1378266453761086 -.009 0 0 1 16 304 309 0 ?134 302 306 303 0 0 1 30 305 3
70 0 306 303 307 0 +-.0689075704417785 -.1066473268875802 -.009 0 0 1 16 306 310
 0 ?137 304 308 305 0 0 1 30 307 371 0 308 305 16 0 +-.0720255022906313 -.102738
5545757272 -.009 0 0 1 16 308 311 0 ?140 306 154 307 0 0 1 30 16 372 0 154 307 6
 0 +-.0524816407313659 -.087148895331463 -.009 0 0 1 16 154 312 0 ?143 308 15 16
 0 0 1 17 140 0 309 159 228 138 82 308 0 310 +15 309 348 0 159 311 0 17 159 0 30
9 85 140 141 161 162 0 156 -17 228 0 309 140 85 80 312 226 0 0 +17 82 0 313 231
 310 80 140 308 0 314 -17 310 0 313 82 137 138 177 175 0 161 -15 313 346 0 310 3
15 0 17 137 0 313 310 231 135 79 306 0 316 +17 177 0 160 180 161 135 310 175 0 0
 +17 161 0 160 177 156 138 159 162 0 0 +17 180 0 160 183 177 132 316 178 0 0 +17
 183 0 160 186 180 129 317 181 0 0 +17 316 0 318 79 134 135 180 178 0 177 -15 31
8 344 0 316 319 0 17 79 0 318 234 316 77 137 306 0 320 -17 134 0 318 316 234 132
 76 304 0 317 +17 234 0 318 134 79 74 320 232 0 0 +17 76 0 321 237 317 74 134 30
4 0 322 -17 317 0 321 76 131 132 183 181 0 180 -15 321 342 0 317 323 0 17 131 0
 321 317 237 129 73 302 0 324 +17 237 0 321 131 76 71 322 235 0 0 +17 73 0 325 2
40 324 71 131 302 0 326 -17 324 0 325 73 128 129 186 184 0 183 -15 325 340 0 324
 327 0 17 128 0 325 324 240 126 70 300 0 328 +17 186 0 160 189 183 126 324 184 0
 0 +17 189 0 160 192 186 123 328 187 0 0 +17 192 0 160 195 189 120 329 190 0 0 +
17 328 0 330 70 125 126 189 187 0 186 -15 330 338 0 328 331 0 17 70 0 330 243 32
8 68 128 300 0 332 -17 125 0 330 328 243 123 67 298 0 329 +17 243 0 330 125 70 6
5 332 241 0 0 +17 67 0 333 246 329 65 125 298 0 334 -17 329 0 333 67 122 123 192
 190 0 189 -15 333 336 0 329 335 0 17 122 0 333 329 246 120 64 296 0 336 +17 246
 0 333 122 67 62 334 244 0 0 +17 64 0 337 249 336 62 122 296 0 338 -17 336 0 337
 64 119 120 195 193 0 192 -15 337 334 0 336 339 0 17 119 0 337 336 249 117 61 29
4 0 340 +17 195 0 160 198 192 117 336 193 0 0 +17 198 0 160 201 195 114 340 196
 0 0 +17 201 0 160 204 198 111 341 199 0 0 +17 340 0 342 61 116 117 198 196 0 19
5 -15 342 332 0 340 343 0 17 61 0 342 252 340 59 119 294 0 344 -17 116 0 342 340
 252 114 58 292 0 341 +17 252 0 342 116 61 56 344 250 0 0 +17 58 0 345 255 341 5
6 116 292 0 346 -17 341 0 345 58 113 114 201 199 0 198 -15 345 330 0 341 347 0 1
7 113 0 345 341 255 111 55 290 0 348 +17 255 0 345 113 58 53 346 253 0 0 +17 55
 0 349 258 348 53 113 290 0 350 -17 348 0 349 55 110 111 204 202 0 201 -15 349 3
28 0 348 351 0 17 110 0 349 348 258 108 52 288 0 352 +17 204 0 160 207 201 108 3
48 202 0 0 +17 207 0 160 210 204 105 352 205 0 0 +17 210 0 160 213 207 102 353 2
08 0 0 +17 352 0 354 52 107 108 207 205 0 204 -15 354 326 0 352 355 0 17 52 0 35
4 261 352 50 110 288 0 356 -17 107 0 354 352 261 105 49 286 0 353 +17 261 0 354
 107 52 47 356 259 0 0 +17 49 0 357 264 353 47 107 286 0 358 -17 353 0 357 49 10
4 105 210 208 0 207 -15 357 324 0 353 359 0 17 104 0 357 353 264 102 46 284 0 36
0 +17 264 0 357 104 49 44 358 262 0 0 +17 46 0 361 267 360 44 104 284 0 362 -17
 360 0 361 46 101 102 213 211 0 210 -15 361 322 0 360 363 0 17 101 0 361 360 267
 99 43 282 0 364 +17 213 0 160 216 210 99 360 211 0 0 +17 216 0 160 219 213 96 3
64 214 0 0 +17 219 0 160 165 216 93 365 217 0 0 +17 364 0 366 43 98 99 216 214 0
 213 -15 366 320 0 364 367 0 17 43 0 366 270 364 41 101 282 0 368 -17 98 0 366 3
64 270 96 40 280 0 365 +17 270 0 366 98 43 36 368 268 0 0 +17 40 0 369 273 365 3
6 98 280 0 370 -17 365 0 369 40 95 96 219 217 0 216 -15 369 318 0 365 371 0 17 9
5 0 369 365 273 93 35 278 0 372 +17 273 0 369 95 40 29 370 271 0 0 +17 35 0 373
 34 372 29 95 278 0 374 -17 372 0 373 35 33 93 165 220 0 219 -15 373 316 0 372 3
75 0 17 33 0 373 372 34 91 28 20 0 165 +17 165 0 160 149 219 91 372 220 0 32 +17
 32 0 30 28 19 91 149 166 0 0 -15 30 314 0 32 376 0 17 19 0 30 32 31 89 22 9 0 2
6 +17 31 0 30 19 28 10 377 155 0 0 +17 377 0 378 374 27 23 31 155 0 0 -15 378 3
 0 27 379 0 17 374 0 378 370 377 29 34 274 0 273 -17 27 0 378 377 153 10 25 150
 0 31 -17 153 0 378 27 312 86 152 224 0 25 -17 312 0 378 153 314 83 228 226 0 15
2 -17 152 0 151 143 88 83 153 224 0 0 +17 314 0 378 312 320 80 231 229 0 228 -17
 320 0 378 314 322 77 234 232 0 231 -17 231 0 313 137 82 77 314 229 0 0 +17 322
 0 378 320 326 74 237 235 0 234 -17 326 0 378 322 332 71 240 238 0 237 -17 332 0
 378 326 334 68 243 241 0 240 -17 240 0 325 128 73 68 326 238 0 0 +17 334 0 378
 332 338 65 246 244 0 243 -17 338 0 378 334 344 62 249 247 0 246 -17 344 0 378 3
38 346 59 252 250 0 249 -17 249 0 337 119 64 59 338 247 0 0 +17 346 0 378 344 35
0 56 255 253 0 252 -17 350 0 378 346 356 53 258 256 0 255 -17 356 0 378 350 358
 50 261 259 0 258 -17 258 0 349 110 55 50 350 256 0 0 +17 358 0 378 356 362 47 2
64 262 0 261 -17 362 0 378 358 368 44 267 265 0 264 -17 368 0 378 362 370 41 270
 268 0 267 -17 267 0 361 101 46 41 362 265 0 0 +17 370 0 378 368 374 36 273 271
 0 270 -17 34 0 373 33 35 23 374 274 0 377 +14 255 379 1 380 ?164 158 381 4 382
 -0 0 164 158 18 81 255 1 380 972 383 379 384 0 0 385 386 14 164 151 385 ?387 37
9 388 4 389 +0 0 387 379 18 14 158 351 390 ?379 311 151 4 14 +0 0 379 311 18 15
 381 522 0 391 379 392 50 382 2 0 379 389 393 0 +-.04385177838264355 -.082096621
0077447 -.009 0 0 1 1 0 0 13 18 105 0 0 0 0 0 0 8 12 14 12 353 394 ?376 0 24 4 5
 +0 0 376 0 18 81 1 394 975 383 12 395 0 390 396 397 14 376 315 396 ?375 12 30 4
 393 +0 0 375 12 18 81 1 396 976 383 376 398 0 394 399 400 14 375 317 399 ?371 3
76 373 4 401 +0 0 371 376 18 50 393 374 0 376 382 401 0 +0 0 -.009 -1 0 0 0 0 1
 51 255 401 375 0 375 393 402 0 +.011 .012 -.009 0 0 1 .011 1 0 0 50 402 376 0 3
71 401 403 0 +.022 .012 -.009 1 1051347561198064e-31 0 -1051347561198064e-31 1 0
 14 371 319 404 ?367 375 369 4 402 +0 0 367 375 18 50 403 377 0 367 402 405 0 +.
022 -.021 -.009 .695904648154086 -.718134194059535 0 .718134194059535 .695904648
154086 0 14 367 321 406 ?363 371 366 4 403 +0 0 363 371 18 50 405 378 0 363 403
 407 0 +.01840932902970235 -.02447952324077045 -.009 -.718134194059535 -.6959046
48154087 0 .695904648154087 -.718134194059535 0 14 363 323 408 ?359 367 361 4 40
5 +0 0 359 367 18 50 407 379 0 359 405 409 0 +.0149298057889319 -.02088885227047
275 -.009 .695904648154086 -.718134194059535 0 .718134194059535 .695904648154086
 0 14 359 325 410 ?355 363 357 4 407 +0 0 355 363 18 50 409 380 0 355 407 411 0
 +-.02097690391404485 -.0556840846781771 -.009 .718134194059535 .695904648154086
 0 -.695904648154086 .718134194059535 0 14 355 327 412 ?351 359 354 4 409 +0 0 3
51 359 18 50 411 381 0 351 409 413 0 +-.0174973806732744 -.0592747556484747 -.00
9 .695904648154086 -.718134194059535 0 .718134194059535 .695904648154086 0 14 35
1 329 414 ?347 355 349 4 411 +0 0 347 355 18 51 413 382 0 347 411 415 0 +-.04385
177838264355 -.0820966210077447 -.009 0 0 1 .01 1 0 0 14 347 331 416 ?343 351 34
5 4 413 +0 0 343 351 18 50 415 383 0 343 413 417 0 +-.095608741068552 -.15547741
5397631 -.009 .747914700814183 -.663794848056259 0 .663794848056259 .74791470081
4183 0 14 343 333 418 ?339 347 342 4 415 +0 0 339 347 18 50 417 384 0 339 415 41
9 0 +-.095608741068552 -.155477415397631 -.009 .999242965830224 -.03890366613595
845 0 .03890366613595845 .999242965830224 0 14 339 335 420 ?335 343 337 4 417 +0
 0 335 343 18 51 419 385 0 335 417 421 0 +-.1062788968936882 -.1633606129366035
 -.009 0 0 1 .011 1 0 0 14 335 337 422 ?331 339 333 4 419 +0 0 331 339 18 50 421
 386 0 331 419 423 0 +-.115021997721015 -.1700358049131085 -.009 -1 841078048958
45e-29 0 -84107804895845e-29 -1 0 14 331 339 424 ?327 335 330 4 421 +0 0 327 335
 18 50 423 387 0 327 421 425 0 +-.115021997721015 -.1370358049131084 -.009 -.623
586369770568 .781754462370612 0 -.781754462370612 -.623586369770568 0 14 327 341
 426 ?323 331 325 4 423 +0 0 323 331 18 50 425 388 0 323 423 427 0 +-.1111132254
09162 -.1339178730642556 -.009 .781754462370613 .623586369770566 0 -.62358636977
0566 .781754462370613 0 14 323 343 428 ?319 327 321 4 425 +0 0 319 327 18 50 427
 389 0 319 425 429 0 +-.107995293560309 -.1378266453761086 -.009 -.6235863697705
67 .781754462370613 0 -.781754462370613 -.623586369770567 0 14 319 345 430 ?315
 323 318 4 427 +0 0 315 323 18 50 429 390 0 315 427 431 0 +-.0689075704417785 -.
1066473268875802 -.009 -.781754462370612 -.623586369770568 0 .623586369770568 -.
781754462370612 0 14 315 347 432 ?311 319 313 4 429 +0 0 311 319 18 50 431 391 0
 311 429 14 0 +-.0720255022906313 -.1027385545757272 -.009 -.623586369770567 .78
1754462370613 0 -.781754462370613 -.623586369770567 0 14 311 349 433 ?158 315 30
9 4 431 +0 0 158 315 18 51 14 392 0 158 431 5 0 +-.04385177838264355 -.082096621
0077447 -.009 0 0 1 .01 1 0 0 81 1 433 993 383 311 434 0 432 435 436 80 255 1 38
3 437 438 9000 1 1 1 1 1 1 1 1 0 FFFFTFTFFFFFFF1 81 1 434 913 439 311 0 433 440
 441 442 81 1 432 992 383 315 440 0 430 433 443 81 1 435 994 383 387 444 0 433 4
45 446 82 255 1 436 -826146700 14 387 458 435 ?447 164 448 4 449 -0 0 447 164 18
 81 1 444 917 439 387 0 435 450 451 452 81 1 445 995 383 447 451 0 435 453 454 8
2 1 446 -816971660 14 447 496 445 ?455 387 456 4 457 -0 0 455 387 18 81 1 451 91
8 439 447 0 445 444 458 459 81 1 453 996 383 455 458 0 445 0 460 82 1 454 -81303
9500 14 455 534 453 ?0 447 461 4 462 -0 0 0 447 18 81 1 458 919 439 455 0 453 45
1 0 463 82 1 460 -809107340 80 1 439 0 464 8001 0 0 0 0 3 5 0 0 0 FFFFTFTFFFFFFF
2 83 255 3 463 .941176470588235 .674509803921569 .1176470588235294 79 255 15 464
 SDL/TYSA_COLOUR15 461 537 0 465 455 466 51 462 547 0 455 0 457 0 +-.10627889689
36882 -.1633606129366035 -.009 0 0 1 .006 1 0 0 51 457 509 0 447 462 449 0 +-.04
385177838264355 -.0820966210077447 -.009 0 0 1 .006 1 0 0 51 449 471 0 387 457 3
89 0 +.011 .012 -.009 0 0 1 .006 1 0 0 50 389 253 0 164 449 382 0 +-.04385177838
264355 -.0820966210077447 0 0 0 1 1 0 0 17 465 0 461 465 465 0 391 467 0 0 -15 4
66 538 0 468 455 0 17 468 0 466 468 468 0 469 470 0 0 +17 469 0 388 469 469 0 46
8 470 0 0 -16 470 531 0 ?468 467 0 471 0 0 1 16 467 528 0 ?391 472 470 473 0 0 1
 31 471 551 0 470 0 473 0 +-.1062788968936882 -.1633606129366035 0 0 0 1 1 0 0 .
006 31 473 550 0 467 471 474 0 +-.1062788968936882 -.1633606129366035 -.009 0 0
 1 1 0 0 .006 31 474 513 0 472 473 475 0 +-.04385177838264355 -.0820966210077447
 0 0 0 1 1 0 0 .006 16 472 493 0 ?476 477 467 474 0 0 1 31 475 512 0 477 474 172
 0 +-.04385177838264355 -.0820966210077447 -.009 0 0 1 1 0 0 .006 16 477 490 0 ?
478 170 472 475 0 0 1 31 172 475 0 170 475 171 0 +.011 .012 0 0 0 1 1 0 0 .006 1
6 170 455 0 ?479 167 477 172 0 0 1 17 479 0 480 479 479 0 481 170 0 0 +15 480 46
2 0 479 387 0 17 481 0 482 481 481 0 479 170 0 0 -15 482 441 0 481 164 160 17 47
8 0 392 478 478 0 483 477 0 0 +15 392 484 0 478 379 484 17 483 0 456 483 483 0 4
78 477 0 0 -15 456 499 0 483 447 485 15 485 500 0 476 447 0 17 476 0 485 476 476
 0 486 472 0 0 +17 486 0 487 486 486 0 476 472 0 0 -15 487 479 0 486 164 482 15
 484 446 0 169 379 378 17 169 0 484 169 169 0 488 167 0 0 +17 488 0 448 488 488
 0 169 167 0 0 -15 448 461 0 488 387 480 17 391 0 381 391 391 0 465 467 0 0 +15
 388 517 0 469 164 487 83 3 459 .941176470588235 .674509803921569 .1176470588235
294 81 1 450 916 439 164 0 385 384 444 489 83 3 452 .941176470588235 .6745098039
21569 .1176470588235294 81 1 385 973 383 164 450 0 380 390 490 81 1 384 915 439
 379 0 380 441 450 491 83 3 489 .941176470588235 .674509803921569 .1176470588235
294 81 1 441 914 439 158 0 390 434 384 492 83 3 491 .941176470588235 .6745098039
21569 .1176470588235294 81 1 390 974 383 158 441 0 385 394 493 83 3 492 .9411764
70588235 .674509803921569 .1176470588235294 82 1 493 -826015628 82 1 490 -844038
028 81 1 440 912 439 315 0 432 494 434 495 81 1 430 991 383 319 494 0 428 432 49
6 82 1 443 -826277772 81 1 494 911 439 319 0 430 497 440 498 81 1 428 990 383 32
3 497 0 426 430 499 82 1 496 -826408844 81 1 497 910 439 323 0 428 500 494 501 8
1 1 426 989 383 327 500 0 424 428 502 82 1 499 -826539916 81 1 500 909 439 327 0
 426 503 497 504 81 1 424 988 383 331 503 0 422 426 505 82 1 502 -826670988 81 1
 503 908 439 331 0 424 506 500 507 81 1 422 987 383 335 506 0 420 424 508 82 1 5
05 -826802060 81 1 506 907 439 335 0 422 509 503 510 81 1 420 986 383 339 509 0
 418 422 511 82 1 508 -826933132 81 1 509 906 439 339 0 420 512 506 513 81 1 418
 985 383 343 512 0 416 420 514 82 1 511 -827064204 81 1 512 905 439 343 0 418 51
5 509 516 81 1 416 984 383 347 515 0 414 418 517 82 1 514 -827195276 81 1 515 90
4 439 347 0 416 518 512 519 81 1 414 983 383 351 518 0 412 416 520 82 1 517 -827
326348 81 1 518 903 439 351 0 414 521 515 522 81 1 412 982 383 355 521 0 410 414
 523 82 1 520 -827457420 81 1 521 902 439 355 0 412 524 518 525 81 1 410 981 383
 359 524 0 408 412 526 82 1 523 -827588492 81 1 524 901 439 359 0 410 527 521 52
8 81 1 408 980 383 363 527 0 406 410 529 82 1 526 -827719564 81 1 527 900 439 36
3 0 408 530 524 531 81 1 406 979 383 367 530 0 404 408 532 82 1 529 -827850636 8
1 1 530 899 439 367 0 406 533 527 534 81 1 404 978 383 371 533 0 399 406 535 82
 1 532 -827981708 81 1 533 898 439 371 0 404 536 530 537 81 1 399 977 383 375 53
6 0 396 404 538 82 1 535 -828112780 81 1 536 897 439 375 0 399 398 533 539 82 1
 538 -828243852 81 1 398 896 439 376 0 396 395 536 540 83 3 539 .941176470588235
 .674509803921569 .1176470588235294 81 1 395 895 439 12 0 394 0 398 541 83 3 540
 .941176470588235 .674509803921569 .1176470588235294 83 3 541 .941176470588235 .
674509803921569 .1176470588235294 83 3 537 .941176470588235 .674509803921569 .11
76470588235294 83 3 534 .941176470588235 .674509803921569 .1176470588235294 83 3
 531 .941176470588235 .674509803921569 .1176470588235294 83 3 528 .9411764705882
35 .674509803921569 .1176470588235294 83 3 525 .941176470588235 .674509803921569
 .1176470588235294 83 3 522 .941176470588235 .674509803921569 .1176470588235294
 83 3 519 .941176470588235 .674509803921569 .1176470588235294 83 3 516 .94117647
0588235 .674509803921569 .1176470588235294 83 3 513 .941176470588235 .6745098039
21569 .1176470588235294 83 3 510 .941176470588235 .674509803921569 .117647058823
5294 83 3 507 .941176470588235 .674509803921569 .1176470588235294 83 3 504 .9411
76470588235 .674509803921569 .1176470588235294 83 3 501 .941176470588235 .674509
803921569 .1176470588235294 83 3 498 .941176470588235 .674509803921569 .11764705
88235294 83 3 495 .941176470588235 .674509803921569 .1176470588235294 83 3 442 .
941176470588235 .674509803921569 .1176470588235294 79 14 438 SWEntUnchanged82 1
 400 -828374924 82 1 397 -825884556 82 1 386 -856948620 17 85 0 309 228 159 83 1
43 154 0 312 -19 13 395 0 1 0 8 4 S74 4 CI16 index_map_offset0 0 1 dCCZ20 11 2 0
 0 453 458 0 0 0 0 0 0 0 0 0 0 0 0 0 0 0 0 0 0 1 0 
