Modal analysis of a model airplane wing                                 S      1
1H,,1H;,, 9Hwing.iges,                                                  G      1
5HANSYS,22H  11.0      UP20061227,,,,,,,1.0,1,,,,13H000110.200833,      G      2
1.0000E-04,,,,9,,;                                                      G      3
     116       1       0       0       0       0       0       000000001D      1
     116       0       0       2       0       0       0   POINT       0D      2
     116       3       0       0       0       0       0       000000001D      3
     116       0       0       2       0       0       0   POINT       0D      4
     128       5       0       0       0       0       0       000010001D      5
     128       0       0      12       1       0       0 SURFACE       0D      6
     126      17       0       0       0       0       0       000010001D      7
     126       0       0       7       1       0       0B-SPLINE       0D      8
     126      24       0       0       0       0       0       000010001D      9
     126       0       0      15       0       0       0B-SPLINE       0D     10
     126      39       0       0       0       0       0       000010001D     11
     126       0       0       7       1       0       0B-SPLINE       0D     12
     128      46       0       0       0       0       0       000010001D     13
     128       0       0      12       1       0       0 SURFACE       0D     14
     126      58       0       0       0       0       0       000010001D     15
     126       0       0       7       1       0       0B-SPLINE       0D     16
     126      65       0       0       0       0       0       000010001D     17
     126       0       0      15       0       0       0B-SPLINE       0D     18
     126      80       0       0       0       0       0       000010001D     19
     126       0       0       7       1       0       0B-SPLINE       0D     20
     128      87       0       0       0       0       0       000010001D     21
     128       0       0      12       1       0       0 SURFACE       0D     22
     126      99       0       0       0       0       0       000010001D     23
     126       0       0       7       1       0       0B-SPLINE       0D     24
     126     106       0       0       0       0       0       000010001D     25
     126       0       0       7       1       0       0B-SPLINE       0D     26
     128     113       0       0       0       0       0       000010001D     27
     128       0       0      26       8       0       0 SURFACE       0D     28
     126     139       0       0       0       0       0       000010001D     29
     126       0       0       7       1       0       0B-SPLINE       0D     30
     128     146       0       0       0       0       0       000010001D     31
     128       0       0      12       1       0       0 SURFACE       0D     32
     502     158       0       0       0       0       0       000010001D     33
     502       0       0       7       1       0       0  VERTEX       0D     34
     504     165       0       0       0       0       0       000010001D     35
     504       0       0       9       1       0       0    EDGE       0D     36
     508     174       0       0       0       0       0       000010001D     37
     508       0       0       3       1       0       0    LOOP       0D     38
     510     177       0       0       0       0       0       000010001D     39
     510       0       0       1       1       0       0    FACE       0D     40
     508     178       0       0       0       0       0       000010001D     41
     508       0       0       3       1       0       0    LOOP       0D     42
     510     181       0       0       0       0       0       000010001D     43
     510       0       0       1       1       0       0    FACE       0D     44
     508     182       0       0       0       0       0       000010001D     45
     508       0       0       4       1       0       0    LOOP       0D     46
     510     186       0       0       0       0       0       000010001D     47
     510       0       0       1       1       0       0    FACE       0D     48
     508     187       0       0       0       0       0       000010001D     49
     508       0       0       4       1       0       0    LOOP       0D     50
     510     191       0       0       0       0       0       000010001D     51
     510       0       0       1       1       0       0    FACE       0D     52
     508     192       0       0       0       0       0       000010001D     53
     508       0       0       4       1       0       0    LOOP       0D     54
     510     196       0       0       0       0       0       000010001D     55
     510       0       0       1       1       0       0    FACE       0D     56
     514     197       0       0       0       0       0       000010001D     57
     514       0       0       2       1       0       0   SHELL       0D     58
     186     199       0       0       0       0       0       000000001D     59
     186       0       0       1       0       0       0   B-REP       0D     60
116,2.30000000000,0.200000000000,0.00000000000,                        1P      1
0,0,0,0;                                                               1P      2
116,1.90000000000,0.450000000000,0.00000000000,                        3P      3
0,0,0,0;                                                               3P      4
128,1,1,1,1,0,0,                                                       5P      5
1,0,0,                                                                 5P      6
0.00000000000,0.00000000000,1.00000000000,                             5P      7
1.00000000000,0.00000000000,0.00000000000,                             5P      8
1.00000000000,1.00000000000,1.00000000000,                             5P      9
1.00000000000,1.00000000000,1.00000000000,                             5P     10
-0.662256028713,0.560667283149,0.00000000000,                          5P     11
0.488098967029,-1.47466078567,0.00000000000,                           5P     12
1.99805853299,2.06426082818,0.00000000000,                             5P     13
3.14841352873,0.289327593546E-01,0.00000000000,                        5P     14
0.00000000000,1.00000000000,0.00000000000,                             5P     15
1.00000000000,0,0,0;                                                   5P     16
126,1,1,0,0,1,0,                                                       7P     17
0.00000000000,0.00000000000,1.00000000000,                             7P     18
1.00000000000,1.00000000000,1.00000000000,                             7P     19
0.00000000000,0.00000000000,0.00000000000,                             7P     20
1.00000000000,0.250000000000,0.00000000000,                            7P     21
0.00000000000,1.00000000000,0.00000000000,                             7P     22
0.00000000000,0.00000000000,0,0,0;                                     7P     23
126,5,3,0,0,1,0,                                                       9P     24
0.00000000000,0.00000000000,0.00000000000,                             9P     25
0.00000000000,0.267174926285,0.572767195925,                           9P     26
1.00000000000,1.00000000000,1.00000000000,                             9P     27
1.00000000000,1.00000000000,1.00000000000,                             9P     28
1.00000000000,1.00000000000,1.00000000000,                             9P     29
1.00000000000,2.00000000000,0.00000000000,                             9P     30
0.00000000000,2.12018504252,0.00000000000,                             9P     31
0.00000000000,2.48615750002,0.214181975142,                            9P     32
0.00000000000,1.82836194212,0.589600042503,                            9P     33
0.00000000000,1.29814239700,0.324535599250,                            9P     34
0.00000000000,1.00000000000,0.250000000000,                            9P     35
0.00000000000,0.00000000000,1.00000000000,                             9P     36
0.00000000000,0.00000000000,0.00000000000,                             9P     37
0,0,0;                                                                 9P     38
126,1,1,0,0,1,0,                                                      11P     39
0.00000000000,0.00000000000,1.00000000000,                            11P     40
1.00000000000,1.00000000000,1.00000000000,                            11P     41
0.00000000000,0.00000000000,0.00000000000,                            11P     42
2.00000000000,0.00000000000,0.00000000000,                            11P     43
0.00000000000,1.00000000000,0.00000000000,                            11P     44
0.00000000000,0.00000000000,0,0,0;                                    11P     45
128,1,1,1,1,0,0,                                                      13P     46
1,0,0,                                                                13P     47
0.00000000000,0.00000000000,1.00000000000,                            13P     48
1.00000000000,0.00000000000,0.00000000000,                            13P     49
1.00000000000,1.00000000000,1.00000000000,                            13P     50
1.00000000000,1.00000000000,1.00000000000,                            13P     51
-0.662256028713,0.560667283149,10.0000000000,                         13P     52
0.488098967029,-1.47466078567,10.0000000000,                          13P     53
1.99805853299,2.06426082818,10.0000000000,                            13P     54
3.14841352873,0.289327593546E-01,10.0000000000,                       13P     55
0.00000000000,1.00000000000,0.00000000000,                            13P     56
1.00000000000,0,0,0;                                                  13P     57
126,1,1,0,0,1,0,                                                      15P     58
0.00000000000,0.00000000000,1.00000000000,                            15P     59
1.00000000000,1.00000000000,1.00000000000,                            15P     60
0.00000000000,0.00000000000,10.0000000000,                            15P     61
2.00000000000,0.00000000000,10.0000000000,                            15P     62
0.00000000000,1.00000000000,0.00000000000,                            15P     63
0.00000000000,0.00000000000,0,0,0;                                    15P     64
126,5,3,0,0,1,0,                                                      17P     65
0.00000000000,0.00000000000,0.00000000000,                            17P     66
0.00000000000,0.267174926285,0.572767195925,                          17P     67
1.00000000000,1.00000000000,1.00000000000,                            17P     68
1.00000000000,1.00000000000,1.00000000000,                            17P     69
1.00000000000,1.00000000000,1.00000000000,                            17P     70
1.00000000000,2.00000000000,0.00000000000,                            17P     71
10.0000000000,2.12018504252,0.00000000000,                            17P     72
10.0000000000,2.48615750002,0.214181975142,                           17P     73
10.0000000000,1.82836194212,0.589600042503,                           17P     74
10.0000000000,1.29814239700,0.324535599250,                           17P     75
10.0000000000,1.00000000000,0.250000000000,                           17P     76
10.0000000000,0.00000000000,1.00000000000,                            17P     77
0.00000000000,0.00000000000,0.00000000000,                            17P     78
0,0,0;                                                                17P     79
126,1,1,0,0,1,0,                                                      19P     80
0.00000000000,0.00000000000,1.00000000000,                            19P     81
1.00000000000,1.00000000000,1.00000000000,                            19P     82
0.00000000000,0.00000000000,10.0000000000,                            19P     83
1.00000000000,0.250000000000,10.0000000000,                           19P     84
0.00000000000,1.00000000000,0.00000000000,                            19P     85
0.00000000000,0.00000000000,0,0,0;                                    19P     86
128,1,1,1,1,0,0,                                                      21P     87
1,0,0,                                                                21P     88
0.00000000000,0.00000000000,1.00000000000,                            21P     89
1.00000000000,0.00000000000,0.00000000000,                            21P     90
1.00000000000,1.00000000000,1.00000000000,                            21P     91
1.00000000000,1.00000000000,1.00000000000,                            21P     92
0.00000000000,0.00000000000,0.00000000000,                            21P     93
2.00000000000,0.00000000000,0.00000000000,                            21P     94
0.00000000000,0.00000000000,10.0000000000,                            21P     95
2.00000000000,0.00000000000,10.0000000000,                            21P     96
0.00000000000,1.00000000000,0.00000000000,                            21P     97
1.00000000000,0,0,0;                                                  21P     98
126,1,1,0,0,1,0,                                                      23P     99
0.00000000000,0.00000000000,1.00000000000,                            23P    100
1.00000000000,1.00000000000,1.00000000000,                            23P    101
2.00000000000,0.00000000000,0.00000000000,                            23P    102
2.00000000000,0.00000000000,10.0000000000,                            23P    103
0.00000000000,1.00000000000,0.00000000000,                            23P    104
0.00000000000,0.00000000000,0,0,0;                                    23P    105
126,1,1,0,0,1,0,                                                      25P    106
0.00000000000,0.00000000000,1.00000000000,                            25P    107
1.00000000000,1.00000000000,1.00000000000,                            25P    108
0.00000000000,0.00000000000,0.00000000000,                            25P    109
0.00000000000,0.00000000000,10.0000000000,                            25P    110
0.00000000000,1.00000000000,0.00000000000,                            25P    111
0.00000000000,0.00000000000,0,0,0;                                    25P    112
128,5,1,3,1,0,0,                                                      27P    113
1,0,0,                                                                27P    114
0.00000000000,0.00000000000,0.00000000000,                            27P    115
0.00000000000,0.267174926285,0.572767195925,                          27P    116
1.00000000000,1.00000000000,1.00000000000,                            27P    117
1.00000000000,0.00000000000,0.00000000000,                            27P    118
1.00000000000,1.00000000000,1.00000000000,                            27P    119
1.00000000000,1.00000000000,1.00000000000,                            27P    120
1.00000000000,1.00000000000,1.00000000000,                            27P    121
1.00000000000,1.00000000000,1.00000000000,                            27P    122
1.00000000000,1.00000000000,2.00000000000,                            27P    123
0.00000000000,0.00000000000,2.12018504252,                            27P    124
0.00000000000,0.00000000000,2.48615750002,                            27P    125
0.214181975142,0.00000000000,1.82836194212,                           27P    126
0.589600042503,0.00000000000,1.29814239700,                           27P    127
0.324535599250,0.00000000000,1.00000000000,                           27P    128
0.250000000000,0.00000000000,2.00000000000,                           27P    129
0.00000000000,10.0000000000,2.12018504252,                            27P    130
0.00000000000,10.0000000000,2.48615750002,                            27P    131
0.214181975142,10.0000000000,1.82836194212,                           27P    132
0.589600042503,10.0000000000,1.29814239700,                           27P    133
0.324535599250,10.0000000000,1.00000000000,                           27P    134
0.250000000000,10.0000000000,0.00000000000,                           27P    135
1.00000000000,0.00000000000,1.00000000000,                            27P    136
1.00000000000,0.00000000000,1.00000000000,                            27P    137
0,0,0;                                                                27P    138
126,1,1,0,0,1,0,                                                      29P    139
0.00000000000,0.00000000000,1.00000000000,                            29P    140
1.00000000000,1.00000000000,1.00000000000,                            29P    141
1.00000000000,0.250000000000,0.00000000000,                           29P    142
1.00000000000,0.250000000000,10.0000000000,                           29P    143
0.00000000000,1.00000000000,0.00000000000,                            29P    144
0.00000000000,0.00000000000,0,0,0;                                    29P    145
128,1,1,1,1,0,0,                                                      31P    146
1,0,0,                                                                31P    147
0.00000000000,0.00000000000,1.00000000000,                            31P    148
1.00000000000,0.00000000000,0.00000000000,                            31P    149
1.00000000000,1.00000000000,1.00000000000,                            31P    150
1.00000000000,1.00000000000,1.00000000000,                            31P    151
1.00000000000,0.250000000000,0.00000000000,                           31P    152
0.00000000000,0.00000000000,0.00000000000,                            31P    153
1.00000000000,0.250000000000,10.0000000000,                           31P    154
0.00000000000,0.00000000000,10.0000000000,                            31P    155
0.00000000000,1.00000000000,0.00000000000,                            31P    156
1.00000000000,0,0,0;                                                  31P    157
502,6,0.00000000000,0.00000000000,                                    33P    158
0.00000000000,1.00000000000,0.250000000000,                           33P    159
0.00000000000,2.00000000000,0.00000000000,                            33P    160
0.00000000000,0.00000000000,0.00000000000,                            33P    161
10.0000000000,2.00000000000,0.00000000000,                            33P    162
10.0000000000,1.00000000000,0.250000000000,                           33P    163
10.0000000000,0,0;                                                    33P    164
504,9,7,33,1,33,2,                                                    35P    165
9,33,2,33,3,                                                          35P    166
11,33,3,33,1,                                                         35P    167
15,33,4,33,5,                                                         35P    168
17,33,5,33,6,                                                         35P    169
19,33,6,33,4,                                                         35P    170
23,33,3,33,5,                                                         35P    171
25,33,4,33,1,                                                         35P    172
29,33,2,33,6;                                                         35P    173
508,3,0,35,1,1,0,                                                     37P    174
0,35,2,0,0,                                                           37P    175
0,35,3,0,0;                                                           37P    176
510,5,1,1,37,0,0;                                                     39P    177
508,3,0,35,4,1,0,                                                     41P    178
0,35,5,1,0,                                                           41P    179
0,35,6,0,0;                                                           41P    180
510,13,1,1,41,0,0;                                                    43P    181
508,4,0,35,3,1,0,                                                     45P    182
0,35,7,1,0,                                                           45P    183
0,35,4,0,0,                                                           45P    184
0,35,8,0,0;                                                           45P    185
510,21,1,1,45,0,0;                                                    47P    186
508,4,0,35,2,1,0,                                                     49P    187
0,35,9,1,0,                                                           49P    188
0,35,5,0,0,                                                           49P    189
0,35,7,0,0;                                                           49P    190
510,27,1,1,49,0,0;                                                    51P    191
508,4,0,35,1,0,0,                                                     53P    192
0,35,8,1,0,                                                           53P    193
0,35,6,1,0,                                                           53P    194
0,35,9,0,0;                                                           53P    195
510,31,1,1,53,0,0;                                                    55P    196
514,5,39,0,43,1,47,1,51,1,                                            57P    197
55,1,0,0,0,0,0,0,0,0;                                                 57P    198
186,57,1,0,0,0,0;                                                     59P    199
S      1G      3D     60P    199                                        T      1
