**ABCDEFGHIJKLMNOPQRSTUVWXYZabcdefghijklmnopqrstuvwxyz**************************
**PARASOLID !"#$%&'()*+,-./:;<=>?@[\]^_`{|}~0123456789**************************
**PART1;
MC=AMD64;
MC_MODEL=Intel64 Family 6 Model 58 Stepping 9, GenuineIntel;
MC_ID=unknown;
OS=Windows_NT;
OS_RELEASE=unknown;
FRU=Parasolid Version 27.0, build 199, 11-19-2014;
APPL=SOLIDWORKS 2015-2015063;
SITE=;
USER=unknown;
FORMAT=text;
GUISE=transmit;
KEY=SB Beam;
FILE=SB Beam.x_t;
DATE=Thu Aug 27 17:19:25 2015;
**PART2;
SCH=SCH_2700199_26105;
USFLD_SIZE=0;
**PART3;
**END_OF_HEADER*****************************************************************
T51 : TRANSMIT FILE created by modeller version 270019923 SCH_2700199_26105_1300
6196 0 12 30 CCCCCCCCCCCCCDI5 owner1040 0 CCCCCCCCCA13 boundary_mesh1006 0 A16 i
ndex_map_offset0 0 1 dA9 index_map82 0 A17 node_id_index_map82 0 A20 schema_embe
dding_map82 0 A5 child12 0 A14 lowest_node_id0 0 1 dZ1 687 2 3 0 0 0 0 1e3 1e-8
 0 4 0 1 0 1 1 5 6 7 8 9 10 11 0 0 0 0 0 0 0 81 255 2 2 551 12 1 0 0 0 0 13 0 70
 11 CI9 list_type0 0 1 uI10 notransmit0 0 1 lCCCDCCDI12 finger_index0 0 1 dI12 f
inger_block1012 0 CZ3 0 4 T1 0 0 3 20 1 14 14 13 255 5 414 0 1 0 15 0 0 16 0 50
 255 6 413 0 15 17 0 0 +4.97164465560297 -.01623154954954955 -.02 0 1 0 0 0 1 30
 255 7 393 0 10 18 0 0 +4.97164465560297 -.01623154954954955 -.02 -1 0 0 29 255
 8 294 0 19 20 0 -.0283553443970286 -.01623154954954955 .02 19 8 CCCCCCCA5 owner
12 0 Z9 124 0 1 16 0 21 V0 16 255 10 333 0 ?22 0 23 7 0 0 1 18 255 11 121 0 24 0
 25 26 ?1 17 255 24 0 27 28 29 11 30 31 0 32 +18 25 118 0 29 11 33 34 ?1 29 26 1
23 0 11 34 35 4.97164465560297 -.01623154954954955 .02 29 34 120 0 25 36 26 4.97
164465560297 -.01427300976124402 .02 29 35 313 0 37 26 38 -.0283553443970286 -.0
1623154954954955 -.02 18 37 272 0 39 40 0 35 ?1 29 38 312 0 40 35 41 -.028355344
3970286 -.014273009761244 -.02 18 40 271 0 42 43 37 38 ?1 29 41 311 0 43 38 44 -
.0283553443970286 -.0113138338243275 -.01749323196811885 18 43 270 0 45 46 40 41
 ?1 29 44 310 0 46 41 47 -.0283553443970286 -.0095670904246839 -.007013536063762
26 18 46 269 0 48 49 43 44 ?1 29 47 309 0 49 44 50 -.0283553443970286 -.00364873
855085092 -.002 18 49 268 0 51 52 46 47 ?1 29 50 308 0 52 47 53 -.02835534439702
86 .0511856394517519 -.002 18 52 267 0 54 55 49 50 ?1 29 53 307 0 55 50 56 -.028
3553443970286 .0571039913255848 -.00701353606376227 18 55 266 0 57 58 52 53 ?1 2
9 56 306 0 58 53 59 -.0283553443970286 .0588507347252284 -.01749323196811885 18
 58 265 0 60 61 55 56 ?1 29 59 305 0 61 56 62 -.0283553443970286 .06180991066214
49 -.02 18 61 264 0 63 64 58 59 ?1 29 62 304 0 64 59 65 -.0283553443970286 .0637
684504504505 -.02 18 64 263 0 66 67 61 62 ?1 29 65 303 0 67 62 68 -.028355344397
0286 .0637684504504505 .02 18 67 262 0 69 70 64 65 ?1 29 68 302 0 70 65 71 -.028
3553443970286 .061809910662145 .02 18 70 261 0 72 73 67 68 ?1 29 71 301 0 73 68
 74 -.0283553443970286 .0588507347252284 .01749323196811885 18 73 260 0 75 76 70
 71 ?1 29 74 300 0 76 71 77 -.0283553443970286 .0571039913255848 .00701353606376
225 18 76 259 0 78 79 73 74 ?1 29 77 299 0 79 74 80 -.0283553443970286 .05118563
94517518 .002 18 79 258 0 81 82 76 77 ?1 29 80 298 0 82 77 83 -.0283553443970286
 -.003648738550850905 .002 18 82 257 0 84 85 79 80 ?1 29 83 297 0 85 80 86 -.028
3553443970286 -.00956709042468389 .00701353606376226 18 85 256 0 87 88 82 83 ?1
 29 86 296 0 88 83 20 -.0283553443970286 -.0113138338243275 .01749323196811885 1
8 88 255 0 89 90 85 86 ?1 29 20 295 0 90 86 8 -.0283553443970286 -.0142730097612
4402 .02 18 90 254 0 91 19 88 20 ?1 17 91 0 92 93 94 90 95 96 0 97 +18 19 253 0
 98 99 90 8 ?1 17 98 0 100 32 97 19 101 102 0 103 +18 99 64 0 104 105 19 106 ?1
 17 104 0 107 22 108 99 109 110 0 28 -18 105 67 0 109 111 99 112 ?1 29 106 66 0
 99 0 112 4.97164465560297 -.01623154954954955 -.02 29 112 69 0 105 106 113 4.97
164465560297 -.014273009761244 -.02 29 113 72 0 111 112 114 4.97164465560297 -.0
113138338243275 -.01749323196811885 18 111 70 0 115 116 105 113 ?1 29 114 75 0 1
16 113 117 4.97164465560297 -.0095670904246839 -.00701353606376226 18 116 73 0 1
18 119 111 114 ?1 29 117 78 0 119 114 120 4.97164465560297 -.00364873855085092 -
.002 18 119 76 0 121 122 116 117 ?1 29 120 81 0 122 117 123 4.97164465560297 .05
11856394517519 -.002 18 122 79 0 124 125 119 120 ?1 29 123 84 0 125 120 126 4.97
164465560297 .0571039913255848 -.00701353606376227 18 125 82 0 127 128 122 123 ?
1 29 126 87 0 128 123 129 4.97164465560297 .0588507347252284 -.01749323196811885
 18 128 85 0 130 131 125 126 ?1 29 129 90 0 131 126 132 4.97164465560297 .061809
9106621449 -.02 18 131 88 0 133 134 128 129 ?1 29 132 93 0 134 129 135 4.9716446
5560297 .0637684504504505 -.02 18 134 91 0 136 137 131 132 ?1 29 135 96 0 137 13
2 138 4.97164465560297 .0637684504504505 .02 18 137 94 0 139 140 134 135 ?1 29 1
38 99 0 140 135 141 4.97164465560297 .061809910662145 .02 18 140 97 0 142 143 13
7 138 ?1 29 141 102 0 143 138 144 4.97164465560297 .0588507347252284 .0174932319
6811885 18 143 100 0 145 146 140 141 ?1 29 144 105 0 146 141 147 4.9716446556029
7 .0571039913255848 .00701353606376225 18 146 103 0 148 149 143 144 ?1 29 147 10
8 0 149 144 150 4.97164465560297 .0511856394517518 .002 18 149 106 0 151 152 146
 147 ?1 29 150 111 0 152 147 153 4.97164465560297 -.003648738550850905 .002 18 1
52 109 0 154 155 149 150 ?1 29 153 114 0 155 150 36 4.97164465560297 -.009567090
42468389 .00701353606376226 18 155 112 0 156 33 152 153 ?1 29 36 117 0 33 153 34
 4.97164465560297 -.0113138338243275 .01749323196811885 18 33 115 0 157 25 155 3
6 ?1 17 157 0 27 29 156 33 158 159 0 160 +15 255 27 3 0 28 161 0 17 29 0 27 24 1
57 25 162 163 0 93 +17 156 0 27 157 154 155 164 165 0 166 +17 158 0 167 168 160
 155 157 159 0 0 -16 159 55 0 ?157 163 165 169 0 0 1 17 160 0 167 158 89 33 94 1
70 0 162 -15 167 338 0 89 171 0 17 89 0 167 160 168 88 172 173 0 94 +17 94 0 92
 91 162 88 160 170 0 95 +16 170 316 0 ?94 174 175 176 0 0 1 17 162 0 92 94 93 33
 29 163 0 0 -15 92 336 0 91 177 0 17 93 0 92 162 91 25 97 175 0 30 -16 163 58 0
 ?29 31 159 178 0 0 1 16 31 61 0 ?24 179 163 180 0 0 1 31 255 178 59 0 163 169 1
80 0 +4.97164465560297 -.014273009761244 .017 1 0 0 0 0 1 .003 30 169 56 0 159 1
81 178 0 +4.97164465560297 -.0113138338243275 .01749323196811885 0 -.16441065603
96235 .986391978972163 30 180 62 0 31 178 182 0 +4.97164465560297 -.016231549549
54955 .02 0 -1 0 30 182 293 0 183 180 184 0 +-.0283553443970286 -.01623154954954
955 -.02 0 0 -1 16 183 249 0 ?185 186 0 182 0 0 1 30 184 292 0 186 182 187 0 +-.
0283553443970286 -.014273009761244 -.02 0 1 1771445733535635e-30 16 186 245 0 ?4
2 188 183 184 0 0 1 31 187 291 0 188 184 189 0 +-.0283553443970286 -.01427300976
1244 -.017 1 0 0 0 0 -1 .003 16 188 241 0 ?45 190 186 187 0 0 1 30 189 290 0 190
 187 191 0 +-.0283553443970286 -.0095670904246839 -.00701353606376226 0 .1644106
56039623 .986391978972163 16 190 237 0 ?48 192 188 189 0 0 1 31 191 289 0 192 18
9 193 0 +-.0283553443970286 -.00364873855085092 -.008 -1 0 0 0 0 -1 .006 16 192
 233 0 ?51 194 190 191 0 0 1 30 193 288 0 194 191 195 0 +-.0283553443970286 .051
1856394517519 -.002 0 1 -790892292009981e-32 16 194 229 0 ?54 196 192 193 0 0 1
 31 195 287 0 196 193 197 0 +-.0283553443970286 .0511856394517518 -.008 -1 0 0 0
 0 -1 .006 16 196 225 0 ?57 198 194 195 0 0 1 30 197 286 0 198 195 199 0 +-.0283
553443970286 .0588507347252284 -.01749323196811885 0 .164410656039623 -.98639197
8972163 16 198 221 0 ?60 200 196 197 0 0 1 31 199 285 0 200 197 201 0 +-.0283553
443970286 .0618099106621449 -.017 1 0 0 0 0 -1 .003 16 200 217 0 ?63 202 198 199
 0 0 1 30 201 284 0 202 199 203 0 +-.0283553443970286 .0637684504504505 -.02 0 1
 531433720060693e-29 16 202 213 0 ?66 204 200 201 0 0 1 30 203 283 0 204 201 205
 0 +-.0283553443970286 .0637684504504505 .02 0 0 1 16 204 209 0 ?69 206 202 203
 0 0 1 30 205 282 0 206 203 207 0 +-.0283553443970286 .061809910662145 .02 0 -1
 -531433720060695e-29 16 206 205 0 ?72 208 204 205 0 0 1 31 207 281 0 208 205 20
9 0 +-.0283553443970286 .0618099106621449 .017 1 0 0 0 0 1 .003 16 208 201 0 ?75
 210 206 207 0 0 1 30 209 280 0 210 207 211 0 +-.0283553443970286 .0571039913255
848 .00701353606376225 0 -.164410656039624 -.986391978972163 16 210 197 0 ?78 21
2 208 209 0 0 1 31 211 279 0 212 209 213 0 +-.0283553443970286 .0511856394517518
 .008 -1 0 0 0 0 -1 .006 16 212 193 0 ?81 214 210 211 0 0 1 30 213 278 0 214 211
 215 0 +-.0283553443970286 -.00364873855085091 .002 0 -1 0 16 214 189 0 ?84 216
 212 213 0 0 1 31 215 277 0 216 213 217 0 +-.0283553443970286 -.0036487385508509
1 .008 -1 0 0 0 0 -1 .006 16 216 185 0 ?87 173 214 215 0 0 1 30 217 276 0 173 21
5 218 0 +-.0283553443970286 -.0113138338243275 .01749323196811885 0 -.1644106560
396235 .986391978972163 16 173 181 0 ?89 96 216 217 0 0 1 31 218 275 0 96 217 21
9 0 +-.0283553443970286 -.014273009761244 .017 1 0 0 0 0 1 .003 16 96 177 0 ?91
 102 173 218 0 0 1 30 219 274 0 102 218 220 0 +-.0283553443970286 -.016231549549
54955 .02 0 -1 0 16 102 173 0 ?98 221 96 219 0 0 1 30 220 374 0 179 219 222 0 +4
.97164465560297 -.01623154954954955 .02 -1 0 0 16 179 314 0 ?103 175 31 220 0 0
 1 30 222 375 0 175 220 176 0 +4.97164465560297 -.01427300976124402 .02 -1 0 0 1
6 175 315 0 ?97 170 179 222 0 0 1 30 176 376 0 170 222 223 0 +4.97164465560297 -
.0113138338243275 .01749323196811885 -1 0 0 30 223 377 0 174 176 224 0 +4.971644
65560297 -.00956709042468389 .00701353606376226 -1 0 0 16 174 317 0 ?168 225 170
 223 0 0 1 30 224 378 0 225 223 226 0 +4.97164465560297 -.003648738550850905 .00
2 -1 0 0 16 225 318 0 ?227 228 174 224 0 0 1 30 226 379 0 228 224 229 0 +4.97164
465560297 .0511856394517518 .002 -1 0 0 16 228 319 0 ?230 231 225 226 0 0 1 30 2
29 380 0 231 226 232 0 +4.97164465560297 .0571039913255848 .00701353606376225 -1
 0 0 16 231 320 0 ?233 234 228 229 0 0 1 30 232 381 0 234 229 235 0 +4.971644655
60297 .0588507347252284 .01749323196811885 -1 0 0 16 234 321 0 ?236 237 231 232
 0 0 1 30 235 382 0 237 232 238 0 +4.97164465560297 .061809910662145 .02 -1 0 0
 16 237 322 0 ?239 240 234 235 0 0 1 30 238 383 0 240 235 241 0 +4.9716446556029
7 .0637684504504505 .02 -1 0 0 16 240 323 0 ?242 243 237 238 0 0 1 30 241 384 0
 243 238 244 0 +4.97164465560297 .0637684504504505 -.02 -1 0 0 16 243 324 0 ?245
 246 240 241 0 0 1 30 244 385 0 246 241 247 0 +4.97164465560297 .061809910662144
9 -.02 -1 0 0 16 246 325 0 ?248 249 243 244 0 0 1 30 247 386 0 249 244 250 0 +4.
97164465560297 .0588507347252284 -.01749323196811885 -1 0 0 16 249 326 0 ?251 25
2 246 247 0 0 1 30 250 387 0 252 247 253 0 +4.97164465560297 .0571039913255848 -
.00701353606376227 -1 0 0 16 252 327 0 ?254 255 249 250 0 0 1 30 253 388 0 255 2
50 256 0 +4.97164465560297 .0511856394517519 -.002 -1 0 0 16 255 328 0 ?257 258
 252 253 0 0 1 30 256 389 0 258 253 259 0 +4.97164465560297 -.00364873855085092
 -.002 -1 0 0 16 258 329 0 ?260 261 255 256 0 0 1 30 259 390 0 261 256 262 0 +4.
97164465560297 -.0095670904246839 -.00701353606376226 -1 0 0 16 261 330 0 ?263 2
64 258 259 0 0 1 30 262 391 0 264 259 18 0 +4.97164465560297 -.0113138338243275
 -.01749323196811885 -1 0 0 16 264 331 0 ?265 23 261 262 0 0 1 30 18 392 0 23 26
2 7 0 +4.97164465560297 -.014273009761244 -.02 -1 0 0 16 23 332 0 ?266 10 264 18
 0 0 1 17 266 0 267 45 268 40 108 23 0 269 +15 267 368 0 45 270 0 17 45 0 267 27
1 266 43 269 188 0 265 +17 268 0 267 266 271 105 115 272 0 0 -17 108 0 107 104 4
2 105 266 23 0 268 -17 269 0 273 39 274 40 45 188 0 0 -15 273 172 0 275 276 0 17
 39 0 273 275 269 37 42 186 0 22 -17 274 0 273 269 277 43 48 190 0 0 -17 277 0 2
73 274 278 46 51 192 0 0 -17 48 0 279 280 265 46 274 190 0 263 +15 279 366 0 48
 281 0 17 280 0 279 282 48 116 263 261 0 283 -17 265 0 279 48 282 43 271 264 0 2
74 +17 263 0 284 51 283 46 280 261 0 277 +15 284 364 0 51 285 0 17 51 0 284 286
 263 49 277 192 0 260 +17 283 0 284 263 286 116 121 287 0 0 -17 286 0 284 283 51
 119 260 258 0 288 -17 121 0 27 124 118 119 283 287 0 286 +16 287 16 0 ?121 289
 290 291 0 0 1 16 289 19 0 ?124 292 287 293 0 0 1 16 290 13 0 ?118 287 272 294 0
 0 1 31 291 17 0 287 294 293 0 +4.97164465560297 -.00364873855085092 -.008 -1 0
 0 0 0 -1 .006 30 294 14 0 290 295 291 0 +4.97164465560297 -.0095670904246839 -.
00701353606376226 0 .164410656039623 .986391978972163 30 293 20 0 289 291 296 0
 +4.97164465560297 .0511856394517519 -.002 0 1 -790892292009981e-32 31 296 23 0
 292 293 297 0 +4.97164465560297 .0511856394517518 -.008 -1 0 0 0 0 -1 .006 16 2
92 22 0 ?127 298 289 296 0 0 1 30 297 26 0 298 296 299 0 +4.97164465560297 .0588
507347252284 -.01749323196811885 0 .164410656039623 -.986391978972163 16 298 25
 0 ?130 300 292 297 0 0 1 31 299 29 0 300 297 301 0 +4.97164465560297 .061809910
6621449 -.017 1 0 0 0 0 -1 .003 16 300 28 0 ?133 302 298 299 0 0 1 30 301 32 0 3
02 299 303 0 +4.97164465560297 .0637684504504505 -.02 0 1 531433720060693e-29 16
 302 31 0 ?136 304 300 301 0 0 1 30 303 35 0 304 301 305 0 +4.97164465560297 .06
37684504504505 .02 0 0 1 16 304 34 0 ?139 306 302 303 0 0 1 30 305 38 0 306 303
 307 0 +4.97164465560297 .061809910662145 .02 0 -1 -531433720060695e-29 16 306 3
7 0 ?142 308 304 305 0 0 1 31 307 41 0 308 305 309 0 +4.97164465560297 .06180991
06621449 .017 1 0 0 0 0 1 .003 16 308 40 0 ?145 310 306 307 0 0 1 30 309 44 0 31
0 307 311 0 +4.97164465560297 .0571039913255848 .00701353606376225 0 -.164410656
039624 -.986391978972163 16 310 43 0 ?148 312 308 309 0 0 1 31 311 47 0 312 309
 313 0 +4.97164465560297 .0511856394517518 .008 -1 0 0 0 0 -1 .006 16 312 46 0 ?
151 314 310 311 0 0 1 30 313 50 0 314 311 181 0 +4.97164465560297 -.003648738550
85091 .002 0 -1 0 16 314 49 0 ?154 165 312 313 0 0 1 31 181 53 0 165 313 169 0 +
4.97164465560297 -.00364873855085091 .008 -1 0 0 0 0 -1 .006 16 165 52 0 ?156 15
9 314 181 0 0 1 17 154 0 27 156 151 152 315 314 0 316 +17 151 0 27 154 148 149 3
17 312 0 318 +17 315 0 319 230 316 149 154 314 0 0 -17 316 0 319 315 84 152 227
 225 0 164 -15 319 342 0 84 320 0 17 84 0 319 316 230 82 321 214 0 227 +17 227 0
 322 87 164 82 316 225 0 323 +17 164 0 322 227 166 152 156 165 0 0 -15 322 340 0
 87 324 0 17 166 0 322 164 87 155 168 174 0 158 -17 87 0 322 166 227 85 323 216
 0 168 +17 168 0 167 89 158 85 166 174 0 172 +17 172 0 273 323 95 85 89 173 0 0
 -17 323 0 273 321 172 82 87 216 0 0 -17 95 0 273 172 101 88 91 96 0 0 -17 101 0
 273 95 275 90 98 102 0 0 -17 275 0 273 101 39 19 185 183 0 0 -17 185 0 325 326
 103 37 275 183 0 0 +15 325 372 0 185 15 0 17 326 0 325 327 185 99 22 10 0 0 -17
 103 0 325 185 327 19 32 179 0 275 +17 327 0 325 103 326 11 28 221 0 0 -17 32 0
 100 30 98 11 103 179 0 327 -15 100 334 0 98 328 0 17 30 0 100 97 32 25 24 31 0
 0 -17 97 0 100 98 30 90 93 175 0 101 +14 255 328 335 329 ?161 177 100 5 330 -0
 0 161 177 21 81 1 329 666 331 328 332 0 0 333 334 14 161 1 333 ?276 328 27 5 33
5 -0 0 276 328 21 14 177 337 336 ?328 171 92 5 337 -0 0 328 171 21 50 330 394 0
 328 338 337 0 +4.97164465560297 -.01623154954954955 .02 0 0 -1 -1 0 0 13 21 125
 0 0 0 0 0 0 9 15 14 15 373 339 ?340 0 325 5 6 -0 0 340 0 21 81 1 339 669 331 15
 341 0 336 342 343 14 340 371 342 ?270 15 107 5 17 -0 0 270 15 21 81 1 342 670 3
31 340 344 0 339 345 346 14 270 369 345 ?281 340 267 5 347 -0 0 281 340 21 15 10
7 370 0 42 340 0 50 17 412 0 340 347 6 0 +4.97164465560297 -.014273009761244 -.0
2 0 -1771445733535635e-30 1 0 -1 -1771445733535635e-30 51 255 347 411 0 270 348
 17 0 -4.97164465560297 -.014273009761244 -.017 -1 0 0 .003 0 0 1 50 348 410 0 2
81 349 347 0 +4.97164465560297 -.0095670904246839 -.00701353606376226 0 -.986391
978972163 .164410656039623 0 -.164410656039623 -.986391978972163 14 281 367 350
 ?285 270 279 5 348 -0 0 285 270 21 51 349 409 0 285 351 348 0 +4.97164465560297
 -.00364873855085092 -.008 -1 0 0 .006 0 0 1 14 285 365 352 ?353 281 284 5 349 -
0 0 353 281 21 50 351 408 0 353 354 349 0 +4.97164465560297 .0511856394517519 -.
002 0 790892292009981e-32 1 0 -1 790892292009981e-32 14 353 363 355 ?356 285 357
 5 351 -0 0 356 285 21 51 354 407 0 356 358 351 0 +4.97164465560297 .05118563945
17518 -.008 -1 0 0 .006 0 0 1 14 356 361 359 ?360 353 361 5 354 -0 0 360 353 21
 50 358 406 0 360 362 354 0 +4.97164465560297 .0588507347252284 -.01749323196811
885 0 .986391978972163 .164410656039623 0 -.164410656039623 .986391978972163 14
 360 359 363 ?364 356 365 5 358 -0 0 364 356 21 51 362 405 0 364 366 358 0 -4.97
164465560297 .0618099106621449 -.017 -1 0 0 .003 0 0 1 14 364 357 367 ?368 360 3
69 5 362 -0 0 368 360 21 50 366 404 0 368 370 362 0 +4.97164465560297 .063768450
4504505 -.02 0 -531433720060693e-29 1 0 -1 -531433720060693e-29 14 368 355 371 ?
372 364 373 5 366 -0 0 372 364 21 50 370 403 0 372 374 366 0 +4.97164465560297 .
0637684504504505 .02 0 -1 0 0 0 -1 14 372 353 375 ?376 368 377 5 370 -0 0 376 36
8 21 50 374 402 0 376 378 370 0 +4.97164465560297 .061809910662145 .02 0 5314337
20060695e-29 -1 0 1 531433720060695e-29 14 376 351 379 ?380 372 381 5 374 -0 0 3
80 372 21 51 378 401 0 380 382 374 0 -4.97164465560297 .0618099106621449 .017 -1
 0 0 .003 0 0 1 14 380 349 383 ?384 376 385 5 378 -0 0 384 376 21 50 382 400 0 3
84 386 378 0 +4.97164465560297 .0571039913255848 .00701353606376225 0 .986391978
972163 -.164410656039624 0 .164410656039624 .986391978972163 14 384 347 387 ?388
 380 389 5 382 -0 0 388 380 21 51 386 399 0 388 390 382 0 +4.97164465560297 .051
1856394517518 .008 -1 0 0 .006 0 0 1 14 388 345 391 ?320 384 392 5 386 -0 0 320
 384 21 50 390 398 0 320 393 386 0 +4.97164465560297 -.00364873855085091 .002 0
 0 -1 -1 0 0 14 320 343 394 ?324 388 319 5 390 -0 0 324 388 21 51 393 397 0 324
 395 390 0 +4.97164465560297 -.00364873855085091 .008 -1 0 0 .006 0 0 1 14 324 3
41 396 ?171 320 322 5 393 -0 0 171 320 21 50 395 396 0 171 337 393 0 +4.97164465
560297 -.0113138338243275 .01749323196811885 0 -.986391978972163 -.1644106560396
235 0 .1644106560396235 -.986391978972163 14 171 339 397 ?177 324 167 5 395 -0 0
 177 324 21 51 337 395 0 177 330 395 0 -4.97164465560297 -.014273009761244 .017
 -1 0 0 .003 0 0 1 81 1 397 686 331 171 398 0 396 399 400 80 255 1 331 401 402 9
000 1 1 1 1 1 1 1 1 0 FFFFTFTFFFFFFF1 81 1 398 615 403 171 0 397 404 405 406 81
 1 396 685 331 324 404 0 394 397 407 81 1 399 687 331 276 408 0 397 0 409 82 255
 1 400 -1875771233 14 276 171 399 ?0 161 273 5 338 +0 0 0 161 21 81 1 408 619 40
3 276 0 399 410 0 411 82 1 409 -1880358753 80 1 403 0 412 8001 0 0 0 0 3 5 0 0 0
 FFFFTFTFFFFFFF2 81 1 410 618 403 161 0 333 332 408 413 83 255 3 411 1 1 1 81 1
 333 667 331 161 410 0 329 336 414 81 1 332 617 403 328 0 329 405 410 415 83 3 4
13 1 1 1 81 1 405 616 403 177 0 336 398 332 416 83 3 415 1 1 1 81 1 336 668 331
 177 405 0 333 339 417 83 3 416 1 1 1 82 1 417 -1876033377 82 1 414 -1904869217
 79 255 15 412 SDL/TYSA_COLOUR50 338 273 0 276 335 330 0 +-.0283553443970286 -.0
14273009761244 .017 -1 0 0 0 0 1 50 335 2 0 161 0 338 0 +4.97164465560297 -.0142
73009761244 .017 -1 0 0 0 0 1 81 1 404 614 403 324 0 396 418 398 419 81 1 394 68
4 331 320 418 0 391 396 420 82 1 407 -1875509089 81 1 418 613 403 320 0 394 421
 404 422 81 1 391 683 331 388 421 0 387 394 423 82 1 420 -1875246945 81 1 421 61
2 403 388 0 391 424 418 425 81 1 387 682 331 384 424 0 383 391 426 82 1 423 -187
4984801 81 1 424 611 403 384 0 387 427 421 428 81 1 383 681 331 380 427 0 379 38
7 429 82 1 426 -1874722657 81 1 427 610 403 380 0 383 430 424 431 81 1 379 680 3
31 376 430 0 375 383 432 82 1 429 -1874460513 81 1 430 609 403 376 0 379 433 427
 434 81 1 375 679 331 372 433 0 371 379 435 82 1 432 -1874198369 81 1 433 608 40
3 372 0 375 436 430 437 81 1 371 678 331 368 436 0 367 375 438 82 1 435 -1873936
225 81 1 436 607 403 368 0 371 439 433 440 81 1 367 677 331 364 439 0 363 371 44
1 82 1 438 -1873674081 81 1 439 606 403 364 0 367 442 436 443 81 1 363 676 331 3
60 442 0 359 367 444 82 1 441 -1873411937 81 1 442 605 403 360 0 363 445 439 446
 81 1 359 675 331 356 445 0 355 363 447 82 1 444 -1873149793 81 1 445 604 403 35
6 0 359 448 442 449 81 1 355 674 331 353 448 0 352 359 450 82 1 447 -1872887649
 81 1 448 603 403 353 0 355 451 445 452 81 1 352 673 331 285 451 0 350 355 453 8
2 1 450 -1872625505 81 1 451 602 403 285 0 352 454 448 455 81 1 350 672 331 281
 454 0 345 352 456 82 1 453 -1872363361 81 1 454 601 403 281 0 350 457 451 458 8
1 1 345 671 331 270 457 0 342 350 459 82 1 456 -1872101217 81 1 457 600 403 270
 0 345 344 454 460 82 1 459 -1871839073 81 1 344 599 403 340 0 342 341 457 461 8
3 3 460 1 1 1 81 1 341 598 403 15 0 339 0 344 462 83 3 461 1 1 1 83 3 462 1 1 1
 83 3 458 1 1 1 83 3 455 1 1 1 83 3 452 1 1 1 83 3 449 1 1 1 83 3 446 1 1 1 83 3
 443 1 1 1 83 3 440 1 1 1 83 3 437 1 1 1 83 3 434 1 1 1 83 3 431 1 1 1 83 3 428
 1 1 1 83 3 425 1 1 1 83 3 422 1 1 1 83 3 419 1 1 1 83 3 406 1 1 1 79 14 402 SWE
ntUnchanged15 392 344 0 81 388 0 17 81 0 392 318 233 79 463 212 0 230 +17 318 0
 392 317 81 149 230 228 0 315 -17 233 0 392 81 317 76 464 231 0 463 +17 463 0 27
3 465 321 76 81 212 0 0 -17 230 0 319 84 315 79 318 228 0 321 +17 321 0 273 463
 323 79 84 214 0 0 -17 465 0 273 466 463 73 78 210 0 0 -17 466 0 273 467 465 70
 75 208 0 0 -17 78 0 389 464 236 76 465 210 0 233 +15 389 346 0 78 384 0 17 464
 0 389 468 78 146 233 231 0 317 -17 236 0 389 78 468 73 469 234 0 465 +17 468 0
 389 236 464 143 148 310 0 0 -17 469 0 385 470 75 143 236 234 0 468 -15 385 348
 0 75 380 0 17 470 0 385 239 469 140 145 308 0 0 -17 75 0 385 469 239 73 466 208
 0 236 +17 239 0 385 75 470 70 471 237 0 466 +17 471 0 381 472 72 140 239 237 0
 470 -15 381 350 0 72 376 0 17 472 0 381 242 471 137 142 306 0 0 -17 72 0 381 47
1 242 70 467 206 0 239 +17 242 0 381 72 472 67 473 240 0 467 +17 467 0 273 474 4
66 67 72 206 0 0 -17 474 0 273 475 467 64 69 204 0 0 -17 475 0 273 476 474 61 66
 202 0 0 -17 69 0 377 473 245 67 474 204 0 242 +15 377 352 0 69 372 0 17 473 0 3
77 477 69 137 242 240 0 472 -17 245 0 377 69 477 64 478 243 0 474 +17 477 0 377
 245 473 134 139 304 0 0 -17 478 0 373 479 66 134 245 243 0 477 -15 373 354 0 66
 368 0 17 479 0 373 248 478 131 136 302 0 0 -17 66 0 373 478 248 64 475 202 0 24
5 +17 248 0 373 66 479 61 480 246 0 475 +17 480 0 369 481 63 131 248 246 0 479 -
15 369 356 0 63 364 0 17 481 0 369 251 480 128 133 300 0 0 -17 63 0 369 480 251
 61 476 200 0 248 +17 251 0 369 63 481 58 482 249 0 476 +17 476 0 273 483 475 58
 63 200 0 0 -17 483 0 273 484 476 55 60 198 0 0 -17 484 0 273 278 483 52 57 196
 0 0 -17 60 0 365 482 254 58 483 198 0 251 +15 365 358 0 60 360 0 17 482 0 365 4
85 60 128 251 249 0 481 -17 254 0 365 60 485 55 486 252 0 483 +17 485 0 365 254
 482 125 130 298 0 0 -17 486 0 361 487 57 125 254 252 0 485 -15 361 360 0 57 356
 0 17 487 0 361 257 486 122 127 292 0 0 -17 57 0 361 486 257 55 484 196 0 254 +1
7 257 0 361 57 487 52 488 255 0 484 +17 488 0 357 288 54 122 257 255 0 487 -15 3
57 362 0 54 353 0 17 288 0 357 260 488 119 124 289 0 0 -17 54 0 357 488 260 52 2
78 194 0 257 +17 260 0 357 54 288 49 286 258 0 278 +17 278 0 273 277 484 49 54 1
94 0 0 -17 124 0 27 127 121 122 288 289 0 488 +17 127 0 27 130 124 125 487 292 0
 486 +17 130 0 27 133 127 128 485 298 0 482 +17 133 0 27 136 130 131 481 300 0 4
80 +17 136 0 27 139 133 134 479 302 0 478 +17 139 0 27 142 136 137 477 304 0 473
 +17 142 0 27 145 139 140 472 306 0 471 +17 145 0 27 148 142 143 470 308 0 469 +
17 148 0 27 151 145 146 468 310 0 464 +17 317 0 392 233 318 146 151 312 0 0 -17
 42 0 107 108 22 40 39 186 0 266 +17 22 0 107 42 104 37 326 10 0 185 +82 1 346 -
1871576929 82 1 343 -1871314785 82 1 334 -1876295521 17 28 0 27 109 24 99 327 22
1 0 326 +16 221 4 0 ?28 110 102 489 0 0 1 16 110 7 0 ?109 272 221 490 0 0 1 30 4
89 5 0 221 0 490 0 +4.97164465560297 -.01623154954954955 -.02 0 0 -1 30 490 8 0
 110 489 295 0 +4.97164465560297 -.014273009761244 -.02 0 1 1771445733535635e-30
 31 295 11 0 272 490 294 0 +4.97164465560297 -.014273009761244 -.017 1 0 0 0 0 -
1 .003 16 272 10 0 ?115 290 110 295 0 0 1 17 115 0 27 118 109 111 268 272 0 271
 +17 118 0 27 121 115 116 282 290 0 280 +17 109 0 27 115 28 105 104 110 0 108 +1
7 271 0 267 268 45 111 265 264 0 282 -17 282 0 279 265 280 111 118 290 0 0 -19 1
6 415 0 1 0 9 5 S0 74 4 CI16 index_map_offset0 0 1 dCCZ20 14 3 0 0 399 2 408 0 0
 0 0 0 0 0 0 0 0 0 0 0 0 0 0 0 80 2 12 491 492 8004 0 0 0 0 3 5 0 0 0 FFTFFFFFFF
FFFF2 3 83 1 13 1e3 79 16 492 SDL/TYSA_DENSITY1 0 
